<svg width="150" height="150" viewBox="0 0 150 150" fill="none" xmlns="http://www.w3.org/2000/svg">
<path d="M0 33.3333C0 14.9238 14.9238 0 33.3333 0H116.667C135.076 0 150 14.9238 150 33.3333V116.667C150 135.076 135.076 150 116.667 150H33.3333C14.9238 150 0 135.076 0 116.667V33.3333Z" fill="#595DD2"/>
<path d="M78.5925 48.6818C78.6033 48.6936 78.6156 48.7038 78.6265 48.7156C78.6187 48.7009 78.6079 48.6877 78.5925 48.6818ZM78.5925 48.6818C78.6033 48.6936 78.6156 48.7038 78.6265 48.7156C78.6187 48.7009 78.6079 48.6877 78.5925 48.6818ZM78.5925 48.6818C78.6033 48.6936 78.6156 48.7038 78.6265 48.7156C78.6187 48.7009 78.6079 48.6877 78.5925 48.6818ZM76.4934 52.8327C76.5089 52.8253 76.5213 52.8151 76.529 52.7989C76.5166 52.8106 76.5058 52.8209 76.4934 52.8327ZM78.5925 48.6818C78.6033 48.6936 78.6156 48.7038 78.6265 48.7156C78.6187 48.7009 78.6079 48.6877 78.5925 48.6818ZM76.4934 52.8327C76.5089 52.8253 76.5213 52.8151 76.529 52.7989C76.5166 52.8106 76.5058 52.8209 76.4934 52.8327ZM78.5925 48.6818C78.6033 48.6936 78.6156 48.7038 78.6265 48.7156C78.6187 48.7009 78.6079 48.6877 78.5925 48.6818ZM76.4934 52.8327C76.5089 52.8253 76.5213 52.8151 76.529 52.7989C76.5166 52.8106 76.5058 52.8209 76.4934 52.8327ZM78.5925 48.6818C78.6033 48.6936 78.6156 48.7038 78.6265 48.7156C78.6187 48.7009 78.6079 48.6877 78.5925 48.6818ZM76.4934 52.8327C76.5089 52.8253 76.5213 52.8151 76.529 52.7989C76.5166 52.8106 76.5058 52.8209 76.4934 52.8327ZM78.5925 48.6818C78.6033 48.6936 78.6156 48.7038 78.6265 48.7156C78.6187 48.7009 78.6079 48.6877 78.5925 48.6818ZM76.4934 52.8327C76.5089 52.8253 76.5213 52.8151 76.529 52.7989C76.5166 52.8106 76.5058 52.8209 76.4934 52.8327ZM78.5925 48.6818C78.6033 48.6936 78.6156 48.7038 78.6265 48.7156C78.6187 48.7009 78.6079 48.6877 78.5925 48.6818ZM76.4934 52.8327C76.5089 52.8253 76.5213 52.8151 76.529 52.7989C76.5166 52.8106 76.5058 52.8209 76.4934 52.8327ZM78.5925 48.6818C78.6033 48.6936 78.6156 48.7038 78.6265 48.7156C78.6187 48.7009 78.6079 48.6877 78.5925 48.6818ZM76.4934 52.8327C76.5089 52.8253 76.5213 52.8151 76.529 52.7989C76.5166 52.8106 76.5058 52.8209 76.4934 52.8327ZM78.5925 48.6818C78.6033 48.6936 78.6156 48.7038 78.6265 48.7156C78.6187 48.7009 78.6079 48.6877 78.5925 48.6818ZM76.4934 52.8327C76.5089 52.8253 76.5213 52.8151 76.529 52.7989C76.5166 52.8106 76.5058 52.8209 76.4934 52.8327ZM78.5925 48.6818C78.6033 48.6936 78.6156 48.7038 78.6265 48.7156C78.6187 48.7009 78.6079 48.6877 78.5925 48.6818ZM76.4934 52.8327C76.5089 52.8253 76.5213 52.8151 76.529 52.7989C76.5166 52.8106 76.5058 52.8209 76.4934 52.8327ZM78.5925 48.6818C78.6033 48.6936 78.6156 48.7038 78.6265 48.7156C78.6187 48.7009 78.6079 48.6877 78.5925 48.6818ZM76.4934 52.8327C76.5089 52.8253 76.5213 52.8151 76.529 52.7989C76.5166 52.8106 76.5058 52.8209 76.4934 52.8327ZM78.5925 48.6818C78.6033 48.6936 78.6156 48.7038 78.6265 48.7156C78.6187 48.7009 78.6079 48.6877 78.5925 48.6818ZM76.4934 52.8327C76.5089 52.8253 76.5213 52.8151 76.529 52.7989C76.5166 52.8106 76.5058 52.8209 76.4934 52.8327ZM119.304 62.2795C119.287 62.2222 119.254 62.1605 119.209 62.1031C119.058 60.8214 118.392 59.8484 117.198 59.1649C118.636 58.2638 119.336 57.0365 119.053 55.4491C118.772 53.869 117.718 52.9165 115.97 52.5799C118.001 51.9375 118.469 50.4809 118.333 49.3888C117.865 46.3021 113.541 46.0992 112.592 48.7744C112.464 48.8552 112.449 48.7362 112.401 48.6759C111.983 47.4148 111.088 46.6078 109.742 46.1801C111.283 45.4216 112.085 44.2854 111.662 42.6259C111.354 41.4236 110.478 40.6666 109.192 40.4917C107.526 40.2639 106.419 41.0517 105.753 42.504C105.278 41.012 104.269 40.1037 102.714 39.8611C100.974 39.5907 99.6568 40.2903 98.7077 41.7264C98.1235 40.7945 97.3166 40.1816 96.2192 39.9464C96.1713 39.9111 96.1172 39.9126 96.0631 39.917C96.1156 39.9082 96.1713 39.9067 96.2053 39.8538C96.2702 39.8053 96.3583 39.8185 96.4232 39.7744C99.1838 38.7999 99.1405 35.0738 96.2656 34.2374C95.1001 33.9317 93.8389 34.2536 93.0537 35.1385C91.6641 36.7112 92.3751 39.0468 94.3551 39.7788C94.4463 39.8097 94.519 39.8758 94.6163 39.892C94.5715 39.9302 94.4958 39.8964 94.4571 39.9508C93.386 40.2727 92.5452 40.8621 92.0104 41.9101C91.5111 40.965 90.7275 40.3991 89.7506 40.0743C89.7985 39.9567 89.8758 39.9728 89.9314 39.9493C93.0382 38.7808 92.6178 34.2507 89.0427 33.9111C87.1693 33.698 85.7829 35.0106 85.4877 36.723C85.4614 36.7744 85.449 36.8259 85.4444 36.8788C85.4382 36.8273 85.4197 36.7759 85.3795 36.7274C85.109 34.7284 83.112 33.6318 81.4705 33.992C78.3606 34.6005 78.0159 38.4001 80.455 39.6877C80.7471 39.845 81.0794 39.9214 81.3901 40.1198C80.0469 40.4329 79.1752 41.1987 78.7347 42.4172C78.5724 42.2849 78.5677 42.1277 78.5028 41.9983C77.0762 39.2614 72.9245 39.6539 72.0821 42.5995C72.0435 42.6495 72.0497 42.7083 72.045 42.7656C72.0435 42.7083 72.0481 42.6495 72.0095 42.5995C71.1995 39.842 67.3493 39.3555 65.8655 41.8102C64.7 43.746 65.986 46.1507 68.2844 46.524C68.3107 46.5461 68.3354 46.5652 68.3648 46.5828C68.3834 46.5946 68.3973 46.6049 68.4158 46.6137H68.4251C68.4483 46.6225 68.473 46.6313 68.4993 46.6357C68.7389 46.6622 68.9846 46.6607 69.2257 46.6402C69.2412 46.6372 69.2566 46.6343 69.2721 46.6299C70.7544 46.3227 71.8255 45.4275 72.0404 44.2061C72.0466 44.1855 72.0481 44.162 72.045 44.1414C72.0419 44.0767 72.0218 44.012 72.0651 43.9782C72.0357 44.0179 72.0419 44.0782 72.045 44.1414C72.045 44.1634 72.0481 44.1869 72.045 44.209C72.1841 45.3011 73.3959 46.4035 74.4501 46.5769C73.2599 46.7768 72.3078 47.8572 72.0265 48.9522C72.0157 48.9875 72.0048 49.0243 71.9956 49.061C71.9801 49.1345 71.9693 49.208 71.9677 49.283C71.9631 49.3579 71.9616 49.4344 71.9631 49.5093C71.9631 49.6857 71.9631 49.8621 71.9616 50.0385C71.9631 50.1384 71.9647 50.2384 71.977 50.3369C71.9817 50.3545 71.9863 50.3707 71.9909 50.3868C72.0017 50.4295 72.0126 50.4677 72.0265 50.5074C72.3541 51.6142 73.0404 52.4358 74.2213 52.8562C74.2955 52.8753 74.3697 52.8871 74.4454 52.8974C74.4578 52.8988 74.4733 52.9003 74.4856 52.9047C74.5119 52.9106 74.5413 52.9194 74.566 52.9297L74.5737 52.9312L74.566 52.9371C74.5119 52.9797 74.4609 52.8885 74.4068 52.9268C72.9554 53.3471 72.212 54.3966 71.9646 55.721C71.9677 55.9062 71.9337 56.0429 72.0002 56.2178V56.2251V56.234V56.2428V56.2516V56.2722C72.0079 56.2928 72.0172 56.3133 72.028 56.3339C72.045 56.3648 72.0667 56.3956 72.0929 56.4265C72.4036 57.8979 73.4068 58.9165 74.9818 59.1737C75.0189 59.2046 75.0575 59.2295 75.0977 59.2472C75.2956 59.3368 75.5212 59.2869 75.7345 59.2942C75.8149 59.2825 75.8937 59.2678 75.971 59.2531L75.9926 59.2472H76.005C76.0545 59.2369 76.1039 59.2266 76.1519 59.2163C77.4023 58.9268 78.288 58.2153 78.6976 56.9601C78.6976 56.9116 78.6976 56.8645 78.6945 56.819C78.6945 56.7278 78.6929 56.6279 78.7424 56.5544C78.7238 56.5926 78.7192 56.6543 78.7099 56.7161C78.7084 56.7293 78.7053 56.7411 78.7037 56.7528C78.9155 57.9758 80.0887 59.1252 81.3406 59.2178C81.3623 59.2266 81.387 59.2237 81.4102 59.2207C81.4689 59.2119 81.5308 59.1943 81.5694 59.2619C81.5261 59.2031 81.4658 59.2119 81.4102 59.2207C81.3978 59.2222 81.387 59.2266 81.3746 59.2266C81.3592 59.2281 81.3437 59.2281 81.3283 59.2251C80.0315 59.425 79.0175 60.4187 78.7192 61.7474C78.7115 61.7783 78.7053 61.8077 78.7007 61.8371L78.6991 61.8518C78.6821 61.9312 78.6697 62.0061 78.6589 62.0884C78.6728 62.2854 78.6203 62.4912 78.7053 62.6764C78.7238 62.719 78.7501 62.7602 78.7857 62.7998C79.0067 64.2286 80.1165 65.2545 81.5802 65.5338C81.6065 65.5573 81.6328 65.5779 81.6621 65.5955C81.6807 65.6088 81.7008 65.619 81.7209 65.6264H81.7286C81.7518 65.6382 81.7688 65.6455 81.7951 65.6514C81.9867 65.6764 82.1768 65.6661 82.3685 65.6661C82.4473 65.6631 82.5262 65.6558 82.6034 65.6411L82.6313 65.6352C83.9636 65.3971 84.9127 64.6357 85.4088 63.3996C85.8462 64.4917 86.548 65.2972 87.6949 65.5794C86.4707 65.9733 85.7087 66.8288 85.3918 68.0678V68.0811C85.3887 68.0914 85.3872 68.1031 85.3872 68.1134C85.3655 68.2207 85.364 68.328 85.3625 68.4353C85.3625 68.6793 85.3501 69.11 85.3733 69.3496V69.3628L85.3764 69.3731C85.381 69.3878 85.3841 69.4025 85.3887 69.4172C85.7473 70.671 86.4491 71.6205 87.8989 71.9042L87.9313 71.9086L87.9128 71.913C87.7258 71.9027 87.5527 71.9747 87.3811 72.0512C86.2126 72.5671 85.6098 73.4799 85.3934 74.6131L85.3903 74.6293C85.3795 74.6881 85.3686 74.7484 85.3594 74.8086C85.364 74.9321 85.3485 75.0585 85.381 75.1761C85.398 75.2378 85.4289 75.2952 85.4799 75.3481C85.752 76.9326 86.7706 78.0027 88.4801 78.1923C88.5079 78.2143 88.5357 78.232 88.5651 78.2452C88.6825 78.3069 88.8155 78.3143 88.9515 78.3099C89.038 78.3025 89.1246 78.2922 89.2096 78.279C90.5342 78.11 91.9145 77.0634 92.0583 75.7347C92.0243 76.9826 93.5838 78.2129 94.6364 78.2334C94.7369 78.2276 94.8389 78.2393 94.9378 78.2173C94.8389 78.2452 94.7354 78.2246 94.6364 78.2334C93.2453 78.3922 92.185 79.6651 91.9702 80.9203C91.9485 81.1467 91.9501 81.3789 91.9733 81.6053C91.9887 81.6847 92.0274 81.7508 92.0768 81.814C92.304 83.2413 93.3365 84.182 94.7802 84.5377C94.8034 84.5671 94.8296 84.5906 94.859 84.6097C94.8776 84.6229 94.8976 84.6332 94.9193 84.642C94.9657 84.6626 95.0198 84.6729 95.0754 84.6773C95.4464 84.6935 95.8235 84.6979 96.179 84.5862C96.23 84.5744 96.2826 84.5627 96.3336 84.5524C97.4835 84.2231 98.2656 83.5161 98.7093 82.4431C99.1498 83.4941 99.8561 84.2569 101.009 84.5877C99.7959 84.9904 99.0524 85.7694 98.6954 87.0159C98.6892 87.0291 98.6861 87.0423 98.683 87.0556C98.6783 87.0673 98.6752 87.0791 98.6721 87.0923C98.6675 87.1246 98.6644 87.1555 98.6629 87.1878C98.6613 87.2099 98.6598 87.2305 98.6598 87.2525C98.6582 87.2702 98.6582 87.2893 98.6582 87.3069C98.6536 87.5259 98.6582 87.7479 98.6567 87.9669C98.6567 88.0404 98.6567 88.1124 98.6582 88.1859C98.6582 88.1962 98.6582 88.2123 98.6598 88.2226C98.6598 88.2653 98.6613 88.3064 98.6644 88.349C98.6675 88.3623 98.6675 88.3755 98.6691 88.3887C98.6706 88.399 98.6722 88.4078 98.6737 88.4181C98.6753 88.4284 98.6784 88.4416 98.6814 88.4519V88.5019C99.0617 89.816 100.066 90.7449 101.321 90.9286C101.374 90.9375 101.428 90.9433 101.482 90.9492C101.53 90.9536 101.583 90.9566 101.632 90.9595C101.927 90.961 102.223 90.9595 102.518 90.9581C102.549 90.9566 102.58 90.9551 102.609 90.9522C102.635 90.9507 102.66 90.9492 102.685 90.9448C102.714 90.9434 102.742 90.9404 102.771 90.936C104.031 90.7846 104.798 89.9865 105.371 88.8958C105.861 89.9541 106.639 90.6347 107.7 90.9889C106.52 91.4725 105.669 92.2163 105.402 93.4245C105.391 93.4833 105.379 93.5391 105.37 93.5979C105.366 93.6214 105.362 93.645 105.359 93.6685C105.353 93.864 105.345 94.0624 105.373 94.2564C105.383 94.3049 105.399 94.3446 105.425 94.3872C105.439 94.4122 105.456 94.4357 105.475 94.4593C105.747 95.938 106.796 96.9977 108.37 97.1506C109.687 97.299 110.762 96.7787 111.469 95.7087C112.52 94.1197 111.939 91.9002 109.717 91.1315C109.589 91.0874 109.449 91.0786 109.35 90.9683C110.837 90.5568 111.84 89.7116 112.089 88.1947C112.144 88.0756 112.141 87.9551 112.135 87.8331C112.155 88.0565 112.226 88.2741 112.276 88.4946C112.877 91.252 117.31 91.7621 118.447 88.7106C119.046 87.0776 118.067 85.3285 116.341 84.7611C119.706 83.5735 119.843 79.6754 116.931 78.2422C119.636 76.9488 119.826 73.5063 117.143 71.9409C117.194 71.7998 117.339 71.769 117.454 71.7043C118.382 71.1884 118.893 70.2506 119.101 69.2761C119.12 69.2511 119.137 69.2261 119.152 69.1996C119.166 69.1791 119.175 69.1702 119.188 69.1555V69.135C119.199 69.11 119.206 69.0821 119.211 69.0541C119.225 68.8145 119.259 68.5544 119.183 68.3221C119.175 68.3001 119.165 68.2824 119.151 68.2619C119.135 68.2325 119.117 68.206 119.095 68.181C118.865 67.0669 118.24 66.2041 117.183 65.5955C118.41 64.9282 119.036 63.9566 119.205 62.7043C119.251 62.647 119.284 62.5882 119.302 62.5294C119.33 62.4441 119.332 62.3648 119.304 62.2795ZM85.4923 61.5211C85.432 61.5167 85.3717 61.5122 85.3114 61.5078C84.9111 60.3261 84.0626 59.597 82.8121 59.2722C82.8183 59.2413 82.8214 59.2104 82.8198 59.1796C84.1136 58.8974 84.925 58.1036 85.4026 56.8851C85.8694 58.0316 86.5371 58.8929 87.8834 59.2266C86.5959 59.6014 85.8833 60.4172 85.4923 61.5211ZM85.3934 50.7293C85.8432 51.7553 86.4382 52.5049 87.5218 52.9268C86.4151 53.3648 85.8122 54.1482 85.4042 55.208C84.976 54.0821 84.2527 53.3251 83.0517 52.9385C84.1785 52.5387 84.9529 51.8685 85.3934 50.7293ZM83.0486 46.5799C84.2017 46.2256 84.9034 45.5525 85.3934 44.575C85.8725 45.4775 86.4429 46.2095 87.497 46.5814C86.4274 46.9797 85.8432 47.7323 85.4104 48.7141C84.9482 47.6867 84.2527 46.9429 83.0486 46.5799ZM85.4428 37.0302C85.4475 37.1007 85.4521 37.1713 85.4459 37.2404C85.4459 37.2654 85.4475 37.2889 85.449 37.3124C85.4475 37.3241 85.449 37.3344 85.449 37.3447C85.5062 38.6103 86.2976 39.4275 87.4228 40.0713C86.4738 40.4109 85.8957 41.0635 85.4057 41.8557C85.075 41.4692 84.8586 41.0547 84.4861 40.7636C84.1027 40.4652 83.6591 40.2683 83.2032 40.0934C84.4598 39.5289 85.3161 38.6999 85.432 37.3477C85.4336 37.3359 85.4336 37.3241 85.4336 37.3124C85.4367 37.2859 85.4382 37.2595 85.4397 37.233C85.4274 37.1669 85.4382 37.0978 85.4428 37.0302ZM78.7872 55.3432C78.7331 55.2859 78.679 55.23 78.6234 55.1727C78.6156 55.1654 78.6079 55.1565 78.6002 55.1492C78.2277 54.063 77.4456 53.3648 76.3265 52.9885C76.3821 52.9371 76.4378 52.8841 76.4934 52.8327C76.5089 52.8253 76.5213 52.8151 76.529 52.7989C77.5306 52.3947 78.2462 51.7303 78.611 50.744C78.6682 50.7117 78.7269 50.6793 78.7841 50.647C79.1628 51.7582 79.9295 52.5152 81.1552 52.9297C79.8862 53.3707 79.1087 54.1615 78.7872 55.3432ZM78.6002 44.4765C78.662 44.4456 78.7254 44.4133 78.7872 44.381C79.1288 45.479 79.9325 46.1492 81.0964 46.5755C79.9094 47.0061 79.1226 47.7425 78.7826 48.8714C78.73 48.82 78.679 48.767 78.6265 48.7156C78.6187 48.7009 78.6079 48.6877 78.5925 48.6818C78.1318 47.5706 77.3065 46.8562 75.9942 46.5814C77.2771 46.2668 78.1643 45.6171 78.6002 44.4765ZM92.0026 44.8425C92.4354 45.6186 93.0027 46.2007 93.8667 46.5872C92.9903 47.0106 92.4122 47.6073 92.0196 48.4407C91.5884 47.5735 90.9531 46.9606 90.0072 46.5843C90.9114 46.2242 91.5528 45.6656 92.0026 44.8425ZM92.015 51.0145C92.4045 51.9067 93.0351 52.4946 93.9053 52.9356C93.0259 53.3795 92.3968 53.988 92.0258 54.914C91.6038 53.9689 90.9655 53.3427 89.9902 52.9444C90.899 52.5181 91.6054 51.9449 92.015 51.0145ZM92.0196 57.1894C92.4617 58.1654 93.1356 58.8547 94.2129 59.234C93.1449 59.6705 92.4169 60.3657 92.0335 61.4402C91.5992 60.3275 90.8217 59.6014 89.6146 59.2295C90.7986 58.9135 91.5405 58.2212 92.0196 57.1894ZM92.0212 63.3422C92.4524 64.4623 93.2067 65.1957 94.4061 65.5852C93.1881 66.0365 92.3968 66.7847 92.0304 68.0296C91.6162 66.7317 90.7692 65.9527 89.3719 65.5911C90.7043 65.2604 91.559 64.5549 92.0212 63.3422ZM92.0428 74.5397C91.6564 73.1947 90.8697 72.2834 89.4291 71.9997C89.4322 71.9424 89.4337 71.8866 89.4368 71.8292C90.8155 71.5896 91.6085 70.7459 92.0351 69.4701C92.389 70.7401 93.2113 71.5176 94.5514 71.9174C93.1572 72.3848 92.355 73.2183 92.0428 74.5397ZM105.703 44.3766C105.764 44.4104 105.824 44.4427 105.884 44.475C106.221 45.2717 106.856 45.7906 107.73 46.1698C106.659 46.5035 105.883 47.0561 105.353 47.9395C104.949 47.3545 104.484 46.8886 103.822 46.5681C104.764 46.0581 105.397 45.3423 105.703 44.3766ZM106.753 52.9371C106.142 53.4001 105.733 53.7087 105.366 54.4128C104.972 53.7778 104.485 53.3001 103.832 52.9488C104.444 52.5828 104.961 52.1624 105.334 51.548C105.714 52.1125 106.167 52.5828 106.753 52.9371ZM105.342 57.6788C105.765 58.3285 106.252 58.8871 107.036 59.2369C106.277 59.6543 105.739 60.1894 105.351 60.9199C104.946 60.1761 104.376 59.6426 103.561 59.2531C104.345 58.8885 104.929 58.3947 105.342 57.6788ZM104.532 64.9106C104.856 64.6151 105.119 64.2785 105.349 63.8552C105.773 64.6519 106.359 65.2031 107.183 65.5926C106.348 66.0144 105.756 66.6024 105.353 67.4255C104.943 66.5656 104.297 65.9968 103.414 65.6029C103.812 65.3604 104.215 65.1972 104.532 64.9106ZM105.325 70.1036C105.601 70.4814 105.807 70.865 106.116 71.1781C106.436 71.5014 106.869 71.669 107.272 71.9336C106.362 72.4113 105.761 72.9919 105.357 73.9223C104.951 72.9581 104.269 72.3393 103.227 71.9159C104.24 71.5529 104.929 71.0017 105.325 70.1036ZM105.356 76.1947C105.791 77.1781 106.484 77.8586 107.557 78.2467C106.47 78.6788 105.757 79.3902 105.359 80.4397C104.934 79.3226 104.153 78.6288 102.957 78.2525C104.124 77.8998 104.907 77.2618 105.356 76.1947ZM105.351 82.3711C105.771 83.4544 106.509 84.1805 107.683 84.5877C106.481 85.0227 105.75 85.7974 105.363 86.9497C104.948 85.6974 104.13 84.9478 102.822 84.5935C104.04 84.2319 104.926 83.5823 105.351 82.3711ZM98.7077 44.9866C99.1266 45.6744 99.6397 46.1977 100.374 46.5637C99.5918 46.9312 99.1019 47.5044 98.6691 48.1982C98.2533 47.4868 97.7123 46.9665 96.9348 46.5858C97.7386 46.211 98.278 45.7038 98.7077 44.9866ZM98.666 51.2629C99.0802 51.9846 99.6088 52.5446 100.352 52.9415C99.6181 53.3471 99.0895 53.8866 98.7 54.6524C98.2502 53.9204 97.7231 53.3222 96.8699 52.9444C97.6598 52.5417 98.2517 52.0404 98.666 51.2629ZM98.6768 57.426C99.142 58.2271 99.7016 58.8694 100.634 59.2354C99.7572 59.6676 99.1142 60.2687 98.6984 61.2124C98.2363 60.2658 97.5794 59.6308 96.5732 59.2398C97.5562 58.8959 98.2007 58.2874 98.6768 57.426ZM98.6845 63.5568C99.1374 64.5372 99.7943 65.1869 100.802 65.5838C99.7897 66.0277 99.1127 66.6994 98.6969 67.7254C98.2286 66.6818 97.5268 65.9703 96.366 65.5985C97.4588 65.2251 98.21 64.6122 98.6845 63.5568ZM98.7216 69.8302C99.1189 70.8282 99.8082 71.5308 100.933 71.9174C99.7989 72.3863 99.0895 73.1065 98.7062 74.2472C98.2657 73.0801 97.5114 72.3202 96.3382 71.9527C98.2285 70.9782 97.8236 71.1472 98.7216 69.8302ZM98.6969 75.8669C99.1343 77.1075 99.9257 77.8704 101.204 78.2452C99.9072 78.6773 99.091 79.4696 98.7402 80.7175C98.4774 80.3721 98.4249 79.9605 98.1729 79.643C97.9117 79.3153 97.6227 79.0213 97.2718 78.7817C96.9194 78.5392 96.5082 78.426 96.1064 78.2878C96.1125 78.2569 96.1156 78.2261 96.1141 78.1937C97.3877 77.8954 98.2363 77.1443 98.6969 75.8669ZM111.971 64.0698C112.376 64.7312 112.88 65.231 113.597 65.6043C112.885 65.9895 112.384 66.5113 111.971 67.2212C111.555 66.4657 110.993 65.9792 110.252 65.5911C110.993 65.2413 111.537 64.7636 111.971 64.0698ZM110.398 59.2531C111.133 58.8856 111.651 58.3858 112.065 57.6935C112.463 58.3197 112.922 58.7915 113.586 59.1502C112.909 59.5456 112.385 60.0218 111.986 60.6877C111.552 60.0968 111.09 59.5897 110.398 59.2531ZM111.211 71.2766C111.521 71.0296 111.735 70.6901 111.98 70.2785C112.368 71.0208 112.915 71.5323 113.719 71.9174C112.92 72.3598 112.379 72.9066 111.983 73.6915C111.548 72.9037 110.98 72.329 110.158 71.9571C110.541 71.7116 110.901 71.522 111.211 71.2766ZM111.974 76.4181C112.416 77.2692 113.017 77.863 113.909 78.2496C113.027 78.6803 112.407 79.2844 112.005 80.1619C111.232 78.986 111.166 78.9257 109.928 78.2349C110.838 77.8851 111.515 77.3162 111.974 76.4181ZM112.136 87.5671C112.136 87.4363 112.136 87.2364 112.132 87.1055C112.024 85.8841 111.201 85.1594 110.116 84.5877C110.963 84.229 111.534 83.6631 112.002 82.8782C112.424 83.838 113.194 84.3172 114.03 84.7405C112.628 85.6959 112.313 86.0913 112.14 87.1055L112.136 87.1217V87.5671ZM112.081 54.404C111.705 53.7749 111.254 53.3222 110.668 52.9503C111.594 52.3741 112.208 51.5907 112.5 50.4765C112.903 51.6024 113.639 52.2403 114.818 52.5696C113.588 52.8283 112.647 53.328 112.081 54.404ZM76.4934 52.8327C76.5089 52.8253 76.5213 52.8151 76.529 52.7989C76.5166 52.8106 76.5058 52.8209 76.4934 52.8327ZM78.5925 48.6818C78.6033 48.6936 78.6156 48.7038 78.6265 48.7156C78.6187 48.7009 78.6079 48.6877 78.5925 48.6818ZM76.4934 52.8327C76.5089 52.8253 76.5213 52.8151 76.529 52.7989C76.5166 52.8106 76.5058 52.8209 76.4934 52.8327ZM78.5925 48.6818C78.6033 48.6936 78.6156 48.7038 78.6265 48.7156C78.6187 48.7009 78.6079 48.6877 78.5925 48.6818ZM76.4934 52.8327C76.5089 52.8253 76.5213 52.8151 76.529 52.7989C76.5166 52.8106 76.5058 52.8209 76.4934 52.8327ZM78.5925 48.6818C78.6033 48.6936 78.6156 48.7038 78.6265 48.7156C78.6187 48.7009 78.6079 48.6877 78.5925 48.6818ZM76.4934 52.8327C76.5089 52.8253 76.5213 52.8151 76.529 52.7989C76.5166 52.8106 76.5058 52.8209 76.4934 52.8327ZM78.5925 48.6818C78.6033 48.6936 78.6156 48.7038 78.6265 48.7156C78.6187 48.7009 78.6079 48.6877 78.5925 48.6818ZM76.4934 52.8327C76.5089 52.8253 76.5213 52.8151 76.529 52.7989C76.5166 52.8106 76.5058 52.8209 76.4934 52.8327ZM78.5925 48.6818C78.6033 48.6936 78.6156 48.7038 78.6265 48.7156C78.6187 48.7009 78.6079 48.6877 78.5925 48.6818ZM76.4934 52.8327C76.5089 52.8253 76.5213 52.8151 76.529 52.7989C76.5166 52.8106 76.5058 52.8209 76.4934 52.8327ZM78.5925 48.6818C78.6033 48.6936 78.6156 48.7038 78.6265 48.7156C78.6187 48.7009 78.6079 48.6877 78.5925 48.6818ZM76.4934 52.8327C76.5089 52.8253 76.5213 52.8151 76.529 52.7989C76.5166 52.8106 76.5058 52.8209 76.4934 52.8327ZM78.5925 48.6818C78.6033 48.6936 78.6156 48.7038 78.6265 48.7156C78.6187 48.7009 78.6079 48.6877 78.5925 48.6818ZM76.4934 52.8327C76.5089 52.8253 76.5213 52.8151 76.529 52.7989C76.5166 52.8106 76.5058 52.8209 76.4934 52.8327ZM78.5925 48.6818C78.6033 48.6936 78.6156 48.7038 78.6265 48.7156C78.6187 48.7009 78.6079 48.6877 78.5925 48.6818ZM76.4934 52.8327C76.5089 52.8253 76.5213 52.8151 76.529 52.7989C76.5166 52.8106 76.5058 52.8209 76.4934 52.8327ZM78.5925 48.6818C78.6033 48.6936 78.6156 48.7038 78.6265 48.7156C78.6187 48.7009 78.6079 48.6877 78.5925 48.6818ZM76.4934 52.8327C76.5089 52.8253 76.5213 52.8151 76.529 52.7989C76.5166 52.8106 76.5058 52.8209 76.4934 52.8327ZM78.5925 48.6818C78.6033 48.6936 78.6156 48.7038 78.6265 48.7156C78.6187 48.7009 78.6079 48.6877 78.5925 48.6818ZM78.5925 48.6818C78.6033 48.6936 78.6156 48.7038 78.6265 48.7156C78.6187 48.7009 78.6079 48.6877 78.5925 48.6818ZM78.5925 48.6818C78.6033 48.6936 78.6156 48.7038 78.6265 48.7156C78.6187 48.7009 78.6079 48.6877 78.5925 48.6818Z" fill="white"/>
<path d="M105.436 93.6463C105.432 93.7389 105.445 94.3137 105.428 94.3916C105.424 94.4165 105.413 94.4415 105.396 94.4636C104.699 98.1618 99.4483 98.0897 98.7821 94.4621C98.5935 94.2563 98.6646 93.9873 98.6569 93.7375C98.6646 93.6787 98.6739 93.6213 98.6847 93.5655V93.5537C98.6878 93.5331 98.6925 93.5126 98.6971 93.492C98.9243 92.3705 99.6167 91.5812 100.734 91.0946C100.977 90.9859 101.232 90.9197 101.498 90.9286C101.53 90.9344 102.677 90.933 102.677 90.933C102.71 90.9344 102.739 90.9331 102.771 90.936L102.778 90.9403C104.079 91.0697 105.17 92.106 105.402 93.4245C105.416 93.4965 105.428 93.5728 105.436 93.6463Z" fill="white"/>
<path d="M72.0433 49.2776V50.3432L72.0417 50.3594C72.0386 50.4123 72.034 50.4652 72.0247 50.5167C71.8624 51.6264 70.714 52.7259 69.4543 52.9522C69.4095 52.964 69.3615 52.9757 69.3152 52.989L69.3074 52.9904L69.2951 52.9948C69.0308 53.0522 68.7526 53.0419 68.4852 53.0228C68.4542 53.014 68.4264 53.0037 68.3971 52.9904C68.3661 52.9801 68.3337 52.9684 68.3043 52.9552C68.1637 52.8964 68.0276 52.8302 67.8715 52.8111C66.1976 52.2717 65.1063 50.6901 65.5654 49.0277C65.8792 47.6813 66.8777 46.9228 68.2842 46.6245C68.309 46.6068 68.3368 46.598 68.3646 46.5921C68.4264 46.5789 69.1374 46.5892 69.2178 46.5862C70.5548 46.6333 71.7836 47.6872 72.0263 48.9615C72.0324 48.9939 72.0386 49.0306 72.0433 49.063V49.1173C72.0448 49.1703 72.0433 49.2246 72.0433 49.2776Z" fill="white"/>
<path d="M85.3907 69.2355V69.2414C85.3892 69.2752 85.3892 69.3075 85.3907 69.3413V69.4251C85.3907 69.4736 85.3907 69.5236 85.3892 69.5736C84.9889 70.9126 84.0723 71.6872 82.6642 71.9268H82.6549C82.641 71.9283 82.6271 71.9297 82.6132 71.9327C82.5838 71.9371 82.5544 71.9415 82.5235 71.9459C82.2855 71.9327 82.0351 71.9871 81.8033 71.9268C81.726 71.9062 81.6502 71.8739 81.5776 71.821C77.8804 71.1919 77.9391 66.3428 81.5776 65.6373C81.6379 65.5932 81.7074 65.5932 81.7801 65.5946H82.6101C83.9007 65.6402 85.1125 66.6956 85.3969 67.9861C85.3938 68.0155 85.3918 68.0399 85.3918 68.0678C85.3887 68.0855 85.3923 68.1066 85.3923 68.1243C85.3923 68.233 85.4108 68.3418 85.4309 68.4506C85.4325 68.4609 85.434 68.4726 85.4371 68.4829L85.4417 68.5094C85.4696 68.7534 85.4016 68.993 85.3907 69.2355Z" fill="white"/>
<path d="M98.6843 88.1562C98.6843 88.2341 98.6859 88.3811 98.6843 88.459V88.531C98.3937 89.7833 97.3303 90.7005 95.9145 90.9372C95.9037 90.9401 95.8913 90.9416 95.879 90.943L95.862 90.9474C95.8171 90.9533 95.7708 90.9592 95.7259 90.9651C95.5466 90.9577 95.3627 90.9857 95.1896 90.943C95.1154 90.9254 95.0443 90.8945 94.9763 90.8431C91.3053 90.2507 91.1199 85.4751 94.7707 84.6505C94.8001 84.6314 94.831 84.6211 94.8619 84.6167C94.933 84.605 95.0057 84.6167 95.0768 84.6123C95.1788 84.6123 95.7816 84.6138 95.8712 84.6109C95.8821 84.6109 95.896 84.6109 95.9068 84.6094C95.9733 84.6079 96.0382 84.5888 96.1046 84.5815L96.1216 84.58L96.1819 84.5932C97.5065 84.8784 98.2856 85.7059 98.6843 86.9097C98.6859 86.9435 98.6859 86.9773 98.6859 87.0111C98.6859 87.0288 98.6859 87.0464 98.6859 87.0626C98.6859 87.0773 98.6859 87.092 98.6859 87.1052C98.689 87.167 98.6859 87.2287 98.689 87.2904C98.6921 87.58 98.7029 87.8681 98.6843 88.1562Z" fill="white"/>
<path d="M78.7053 62.6764C78.6883 62.816 78.6555 62.9589 78.5983 63.0956C77.8178 66.172 73.0757 66.3601 72.2271 63.0588C71.816 61.392 73.0154 59.7428 74.6739 59.3562C74.813 59.3004 74.9555 59.2648 75.0977 59.2472C75.3713 59.2119 75.6492 59.2357 75.9274 59.2489C75.9537 59.2504 75.9787 59.2472 76.005 59.2472C76.0576 59.2501 76.1114 59.2563 76.1639 59.2578C77.5689 59.6135 78.5226 60.5483 78.6942 61.7653C78.6957 61.7889 78.6991 61.8136 78.7007 61.8371L78.6991 61.8518C78.713 62.1281 78.7393 62.4045 78.7053 62.6764Z" fill="white"/>
<path d="M91.9925 81.8224C91.6385 84.2286 88.4962 85.4015 86.5966 83.7288C84.6923 82.1281 85.4821 78.9958 87.9691 78.3902C88.1299 78.2815 88.3324 78.402 88.4946 78.3035C88.6168 78.1903 88.7682 78.2697 88.9058 78.2462C88.9537 78.2491 89.0016 78.258 89.048 78.2727C89.2165 78.3168 89.3927 78.2594 89.5627 78.3035C90.8595 78.6093 91.9477 79.6338 92.0388 80.9331C92.0435 81.158 92.0388 81.3829 92.0404 81.6078C92.0388 81.6827 92.0481 81.7577 91.9925 81.8224Z" fill="white"/>
<path d="M72.0256 56.3429C72.0194 56.3737 72.0102 56.4031 71.9978 56.434C71.6269 58.2463 69.9251 59.531 67.8523 58.9901C64.5554 58.0244 64.8491 53.6986 68.1769 52.9945C68.2171 52.9651 68.261 52.9566 68.3043 52.9552C68.363 52.9508 68.4227 52.9592 68.4814 52.9548C68.6514 52.9534 69.1074 52.9592 69.2713 52.9519C69.2821 52.9519 69.2914 52.9519 69.3022 52.9504H69.3084C69.3547 52.9475 69.4064 52.9478 69.4543 52.9522C70.5455 53.0022 72.0225 54.3453 72.0411 55.6153C72.0442 55.6491 72.0426 55.6829 72.0411 55.7167C72.021 55.9254 72.0766 56.1371 72.0256 56.3429Z" fill="white"/>
<path d="M98.68 94.2879C98.6692 94.4129 98.646 94.5363 98.6012 94.6598C97.9056 97.7406 93.1666 98.1639 92.2423 94.7656C91.7554 92.8357 93.1218 91.3688 94.975 91.016C95.0446 90.9778 95.117 90.9548 95.1896 90.943C95.3983 90.9063 95.6149 90.9513 95.8267 90.9352L95.856 90.9396L95.879 90.943C95.8929 90.946 95.9055 90.9469 95.9179 90.9499C97.4651 91.2056 98.5611 92.2309 98.6847 93.5537L98.6862 93.5721C98.6769 93.8102 98.7001 94.0513 98.68 94.2879Z" fill="white"/>
<path d="M85.3796 75.181C85.3688 75.3353 85.344 75.4926 85.2946 75.6426C84.6222 78.7807 79.724 79.0806 78.9311 75.6646C78.5215 73.8155 79.843 72.3603 81.5742 72.0046C81.6483 71.9635 81.7275 71.94 81.8033 71.9268C82.0397 71.8842 82.2836 71.94 82.5201 71.9164C82.551 71.9164 82.5804 71.9194 82.6113 71.9209C82.6252 71.9223 82.641 71.9253 82.6549 71.9268H82.6642C83.9795 72.0415 85.14 73.1247 85.3749 74.4681C85.3811 74.4961 85.3842 74.5225 85.3889 74.5504C85.3889 74.7606 85.3981 74.9723 85.3796 75.181Z" fill="white"/>
<path d="M75.4319 65.7088C77.2357 65.6867 78.636 67.1463 78.6175 68.7587C78.5232 72.7832 72.2432 72.7744 72.2107 68.719C72.2153 67.061 73.6374 65.6735 75.4319 65.7088Z" fill="white"/>
<path d="M62.1809 46.7088C63.9661 46.7206 65.2876 47.9861 65.2629 49.7676C65.1439 54.017 58.8932 53.6378 58.9226 49.6809C58.9473 48.117 60.2843 46.6383 62.1809 46.7088Z" fill="white"/>
<path d="M88.7214 90.7664C86.8388 90.7826 85.5559 89.2775 85.5915 87.6797C85.7399 83.6758 91.7989 83.6832 91.9457 87.7459C91.9395 89.5362 90.3521 90.8105 88.7214 90.7664Z" fill="white"/>
<path d="M92.1932 100.404C92.2226 98.8502 93.5039 97.4024 95.3943 97.398C99.617 97.5376 99.6433 103.294 95.3943 103.457C93.6322 103.457 92.184 102.077 92.1932 100.404Z" fill="white"/>
<path d="M65.5691 62.3806C65.5768 60.7197 67.0034 59.3689 68.7531 59.3689C72.945 59.4924 73.0331 65.2983 68.7284 65.4042C66.9509 65.3939 65.5629 64.0519 65.5691 62.3806Z" fill="white"/>
<path d="M78.9053 81.4232C78.9285 79.8799 80.145 78.41 82.0662 78.3865C86.2843 78.4394 86.3678 84.2968 82.108 84.4129C80.3552 84.4321 78.9115 83.0754 78.9053 81.4232Z" fill="white"/>
<path d="M78.5684 75.0497C78.5607 76.5784 77.4015 78.0586 75.3921 78.0468C71.1848 77.9983 71.2807 72.0659 75.4277 72.0571C77.3999 72.0718 78.5545 73.5534 78.5684 75.0497Z" fill="white"/>
<path d="M65.204 56.0635C65.1854 57.8508 63.8376 59.0179 62.1358 59.0297C57.9842 58.987 57.9162 53.1193 62.1312 53.0517C63.8794 53.0605 65.1994 54.2497 65.204 56.0635Z" fill="white"/>
<path d="M88.8172 91.1108C90.1959 91.0637 91.9271 92.2411 91.8993 94.0873C91.7323 98.1117 85.576 98.0059 85.644 94.0255C85.6749 92.0309 87.338 91.0329 88.8172 91.1108Z" fill="white"/>
<path d="M71.8783 68.7468C71.8875 70.227 70.7391 71.7174 68.7483 71.7071C64.4977 71.6263 64.7157 65.8012 68.7359 65.7718C70.668 65.7601 71.8906 67.2402 71.8783 68.7468Z" fill="white"/>
<path d="M85.2095 87.7735C85.2451 89.3433 83.8818 90.7132 82.0965 90.7088C77.846 90.5427 78.0407 84.7999 82.1862 84.7514C83.772 84.7882 85.2961 86.0993 85.2095 87.7735Z" fill="white"/>
<path d="M75.4059 78.4782C76.9902 78.4208 78.5143 79.7011 78.5143 81.4194C78.4292 85.2116 72.4661 85.41 72.3161 81.4282C72.2991 79.5556 73.9453 78.4179 75.4059 78.4782Z" fill="white"/>
<path d="M62.1256 59.4424C63.7841 59.4982 65.1566 60.5389 65.1597 62.3806C65.1752 66.3507 59.0497 66.2214 59.0327 62.3953C59.0281 60.6021 60.5196 59.4512 62.1256 59.4424Z" fill="white"/>
<path d="M88.7638 97.4976C90.3419 97.4711 91.8613 98.7293 91.8459 100.467C91.6758 104.378 85.6972 104.299 85.7034 100.406C85.7173 98.8381 86.9554 97.4726 88.7638 97.4976Z" fill="white"/>
<path d="M65.6978 75.0397C65.6576 73.5448 66.9853 72.1294 68.7768 72.1367C72.8295 72.2866 72.8279 77.878 68.7381 77.9706C66.8818 77.9588 65.6344 76.4978 65.6978 75.0397Z" fill="white"/>
<path d="M85.1814 94.0489C85.1876 95.7584 83.7548 96.9725 82.1411 97.0004C78.0018 96.8843 78.0265 91.2533 82.121 91.1739C83.8073 91.1842 85.1768 92.4277 85.1814 94.0489Z" fill="white"/>
<path d="M52.4046 56.0488C52.3567 54.5686 53.6566 53.1208 55.465 53.1252C57.1698 53.1296 58.5161 54.4319 58.5254 56.0561C58.5331 57.4319 57.3971 58.94 55.4835 58.9591C53.6643 58.9767 52.3752 57.5495 52.4046 56.0488Z" fill="white"/>
<path d="M72.3903 87.7112C72.3115 86.2663 73.6454 84.8303 75.4198 84.8347C79.4772 84.9758 79.4448 90.5378 75.3828 90.6216C73.8015 90.6127 72.3131 89.3648 72.3903 87.7112Z" fill="white"/>
<path d="M62.1042 65.8551C63.5756 65.8492 65.1136 66.8472 65.0966 68.7566C64.9806 72.7502 59.1566 72.4092 59.0855 68.7669C59.07 67.2544 60.373 65.8507 62.1042 65.8551Z" fill="white"/>
<path d="M85.1139 100.448C85.1463 102.135 83.5388 103.334 82.0411 103.287C78.0718 103.046 78.1383 97.6682 82.1385 97.5609C83.899 97.5741 85.1726 98.9969 85.1139 100.448Z" fill="white"/>
<path d="M55.4894 59.5463C57.0181 59.4713 58.4895 60.7751 58.4803 62.4007C58.471 63.9676 57.1108 65.2743 55.4678 65.2596C53.9515 65.2449 52.4754 64.2087 52.4537 62.4052C52.4321 60.609 54.0179 59.4581 55.4894 59.5463Z" fill="white"/>
<path d="M68.7854 78.5657C70.362 78.5084 71.7901 79.8489 71.7731 81.4349C71.6727 85.1007 65.8424 85.2933 65.7466 81.3864C65.7621 79.5079 67.4329 78.479 68.7854 78.5657Z" fill="white"/>
<path d="M102.085 103.279C100.417 103.279 99.0804 102.008 99.0835 100.425C99.2164 96.6503 104.98 96.6444 105.095 100.432C105.095 102.023 103.762 103.279 102.085 103.279Z" fill="white"/>
<path d="M78.3936 37.0412C78.4554 38.4008 77.222 39.8633 75.4244 39.8692C71.5602 39.8031 71.3191 34.3381 75.4028 34.197C77.4183 34.1896 78.4663 35.7771 78.3936 37.0412Z" fill="white"/>
<path d="M58.4424 49.7301C58.4532 51.2984 57.1394 52.5787 55.501 52.5949C51.5518 52.5302 51.4993 47.0285 55.4546 46.9109C57.1007 46.908 58.4331 48.1647 58.4424 49.7301Z" fill="white"/>
<path d="M78.3874 94.1045C78.3781 95.6743 77.0519 96.9105 75.3888 96.9017C71.4999 96.787 71.3948 91.3853 75.4352 91.2633C76.9406 91.2677 78.4554 92.4509 78.3874 94.1045Z" fill="white"/>
<path d="M62.1274 77.8863C60.506 77.8804 59.152 76.7266 59.1381 75.073C59.1072 71.5071 64.9205 71.0896 65.0518 75.0436C65.0627 76.9382 63.5448 77.879 62.1274 77.8863Z" fill="white"/>
<path d="M68.7316 84.9241C70.3607 84.9138 71.6993 86.1529 71.7147 87.6904C71.6668 91.3827 65.9587 91.5194 65.8103 87.7433C65.8103 86.1809 67.0963 84.9344 68.7316 84.9241Z" fill="white"/>
<path d="M82.0925 109.549C80.4664 109.544 79.1542 108.289 79.1573 106.743C79.3226 102.974 84.9179 103.052 85.0725 106.765C85.0632 108.283 83.7046 109.551 82.0925 109.549Z" fill="white"/>
<path d="M62.0615 46.1663C60.5715 46.1912 59.1495 44.9375 59.1789 43.325C59.2051 41.8713 60.4463 40.5499 62.1635 40.572C63.5855 40.5896 65.0354 41.6053 65.0184 43.4206C65.0014 45.2388 63.3908 46.2412 62.0615 46.1663Z" fill="white"/>
<path d="M119.197 68.1962C119.74 65.793 123.103 65.1433 124.528 67.2334C125.256 68.302 125.13 69.694 124.25 70.6288C123.532 71.3932 122.633 71.621 121.609 71.4887C120.245 71.3123 119.536 70.4716 119.188 69.2795C119.134 69.2104 119.146 69.131 119.145 69.0531C119.145 68.8694 119.145 68.6857 119.145 68.5005C119.156 68.3991 119.114 68.2873 119.197 68.1962Z" fill="white"/>
<path d="M48.7149 65.1632C47.2774 65.1735 45.8384 64.0358 45.8523 62.3572C46.0069 58.7561 51.5698 58.687 51.6795 62.4101C51.6656 64.1872 50.1168 65.2264 48.7149 65.1632Z" fill="white"/>
<path d="M59.2076 81.4094C59.1597 80.1057 60.2803 78.6505 62.1103 78.6387C65.976 78.7313 65.9096 84.1184 62.1103 84.1684C60.3962 84.161 59.1736 82.8411 59.2076 81.4094Z" fill="white"/>
<path d="M78.2957 100.45C78.3251 101.983 76.9247 103.169 75.4007 103.171C73.8272 103.171 72.518 101.918 72.518 100.423C72.518 98.9197 73.8164 97.6909 75.4023 97.6821C77.1535 97.6718 78.3746 99.1226 78.2957 100.45Z" fill="white"/>
<path d="M65.877 94.0969C65.8399 92.3463 67.4119 91.3556 68.7303 91.3527C72.4863 91.3865 72.715 96.6721 68.7597 96.8117C67.0857 96.8161 65.877 95.5785 65.877 94.0969Z" fill="white"/>
<path d="M88.7256 109.491C87.1259 109.444 85.8909 108.377 85.9156 106.719C85.9805 102.993 91.6036 103.216 91.6361 106.773C91.633 108.278 90.3053 109.498 88.7256 109.491Z" fill="white"/>
<path d="M75.4142 104.045C76.9336 103.969 78.2953 105.271 78.2814 106.767C78.2675 108.231 76.9614 109.473 75.4111 109.46C74.037 109.448 72.5702 108.512 72.5501 106.764C72.53 105.003 74.0865 103.969 75.4142 104.045Z" fill="white"/>
<path d="M51.6018 56.1175C51.6343 57.4419 50.4225 58.7662 48.7609 58.7589C45.0667 58.6824 44.9122 53.4291 48.8072 53.3395C50.6064 53.3586 51.7085 54.8211 51.6018 56.1175Z" fill="white"/>
<path d="M64.9206 87.7665C64.9948 89.4231 63.4259 90.4725 62.075 90.4358C58.2448 90.2535 58.418 85.0664 62.1538 85.0135C63.4599 85.0208 65.0241 86.06 64.9206 87.7665Z" fill="white"/>
<path d="M122.009 77.7387C120.332 77.7387 119.187 76.3893 119.229 74.993C119.274 73.5231 120.561 72.3296 122.156 72.3678C123.64 72.4031 124.938 73.5966 124.9 75.1091C124.861 76.6348 123.612 77.7769 122.009 77.7387Z" fill="white"/>
<path d="M58.2876 81.4366C58.2798 82.9109 57.0201 84.0882 55.4528 84.0838C51.6845 83.9457 51.7494 78.8246 55.5007 78.7379C57.0541 78.757 58.2938 79.9579 58.2876 81.4366Z" fill="white"/>
<path d="M55.4569 66.1005C57.0257 66.0696 58.2684 67.2764 58.2669 68.7566C58.2653 70.3646 56.8372 71.464 55.4708 71.4493C53.9421 71.4317 52.6639 70.2367 52.6592 68.7698C52.6546 67.3352 53.8726 66.0711 55.4569 66.1005Z" fill="white"/>
<path d="M64.8942 94.0805C64.8849 95.5518 63.6623 96.7071 62.1135 96.7056C58.3931 96.5822 58.4673 91.492 62.1243 91.4568C63.6252 91.4612 64.9003 92.5048 64.8942 94.0805Z" fill="white"/>
<path d="M55.4513 72.4146C56.9707 72.4102 58.2428 73.6214 58.2382 75.0663C58.0929 78.5337 52.8531 78.5587 52.6923 75.0825C52.6815 73.6346 53.9381 72.4191 55.4513 72.4146Z" fill="white"/>
<path d="M44.7979 68.7731C44.8814 69.9431 43.7701 71.3924 42.0544 71.3851C40.5644 71.3792 39.3232 70.1548 39.3294 68.7305C39.3356 67.3018 40.5906 66.1288 42.0992 66.1318C43.6062 66.1347 44.8783 67.3768 44.7979 68.7731Z" fill="white"/>
<path d="M55.5017 85.1371C56.851 85.096 58.2035 86.2219 58.1942 87.7314C58.1046 91.1709 52.7844 91.1915 52.7241 87.7035C52.7334 86.1058 54.1708 85.0636 55.5017 85.1371Z" fill="white"/>
<path d="M119.391 61.8168C119.782 60.347 121.176 59.6679 122.379 59.8002C125.554 60.2147 125.595 64.3788 122.617 64.9447C121.097 65.2357 119.705 64.3171 119.385 62.9016C119.25 62.54 119.287 62.1784 119.391 61.8168Z" fill="white"/>
<path d="M46.1146 68.7478C46.0543 67.3587 47.3991 66.174 48.7979 66.2123C50.2508 66.2519 51.4487 67.3632 51.4564 68.7463C51.4641 70.1236 50.2122 71.32 48.7716 71.3259C47.3558 71.3318 46.0435 70.1059 46.1146 68.7478Z" fill="white"/>
<path d="M52.8134 94.0638C52.7747 92.6057 53.9711 91.565 55.4487 91.562C58.9836 91.5665 59.0068 96.5008 55.475 96.6066C53.9401 96.6037 52.7515 95.4116 52.8134 94.0638Z" fill="white"/>
<path d="M51.3853 87.7659C51.3776 89.1049 50.2616 90.2191 48.7376 90.2132C47.2708 90.2073 46.1053 89.055 46.1331 87.6615C46.1594 86.3063 47.3728 85.2142 48.8226 85.2392C50.2879 85.2642 51.4069 86.368 51.3853 87.7659Z" fill="white"/>
<path d="M44.6974 62.4159C44.7515 63.5815 43.6803 64.897 42.0759 64.8941C38.6183 64.7618 38.5951 60.0494 42.0651 59.898C43.5319 59.8833 44.7036 61.0048 44.6974 62.4159Z" fill="white"/>
<path d="M68.7552 109.191C67.3209 109.191 66.1678 108.096 66.174 106.744C66.1802 105.391 67.3425 104.289 68.7614 104.292C70.1788 104.295 71.3458 105.405 71.3458 106.75C71.3458 108.1 70.1881 109.191 68.7552 109.191Z" fill="white"/>
<path d="M51.3119 94.0792C51.3073 95.4373 50.1913 96.4927 48.7647 96.4897C45.3874 96.4001 45.3889 91.72 48.7709 91.6833C50.1465 91.6833 51.3289 92.646 51.3119 94.0792Z" fill="white"/>
<path d="M48.7516 83.808C47.3203 83.8448 46.2105 82.6615 46.2322 81.3798C46.3774 78.2108 51.1922 78.2034 51.3112 81.4166C51.3158 82.663 50.2122 83.8624 48.7516 83.808Z" fill="white"/>
<path d="M68.7714 110.711C70.1362 110.711 71.2908 111.754 71.2785 113.111C71.1734 116.345 66.2752 116.239 66.2242 113.079C66.2242 111.775 67.388 110.703 68.7714 110.711Z" fill="white"/>
<path d="M55.4513 102.802C54.2642 102.828 52.9612 101.936 52.9457 100.412C53.0849 97.2943 57.864 97.2619 57.9676 100.432C57.9676 102.001 56.6059 102.839 55.4513 102.802Z" fill="white"/>
<path d="M46.3117 100.426C46.3164 99.1329 47.4076 98.104 48.7693 98.0996C52.0137 98.1775 52.0755 102.727 48.7492 102.766C47.1711 102.744 46.2932 101.573 46.3117 100.426Z" fill="white"/>
<path d="M102.094 39.3608C100.75 39.3622 99.6175 38.3069 99.6422 37.0281C99.8184 33.8076 104.469 34.0546 104.544 37.0237C104.545 38.3069 103.443 39.3593 102.094 39.3608Z" fill="white"/>
<path d="M71.185 100.447C71.1804 101.73 70.1201 102.788 68.7738 102.756C65.4104 102.64 65.6098 98.1525 68.7661 98.0996C70.1757 98.1011 71.2731 99.2608 71.185 100.447Z" fill="white"/>
<path d="M71.1733 37.0264C71.1717 38.2993 70.0929 39.3326 68.7621 39.337C67.4374 39.3415 66.34 38.3023 66.3307 37.0367C66.323 35.7462 67.4281 34.6908 68.776 34.704C70.1114 34.7173 71.1748 35.7476 71.1733 37.0264Z" fill="white"/>
<path d="M124.485 81.4573C124.51 82.6788 123.383 83.7371 122.04 83.715C118.823 83.546 118.879 79.1673 122.136 79.104C123.426 79.132 124.545 80.1594 124.485 81.4573Z" fill="white"/>
<path d="M44.4978 94.062C44.5025 95.3408 43.4437 96.3712 42.1005 96.3697C38.969 96.3858 38.7711 91.8366 42.0634 91.8146C43.5179 91.7955 44.4715 92.7715 44.4978 94.062Z" fill="white"/>
<path d="M59.714 113.07C59.6522 112.1 60.5734 110.812 62.1206 110.82C65.3495 110.88 65.3248 115.406 62.0881 115.4C60.6321 115.39 59.6692 114.28 59.714 113.07Z" fill="white"/>
<path d="M93.0059 106.747C92.9503 105.585 94.0229 104.446 95.4218 104.461C98.5038 104.564 98.6584 108.937 95.3739 109.021C93.8977 109.009 92.9564 107.865 93.0059 106.747Z" fill="white"/>
<path d="M33.0333 75.0593C32.9869 73.9804 33.9978 72.7986 35.4152 72.7869C38.4771 72.8633 38.7414 77.1656 35.4044 77.3361C33.9128 77.3361 32.973 76.0691 33.0333 75.0593Z" fill="white"/>
<path d="M75.4247 110.911C76.6736 110.849 77.7849 111.926 77.754 113.155C77.6102 116.046 73.1371 116.04 73.0583 113.121C73.0412 111.84 74.1665 110.849 75.4247 110.911Z" fill="white"/>
<path d="M44.4074 100.443C44.4027 101.667 43.3718 102.629 42.0688 102.623C38.9697 102.498 39.0068 98.3338 42.095 98.2368C43.3903 98.2471 44.412 99.2216 44.4074 100.443Z" fill="white"/>
<path d="M42.0601 85.5487C43.3229 85.5414 44.3786 86.5071 44.3848 87.7006C44.4033 90.5095 39.8977 90.7844 39.7849 87.7417C39.7803 86.2851 41.0245 85.5369 42.0601 85.5487Z" fill="white"/>
<path d="M62.1057 98.2772C63.3979 98.2742 64.3995 99.2164 64.3979 100.436C64.3222 103.291 59.9372 103.307 59.8336 100.457C59.8228 99.237 60.8197 98.2801 62.1057 98.2772Z" fill="white"/>
<path d="M35.4345 66.6046C36.7143 66.559 37.7283 67.6614 37.702 68.78C37.5304 71.6447 33.2938 71.6242 33.1531 68.7653C33.1423 67.6452 34.1269 66.559 35.4345 66.6046Z" fill="white"/>
<path d="M35.4139 98.3758C36.5206 98.3259 37.6103 99.2519 37.6026 100.45C37.5825 103.056 33.3335 103.291 33.2547 100.422C33.2608 99.0343 34.5113 98.3273 35.4139 98.3758Z" fill="white"/>
<path d="M117.551 94.0733C117.616 95.0376 116.679 96.1738 115.37 96.1517C114.169 96.1311 113.234 95.2478 113.216 94.0954C113.2 93.1606 113.88 92.0273 115.4 92.0434C116.642 92.0581 117.551 92.9121 117.551 94.0733Z" fill="white"/>
<path d="M124.209 56.0327C124.21 57.1527 123.221 58.092 122.051 58.0802C120.91 58.0699 119.927 57.1277 119.924 56.0415C119.921 54.9273 120.917 53.9925 122.093 54.0057C123.263 54.0175 124.207 54.9215 124.209 56.0327Z" fill="white"/>
<path d="M108.663 102.404C107.636 102.466 106.635 101.525 106.635 100.413C106.635 99.3529 107.613 98.4298 108.706 98.4401C109.868 98.4519 110.797 99.3529 110.782 100.454C110.765 101.575 109.858 102.412 108.663 102.404Z" fill="white"/>
<path d="M48.7641 77.0163C47.628 77.0134 46.7285 76.1403 46.7192 75.0541C46.7733 72.5097 50.7348 72.423 50.8276 75.0688C50.8322 76.1462 49.8955 77.0193 48.7641 77.0163Z" fill="white"/>
<path d="M37.4698 106.778C37.4574 107.677 36.7603 108.681 35.4202 108.677C32.672 108.622 32.7462 104.874 35.431 104.805C36.5594 104.806 37.4806 105.699 37.4698 106.778Z" fill="white"/>
<path d="M37.4651 94.079C37.4574 95.1255 36.5253 96.0148 35.431 96.0177C34.3104 96.0207 33.3722 95.1034 33.3985 94.0349C33.4263 92.9574 34.3305 92.1182 35.4526 92.1329C36.5702 92.1461 37.4728 93.0177 37.4651 94.079Z" fill="white"/>
<path d="M80.1118 113.094C80.0716 112.043 81.05 111.18 82.1474 111.202C83.2433 111.224 84.1259 112.08 84.1104 113.128C84.0981 114.02 83.4427 115.005 82.1103 115.019C80.8661 115.033 80.0701 114.064 80.1118 113.094Z" fill="white"/>
<path d="M42.0816 73.1739C43.0909 73.1049 44.0847 73.9765 44.0801 75.0495C44.0816 77.4851 40.1696 77.7188 40.0861 75.048C40.0846 73.8413 41.1727 73.1004 42.0816 73.1739Z" fill="white"/>
<path d="M40.1112 106.684C40.1375 105.489 41.2194 104.819 42.1607 104.854C44.742 105.03 44.6786 108.618 42.0325 108.614C40.8964 108.585 40.0695 107.754 40.1112 106.684Z" fill="white"/>
<path d="M48.7811 51.5436C47.8521 51.5994 46.8552 50.8498 46.8737 49.7195C46.8892 48.6788 47.6821 47.9218 48.7641 47.9174C50.0362 47.913 50.6776 48.9214 50.6745 49.7504C50.6714 50.7131 49.7796 51.595 48.7811 51.5436Z" fill="white"/>
<path d="M26.8481 106.741C26.8528 105.75 27.7137 104.943 28.7555 104.952C31.2208 105.064 31.2672 108.443 28.7369 108.54C27.6936 108.559 26.8435 107.734 26.8481 106.741Z" fill="white"/>
<path d="M55.4766 45.0966C54.4765 45.1039 53.6388 44.3102 53.645 43.3636C53.7578 41.1 57.2046 41.0809 57.2649 43.3856C57.2587 44.3396 56.4751 45.0907 55.4766 45.0966Z" fill="white"/>
<path d="M30.4672 100.421C30.475 101.333 29.7129 102.071 28.7515 102.08C27.7948 102.09 27.0158 101.363 27.0049 100.449C26.9941 99.5504 27.7793 98.7876 28.7222 98.7817C29.6666 98.7758 30.4595 99.521 30.4672 100.421Z" fill="white"/>
<path d="M48.7641 108.389C47.7702 108.433 47.0051 107.514 47.036 106.747C47.1581 104.551 50.4272 104.604 50.5153 106.756C50.5091 107.66 49.727 108.392 48.7641 108.389Z" fill="white"/>
<path d="M30.4672 75.0598C30.4672 75.9667 29.6944 76.7105 28.7438 76.7134C27.7948 76.7178 27.0142 75.9814 27.0049 75.0716C26.9956 74.1676 27.7762 73.4165 28.7299 73.4151C29.6805 73.4121 30.4672 74.1588 30.4672 75.0598Z" fill="white"/>
<path d="M43.7798 56.0243C43.8246 56.9386 43.0456 57.6603 42.0734 57.6853C41.1553 57.7088 40.3778 56.9474 40.3654 56.064C40.3531 55.1439 41.1182 54.4104 42.0827 54.4134C43.0982 54.4148 43.8246 55.238 43.7798 56.0243Z" fill="white"/>
<path d="M82.0983 29.168C83.0071 29.1665 83.7398 29.8515 83.7428 30.7055C83.7459 31.5536 83.0102 32.2576 82.1153 32.265C81.2188 32.2723 80.4784 31.5785 80.4676 30.7231C80.4568 29.872 81.1941 29.1694 82.0983 29.168Z" fill="white"/>
<path d="M62.1045 108.291C61.2543 108.293 60.5001 107.693 60.4815 106.732C60.466 105.878 61.2373 105.187 62.1338 105.194C63.0349 105.203 63.7552 105.901 63.7506 106.76C63.7444 107.629 63.0241 108.299 62.1045 108.291Z" fill="white"/>
<path d="M28.6542 82.9423C27.7608 82.8997 27.0776 82.1971 27.1193 81.3652C27.1626 80.5053 27.9354 79.8233 28.8149 79.8718C29.6712 79.9188 30.3915 80.6655 30.3559 81.4695C30.3173 82.3294 29.5584 82.9864 28.6542 82.9423Z" fill="white"/>
<path d="M90.34 30.7329C90.3323 31.5633 89.6012 32.2483 88.7279 32.238C86.6196 32.1248 86.6258 29.263 88.7619 29.1998C89.646 29.2086 90.3477 29.8892 90.34 30.7329Z" fill="white"/>
<path d="M123.579 87.7252C123.579 88.5146 122.916 89.1569 122.087 89.1672C121.254 89.1789 120.546 88.5013 120.559 87.7061C120.573 86.9256 121.261 86.2848 122.08 86.2906C122.902 86.2965 123.579 86.9433 123.579 87.7252Z" fill="white"/>
<path d="M55.4779 111.705C56.3311 111.711 56.9618 112.315 56.9587 113.128C56.9556 113.901 56.26 114.558 55.4501 114.551C54.6495 114.543 53.9462 113.861 53.9586 113.101C53.9709 112.3 54.6232 111.701 55.4779 111.705Z" fill="white"/>
<path d="M55.4746 120.839C54.6585 120.843 54.0016 120.235 53.9892 119.463C53.9753 118.68 54.6678 118.012 55.4808 118.029C56.283 118.043 56.943 118.684 56.9414 119.446C56.9414 120.208 56.2814 120.835 55.4746 120.839Z" fill="white"/>
<path d="M62.1325 120.837C61.301 120.842 60.6641 120.245 60.6564 119.454C60.6502 118.668 61.2886 118.039 62.1063 118.028C62.8853 118.018 63.5947 118.682 63.604 119.429C63.6133 120.186 62.9378 120.833 62.1325 120.837Z" fill="white"/>
<path d="M113.928 43.3479C113.936 42.5674 114.6 41.9442 115.407 41.9618C116.211 41.981 116.869 42.6292 116.857 43.3906C116.845 44.1593 116.175 44.7737 115.361 44.7634C114.535 44.7531 113.922 44.1461 113.928 43.3479Z" fill="white"/>
<path d="M40.6564 81.3892C40.6007 80.7909 41.2267 80.0251 42.1077 80.0487C42.8929 80.0692 43.539 80.6998 43.522 81.4406C43.505 82.18 42.8265 82.8091 42.0552 82.787C41.1989 82.762 40.593 82.0403 40.6564 81.3892Z" fill="white"/>
<path d="M103.476 106.741C103.482 107.474 102.848 108.086 102.082 108.083C100.264 108.006 100.227 105.513 102.065 105.43C102.853 105.422 103.47 105.994 103.476 106.741Z" fill="white"/>
<path d="M22.0435 111.785C22.8287 111.776 23.45 112.356 23.4562 113.1C23.4608 113.798 22.8302 114.417 22.0976 114.432C21.3603 114.448 20.7096 113.856 20.6895 113.15C20.6678 112.392 21.2614 111.792 22.0435 111.785Z" fill="white"/>
<path d="M20.706 106.751C20.706 106.022 21.3088 105.434 22.06 105.429C22.7973 105.425 23.4357 106.02 23.4496 106.726C23.4635 107.44 22.7973 108.11 22.0616 108.078C21.2594 108.043 20.7184 107.477 20.706 106.751Z" fill="white"/>
<path d="M90.1127 113.098C90.1251 113.782 89.5176 114.381 88.7881 114.403C88.04 114.427 87.3769 113.837 87.3676 113.139C87.3568 112.42 87.9689 111.819 88.7185 111.81C89.4728 111.8 90.0988 112.378 90.1127 113.098Z" fill="white"/>
<path d="M30.0996 113.135C30.0918 113.82 29.472 114.405 28.7409 114.403C27.8583 114.403 27.3514 113.681 27.3575 113.104C27.3653 112.388 27.9974 111.804 28.7486 111.81C29.5029 111.816 30.1073 112.409 30.0996 113.135Z" fill="white"/>
<path d="M35.4266 61.1089C36.1871 61.1104 36.7899 61.6968 36.776 62.4215C36.6801 64.1206 34.0927 64.0766 34.0726 62.3671C34.0865 61.6645 34.6862 61.1074 35.4266 61.1089Z" fill="white"/>
<path d="M62.1412 35.7451C62.8707 35.7569 63.4751 36.358 63.4535 37.0503C63.4318 37.7471 62.7996 38.31 62.067 38.288C61.3591 38.2659 60.7764 37.6839 60.7825 37.0048C60.7887 36.3051 61.4055 35.7348 62.1412 35.7451Z" fill="white"/>
<path d="M55.4582 108.006C54.7889 108.066 54.1212 107.451 54.1413 106.733C54.1583 106.145 54.5895 105.524 55.4505 105.473C56.1383 105.43 56.84 106.09 56.8153 106.75C56.7921 107.397 56.2681 108.048 55.4582 108.006Z" fill="white"/>
<path d="M34.2648 81.403C34.2215 80.8003 34.7733 80.305 35.4441 80.2932C36.0794 80.2815 36.6219 80.8356 36.6096 81.4368C36.5957 82.0468 36.05 82.548 35.4101 82.5406C34.7563 82.5333 34.2602 82.0394 34.2648 81.403Z" fill="white"/>
<path d="M108.676 35.9066C109.336 35.8993 109.893 36.3843 109.877 37.0031C109.785 38.5641 107.531 38.4539 107.563 37.0075C107.591 36.3652 108.009 35.9037 108.676 35.9066Z" fill="white"/>
<path d="M68.7599 120.535C68.1431 120.549 67.5867 120.086 67.5944 119.419C67.6207 118.07 69.8016 117.929 69.9145 119.413C69.9593 120.025 69.4168 120.533 68.7599 120.535Z" fill="white"/>
<path d="M36.5649 87.7288C36.6174 88.2579 36.1182 88.8223 35.4396 88.8238C33.894 88.7841 33.9048 86.6631 35.4396 86.6322C36.0842 86.6381 36.5649 87.107 36.5649 87.7288Z" fill="white"/>
<path d="M36.5613 113.119C36.5582 113.723 36.0481 114.186 35.399 114.173C33.8564 114.087 33.9429 112.046 35.4438 112.015C36.079 112.025 36.5628 112.504 36.5613 113.119Z" fill="white"/>
<path d="M76.4295 30.7359C76.4171 31.2739 75.972 31.6914 75.4109 31.6899C74.8467 31.6884 74.3583 31.2166 74.3722 30.6904C74.3877 30.1583 74.89 29.7173 75.4573 29.7394C76.0168 29.7614 76.4419 30.198 76.4295 30.7359Z" fill="white"/>
<path d="M16.4451 113.133C16.4421 113.617 15.9629 114.05 15.4343 114.049C14.1406 113.989 14.1127 112.232 15.4266 112.192C16.0062 112.188 16.4482 112.597 16.4451 113.133Z" fill="white"/>
<path d="M29.6393 94.074C29.6393 94.5547 29.2266 94.9559 28.732 94.9559C28.2498 94.9559 27.8155 94.537 27.8155 94.074C27.8155 93.6066 28.2436 93.198 28.732 93.198C29.239 93.198 29.6393 93.5845 29.6393 94.074Z" fill="white"/>
<path d="M122.069 48.8799C122.57 48.8799 122.986 49.2591 122.998 49.7295C123.01 50.2072 122.562 50.632 122.055 50.6231C121.562 50.6143 121.153 50.2116 121.159 49.7397C121.165 49.2606 121.567 48.8799 122.069 48.8799Z" fill="white"/>
<path d="M95.3819 29.8598C95.9012 29.8554 96.3077 30.2229 96.3155 30.7035C96.3232 31.1621 95.8935 31.5781 95.4051 31.5855C94.929 31.5928 94.4746 31.1739 94.4684 30.7241C94.4622 30.2611 94.8795 29.8628 95.3819 29.8598Z" fill="white"/>
<path d="M29.5781 68.7569C29.5765 69.2052 29.2086 69.5579 28.7403 69.5609C28.2627 69.5638 27.8577 69.1728 27.8747 68.7245C27.8917 68.313 28.3276 67.9117 28.748 67.9235C29.1886 67.9352 29.5796 68.3291 29.5781 68.7569Z" fill="white"/>
<path d="M22.8226 81.4323C22.8118 81.8189 22.464 82.1555 22.0745 82.1584C21.6742 82.1614 21.2955 81.7807 21.314 81.3912C21.331 81.0149 21.6943 80.6606 22.0683 80.6592C22.4671 80.6562 22.835 81.0311 22.8226 81.4323Z" fill="white"/>
<path d="M16.1521 119.437C16.149 119.794 15.7904 120.125 15.4194 120.115C15.0577 120.104 14.6914 119.735 14.7131 119.403C14.812 118.54 16.1134 118.561 16.1521 119.437Z" fill="white"/>
<path d="M49.4748 119.432C49.4748 119.798 49.1332 120.125 48.7607 120.117C48.3805 120.108 48.059 119.777 48.0714 119.41C48.1239 118.538 49.4486 118.563 49.4748 119.432Z" fill="white"/>
<path d="M22.0504 99.7762C22.4105 99.7673 22.7351 100.063 22.749 100.413C22.7644 100.777 22.429 101.118 22.0581 101.112C21.1971 101.068 21.1678 99.8232 22.0504 99.7762Z" fill="white"/>
<path d="M42.7404 113.118C42.745 113.44 42.4266 113.722 42.0696 113.718C41.7372 113.714 41.4235 113.44 41.4126 113.146C41.3987 112.802 41.7295 112.479 42.0912 112.486C42.4405 112.494 42.7357 112.78 42.7404 113.118Z" fill="white"/>
<path d="M22.0525 118.874C22.3121 118.862 22.6058 119.135 22.6228 119.406C22.6414 119.683 22.3972 119.955 22.1081 119.98C21.8114 120.007 21.5069 119.729 21.5069 119.435C21.5069 119.175 21.7897 118.885 22.0525 118.874Z" fill="white"/>
<path d="M115.938 100.436C115.938 101.156 114.808 101.143 114.821 100.429C114.849 99.7027 115.921 99.7086 115.938 100.436Z" fill="white"/>
<path d="M75.9308 119.426C75.9447 120.082 74.9123 120.104 74.8937 119.451C74.8798 118.792 75.9092 118.773 75.9308 119.426Z" fill="white"/>
<path d="M15.4586 106.31C16.0908 106.341 16.0197 107.205 15.4185 107.206C14.8156 107.139 14.8203 106.314 15.4586 106.31Z" fill="white"/>
<path d="M28.7543 87.3248C29.2474 87.3866 29.2783 88.1333 28.711 88.1053C28.4745 88.0965 28.2937 87.8995 28.3246 87.6835C28.3493 87.5086 28.5843 87.3131 28.7543 87.3248Z" fill="white"/>
<path d="M95.391 113.482C94.8207 113.504 94.8902 112.737 95.4003 112.747C95.9057 112.747 95.966 113.52 95.391 113.482Z" fill="white"/>
<path d="M48.7959 42.9887C48.9937 42.999 49.1916 43.1871 49.1946 43.3679C49.1977 43.5546 48.9504 43.7765 48.751 43.7648C48.2425 43.7339 48.2549 42.9549 48.7959 42.9887Z" fill="white"/>
<path d="M9.1431 119.407C9.1601 119.932 8.3919 119.961 8.33008 119.459C8.33472 118.965 9.07509 118.871 9.1431 119.407Z" fill="white"/>
<path d="M42.0692 49.354C42.301 49.3481 42.505 49.5363 42.4989 49.7479C42.4942 49.9228 42.2871 50.1213 42.1001 50.1301C41.5761 50.1374 41.5328 49.3775 42.0692 49.354Z" fill="white"/>
<path d="M22.4376 87.7101C22.4639 88.2127 21.7127 88.2363 21.6895 87.7439C21.6818 87.5601 21.8688 87.3426 22.0481 87.3308C22.229 87.3176 22.4284 87.5131 22.4376 87.7101Z" fill="white"/>
<path d="M48.7924 113.457C48.627 113.464 48.3998 113.277 48.4215 113.129C48.4462 112.958 48.5528 112.833 48.746 112.811C49.1912 112.786 49.2252 113.41 48.7924 113.457Z" fill="white"/>
<path d="M8.74927 113.459C8.31803 113.43 8.28557 112.839 8.73845 112.811C9.17742 112.808 9.18979 113.415 8.74927 113.459Z" fill="white"/>
<path d="M69.0018 30.6911C69.0127 30.9955 68.5387 31.0295 68.5029 30.7354C68.475 30.5729 68.6117 30.499 68.7531 30.4886C68.879 30.4798 68.9723 30.5625 69.0018 30.6911Z" fill="white"/>
<path d="M122.309 94.0721C122.3 94.3559 121.82 94.3485 121.851 94.0618C121.855 93.7677 122.298 93.7898 122.309 94.0721Z" fill="white"/>
<path d="M35.462 55.8227C35.751 55.8582 35.6888 56.3178 35.3951 56.2528C35.0874 56.2188 35.1667 55.7961 35.462 55.8227Z" fill="white"/>
<path d="M108.683 106.529C108.966 106.538 109.005 106.955 108.715 106.969C108.384 106.999 108.36 106.573 108.683 106.529Z" fill="white"/>
<path d="M28.7449 119.223C29.0402 119.219 28.9998 119.698 28.7092 119.648C28.5662 119.631 28.4994 119.55 28.5025 119.416C28.5072 119.265 28.6175 119.232 28.7449 119.223Z" fill="white"/>
<path d="M22.0467 74.8399C22.3342 74.8192 22.373 75.2536 22.0824 75.2655C21.8307 75.2965 21.8058 74.8709 22.0467 74.8399Z" fill="white"/>
<path d="M119.198 68.1874C119.19 68.2756 119.182 68.3638 119.176 68.4535C119.165 68.4785 119.156 68.502 119.145 68.527C119.135 68.502 119.125 68.4785 119.114 68.4535C119.11 68.3624 119.101 68.2721 119.095 68.181C119.127 68.1913 119.164 68.1933 119.198 68.1874Z" fill="white"/>
<path d="M119.186 69.0817C119.186 69.146 119.186 69.2104 119.184 69.2733C119.157 69.2747 119.128 69.2746 119.101 69.2761C119.098 69.2103 119.097 69.146 119.094 69.0802C119.124 69.0316 119.156 69.0359 119.186 69.0817Z" fill="white"/>
<path d="M119.186 69.0817L119.142 69.071L119.094 69.0802C119.1 68.873 119.105 68.6668 119.111 68.4595C119.131 68.4625 119.153 68.4625 119.173 68.4595C119.179 68.6668 119.18 68.8744 119.186 69.0817Z" fill="white"/>
<path d="M78.7807 44.3836C78.7205 44.415 78.6603 44.4465 78.6002 44.4765C78.5716 44.365 78.5852 44.262 78.7235 44.2491C78.7867 44.2434 78.8047 44.3206 78.7807 44.3836Z" fill="white"/>
</svg>
