<svg width="80" height="80" viewBox="0 0 80 80" fill="none" xmlns="http://www.w3.org/2000/svg">
<g id="Add song square">
<path id="Vector" d="M53.1397 71.471H26.1397C15.473 71.471 8.33301 63.9977 8.33301 52.8777V27.4377C8.33301 16.3177 15.4864 8.84766 26.1397 8.84766H43.8063C44.4693 8.84766 45.1053 9.11106 45.574 9.57989C46.043 10.0487 46.3063 10.6846 46.3063 11.3477C46.3063 12.0107 46.043 12.6466 45.574 13.1154C45.1053 13.5843 44.4693 13.8477 43.8063 13.8477H26.1397C18.3597 13.8477 13.333 19.181 13.333 27.4377V52.8777C13.333 61.1343 18.3597 66.471 26.1397 66.471H53.1397C60.923 66.471 65.953 61.1377 65.953 52.8777V36.781C65.953 36.118 66.2163 35.482 66.6853 35.0133C67.154 34.5443 67.79 34.281 68.453 34.281C69.116 34.281 69.752 34.5443 70.2207 35.0133C70.6897 35.482 70.953 36.118 70.953 36.781V52.8777C70.953 63.9977 63.7963 71.471 53.1397 71.471Z" fill="white"/>
<path id="Vector_2" d="M35.4787 56.0035C34.1463 56.0045 32.8295 55.7228 31.6143 55.1771C30.3991 54.6318 29.3135 53.8345 28.4292 52.8381C27.5449 51.8421 26.8819 50.6698 26.4842 49.3985C26.0865 48.1271 25.963 46.7861 26.1219 45.4635C26.4203 42.9845 27.6911 40.7258 29.655 39.1838C31.6188 37.6421 34.1147 36.9435 36.5937 37.2418C39.0723 37.5401 41.3313 38.8111 42.873 40.7748C44.415 42.7388 45.1137 45.2345 44.8153 47.7135C44.5387 49.9965 43.4367 52.0998 41.717 53.6268C39.9973 55.1535 37.7783 55.9988 35.4787 56.0035ZM35.4787 42.1768C34.4007 42.1795 33.3607 42.5761 32.5546 43.2918C31.7486 44.0075 31.232 44.9935 31.1019 46.0635C30.9627 47.2245 31.2899 48.3935 32.0117 49.3135C32.7336 50.2331 33.791 50.8291 34.952 50.9701C35.535 51.0565 36.1297 51.0248 36.7003 50.8775C37.2713 50.7301 37.8067 50.4701 38.2753 50.1125C38.744 49.7548 39.1363 49.3068 39.4287 48.7951C39.7213 48.2831 39.9087 47.7181 39.979 47.1328C40.0497 46.5475 40.0023 45.9541 39.8397 45.3875C39.6773 44.8208 39.4027 44.2925 39.0327 43.8335C38.6627 43.3745 38.2043 42.9945 37.685 42.7158C37.1657 42.4368 36.5953 42.2651 36.0087 42.2101C35.8287 42.1835 35.647 42.1688 35.4653 42.1668L35.4787 42.1768Z" fill="white"/>
<path id="Vector_3" d="M63.0474 29.1021C62.3844 29.1021 61.7484 28.8388 61.2797 28.3699C60.8107 27.9011 60.5474 27.2652 60.5474 26.6021V21.3121H55.2607C54.5977 21.3121 53.9617 21.0488 53.4931 20.5799C53.0241 20.1111 52.7607 19.4752 52.7607 18.8121C52.7607 18.1491 53.0241 17.5132 53.4931 17.0444C53.9617 16.5755 54.5977 16.3121 55.2607 16.3121H60.5474V11.0288C60.5474 10.3658 60.8107 9.72991 61.2797 9.26108C61.7484 8.79221 62.3844 8.52881 63.0474 8.52881C63.7104 8.52881 64.3464 8.79221 64.8154 9.26108C65.2841 9.72991 65.5474 10.3658 65.5474 11.0288V16.3121H70.8341C71.4971 16.3121 72.1331 16.5755 72.6021 17.0444C73.0707 17.5132 73.3341 18.1491 73.3341 18.8121C73.3341 19.4752 73.0707 20.1111 72.6021 20.5799C72.1331 21.0488 71.4971 21.3121 70.8341 21.3121H65.5474V26.6021C65.5474 27.2652 65.2841 27.9011 64.8154 28.3699C64.3464 28.8388 63.7104 29.1021 63.0474 29.1021Z" fill="white"/>
<path id="Vector_4" d="M42.3327 49.9158C42.2327 49.9158 42.1327 49.9158 42.0293 49.9158C41.371 49.8358 40.7717 49.4978 40.363 48.9758C39.954 48.4538 39.7693 47.7908 39.8493 47.1325L42.3327 26.5327C42.402 25.9526 42.6723 25.4152 43.0967 25.0136C43.521 24.6121 44.0727 24.3719 44.6557 24.3347C45.2387 24.2974 45.8163 24.4656 46.2883 24.8098C46.7603 25.1541 47.0967 25.6528 47.2393 26.2193C47.549 27.2624 48.0933 28.2207 48.8307 29.0209C49.5677 29.8211 50.4783 30.442 51.4927 30.836C51.8043 30.9395 52.0927 31.1034 52.341 31.3183C52.5893 31.5332 52.7927 31.795 52.94 32.0886C53.087 32.3821 53.175 32.7019 53.1987 33.0294C53.2223 33.3568 53.1813 33.6858 53.0777 33.9975C52.974 34.3092 52.8103 34.5975 52.5953 34.8458C52.3803 35.0942 52.1187 35.2978 51.825 35.4448C51.5317 35.5922 51.212 35.6802 50.8843 35.7038C50.5567 35.7272 50.2277 35.6862 49.916 35.5825C48.67 35.1702 47.509 34.5355 46.4893 33.7092L44.7993 47.7092C44.7283 48.3148 44.4387 48.8735 43.984 49.2802C43.5297 49.6865 42.9423 49.9128 42.3327 49.9158Z" fill="white"/>
</g>
</svg>
