<svg width="32" height="32" viewBox="0 0 32 32" fill="none" xmlns="http://www.w3.org/2000/svg">
<g id="Document paper 3 lines">
<path id="Vector" fill-rule="evenodd" clip-rule="evenodd" d="M20.4127 16.8173H11.5847C11.0327 16.8173 10.5847 16.3693 10.5847 15.8173C10.5847 15.2653 11.0327 14.8173 11.5847 14.8173H20.4127C20.9647 14.8173 21.4127 15.2653 21.4127 15.8173C21.4127 16.3693 20.9647 16.8173 20.4127 16.8173ZM20.4127 22.2253H11.5847C11.0327 22.2253 10.5847 21.7773 10.5847 21.2253C10.5847 20.6733 11.0327 20.2253 11.5847 20.2253H20.4127C20.9647 20.2253 21.4127 20.6733 21.4127 21.2253C21.4127 21.7773 20.9647 22.2253 20.4127 22.2253ZM11.586 9.42125H14.954C15.506 9.42125 15.954 9.86925 15.954 10.4213C15.954 10.9733 15.506 11.4213 14.954 11.4213H11.586C11.034 11.4213 10.586 10.9733 10.586 10.4213C10.586 9.86925 11.034 9.42125 11.586 9.42125ZM21.382 3.33325H10.6167C7.22067 3.33325 4.45801 6.09592 4.45801 9.49325V22.5066C4.45801 25.9026 7.22067 28.6666 10.6167 28.6666H21.382C24.778 28.6666 27.542 25.9026 27.542 22.5066V9.49325C27.542 6.09592 24.778 3.33325 21.382 3.33325Z" fill="#595DD2"/>
</g>
</svg>
