<svg width="225" height="38" viewBox="0 0 225 38" fill="none" xmlns="http://www.w3.org/2000/svg">
<path d="M0.0012207 9.24324C0.0012207 4.13834 4.21685 0 9.41709 0H29.3063C34.5065 0 38.7222 4.13834 38.7222 9.24324V28.7568C38.7222 33.8617 34.5065 38 29.3063 38H9.41709C4.21685 38 0.0012207 33.8617 0.0012207 28.7568V9.24324Z" fill="#4489F7"/>
<path fill-rule="evenodd" clip-rule="evenodd" d="M19.5302 6.36413C12.3904 6.36413 6.55826 11.9773 6.50374 18.9015C6.49493 20.0206 6.63757 21.1055 6.91309 22.1379C7.95479 20.1105 10.4477 16.2687 13.9028 13.7477C13.9875 13.6859 14.0752 13.6317 14.1658 13.5848C14.2855 13.4946 14.4084 13.4073 14.5346 13.3228C18.1242 10.9203 22.9643 11.7982 25.3451 15.2838C27.726 18.7694 26.746 23.5426 23.1563 25.9452C22.8659 26.1396 22.5673 26.3125 22.2624 26.4643C21.0933 27.3266 17.9256 28.9057 12.7384 29.6794C14.6633 30.797 16.9182 31.4389 19.3328 31.4389C26.4725 31.4389 32.3047 25.8258 32.3592 18.9015C32.4137 11.9773 26.67 6.36413 19.5302 6.36413Z" fill="white"/>
<path fill-rule="evenodd" clip-rule="evenodd" d="M14.9575 15.8096C15.0407 15.7468 15.1263 15.686 15.2141 15.6272C17.7121 13.9553 21.0883 14.5778 22.7548 17.0177C24.4214 19.4576 23.7474 22.7909 21.2493 24.4629C21.0472 24.5982 20.8393 24.7184 20.6271 24.8239C19.7662 25.4592 17.3462 26.6513 13.3463 27.1394L16.7193 24.0102L7.4128 27.4248L14.406 19.681L9.7437 22.129C10.3267 20.8589 12.149 17.8395 14.7744 15.9229C14.8333 15.8799 14.8944 15.8422 14.9575 15.8096Z" fill="white"/>
<path d="M57.1458 31.6709C53.688 31.6709 51.0001 30.7618 49.0821 28.9434C47.1911 27.125 46.2456 24.5579 46.2456 21.2421C46.2456 18.9958 46.6913 17.017 47.5828 15.3056C48.4743 13.5675 49.7304 12.2304 51.3513 11.2945C52.9721 10.3318 54.8496 9.8505 56.9838 9.8505C57.9833 9.8505 59.0233 9.97083 60.1039 10.2115C61.2115 10.4254 62.0624 10.6795 62.6567 10.9736L61.5627 15.7468C60.9413 15.4527 60.2525 15.2254 59.4961 15.0649C58.7667 14.8778 58.0778 14.7842 57.4295 14.7842C55.7546 14.7842 54.4039 15.3457 53.3774 16.4688C52.3778 17.5919 51.8781 19.0761 51.8781 20.9212C51.8781 22.793 52.3913 24.237 53.4179 25.2532C54.4714 26.2693 55.9572 26.7774 57.8752 26.7774C59.1449 26.7774 60.5091 26.5367 61.9679 26.0554L62.8188 30.6281C61.0629 31.3233 59.1719 31.6709 57.1458 31.6709Z" fill="#022F5E"/>
<path d="M76.3362 31.6709C74.2291 31.6709 72.3651 31.2163 70.7442 30.3072C69.1504 29.398 67.9077 28.1278 67.0163 26.4966C66.1248 24.8387 65.6791 22.9267 65.6791 20.7607C65.6791 18.5947 66.1113 16.6961 66.9757 15.0649C67.8672 13.407 69.1099 12.1235 70.7037 11.2143C72.3246 10.3051 74.1885 9.8505 76.2957 9.8505C78.4028 9.8505 80.2532 10.3051 81.8471 11.2143C83.4679 12.0967 84.7106 13.3535 85.575 14.9847C86.4665 16.6159 86.9122 18.5011 86.9122 20.6404C86.9122 22.8064 86.4665 24.7317 85.575 26.4164C84.7106 28.0743 83.4679 29.3712 81.8471 30.3072C80.2532 31.2163 78.4163 31.6709 76.3362 31.6709ZM76.2957 26.7774C77.7544 26.7774 78.916 26.2292 79.7805 25.1328C80.672 24.0097 81.1177 22.539 81.1177 20.7206C81.1177 18.9022 80.672 17.4582 79.7805 16.3886C78.916 15.2922 77.7544 14.7441 76.2957 14.7441C74.8369 14.7441 73.6618 15.2922 72.7703 16.3886C71.9058 17.4582 71.4736 18.9022 71.4736 20.7206C71.4736 22.539 71.9058 24.0097 72.7703 25.1328C73.6618 26.2292 74.8369 26.7774 76.2957 26.7774Z" fill="#022F5E"/>
<path d="M91.1474 10.4121H96.7393V13.6209C98.3872 11.1073 100.616 9.8505 103.425 9.8505C105.019 9.8505 106.37 10.2249 107.477 10.9736C108.612 11.6956 109.436 12.7385 109.949 14.1023C110.895 12.6315 111.948 11.5619 113.11 10.8934C114.299 10.1981 115.649 9.8505 117.162 9.8505C119.404 9.8505 121.147 10.519 122.389 11.8561C123.659 13.1663 124.294 14.9981 124.294 17.3513V31.0693H118.58V18.2337C118.58 17.1641 118.31 16.3351 117.77 15.7468C117.257 15.1318 116.554 14.8243 115.663 14.8243C114.555 14.8243 113.529 15.2789 112.583 16.1881C111.638 17.0972 110.935 18.2605 110.476 19.6777V31.0693H104.763V18.2337C104.763 17.1908 104.492 16.3619 103.952 15.7468C103.412 15.1318 102.696 14.8243 101.804 14.8243C100.805 14.8243 99.8594 15.1986 98.968 15.9474C98.1035 16.6694 97.4011 17.6989 96.8609 19.0359V31.0693H91.1474V10.4121Z" fill="#022F5E"/>
<path d="M129.374 10.4121H134.965V13.6209C136.613 11.1073 138.842 9.8505 141.651 9.8505C143.245 9.8505 144.596 10.2249 145.704 10.9736C146.838 11.6956 147.662 12.7385 148.175 14.1023C149.121 12.6315 150.174 11.5619 151.336 10.8934C152.525 10.1981 153.875 9.8505 155.388 9.8505C157.63 9.8505 159.373 10.519 160.615 11.8561C161.885 13.1663 162.52 14.9981 162.52 17.3513V31.0693H156.806V18.2337C156.806 17.1641 156.536 16.3351 155.996 15.7468C155.483 15.1318 154.78 14.8243 153.889 14.8243C152.781 14.8243 151.755 15.2789 150.809 16.1881C149.864 17.0972 149.161 18.2605 148.702 19.6777V31.0693H142.989V18.2337C142.989 17.1908 142.719 16.3619 142.178 15.7468C141.638 15.1318 140.922 14.8243 140.031 14.8243C139.031 14.8243 138.086 15.1986 137.194 15.9474C136.33 16.6694 135.627 17.6989 135.087 19.0359V31.0693H129.374V10.4121Z" fill="#022F5E"/>
<path d="M177.644 31.6709C174.267 31.6709 171.607 30.7083 169.662 28.7829C167.744 26.8576 166.785 24.1835 166.785 20.7607C166.785 18.5412 167.203 16.6159 168.041 14.9847C168.878 13.3268 170.053 12.0566 171.566 11.1742C173.106 10.2917 174.902 9.8505 176.955 9.8505C179.981 9.8505 182.304 10.8132 183.925 12.7385C185.546 14.6638 186.356 17.4449 186.356 21.0816C186.356 21.6966 186.343 22.1512 186.316 22.4454H172.539C172.809 23.8626 173.43 24.9456 174.403 25.6944C175.375 26.4164 176.685 26.7774 178.333 26.7774C179.333 26.7774 180.373 26.6571 181.453 26.4164C182.534 26.149 183.479 25.8013 184.29 25.3735L185.222 29.9061C184.141 30.4676 182.939 30.8955 181.615 31.1896C180.319 31.5105 178.995 31.6709 177.644 31.6709ZM180.886 18.1936C180.805 17.0438 180.4 16.1346 179.67 15.4661C178.941 14.7708 177.968 14.4232 176.753 14.4232C175.591 14.4232 174.632 14.7574 173.876 15.4259C173.146 16.0945 172.687 17.017 172.498 18.1936H180.886Z" fill="#022F5E"/>
<path d="M198.289 31.6709C196.344 31.6709 194.831 31.1896 193.751 30.2269C192.697 29.2375 192.17 27.847 192.17 26.0554V15.2655H188.928V10.4121H192.17V5.99983C194.088 5.67894 195.979 5.43828 197.843 5.27783V10.4121H203.111V15.2655H197.843V25.0125C197.843 25.5741 198.005 26.0019 198.329 26.2961C198.681 26.5902 199.167 26.7373 199.788 26.7373C200.545 26.7373 201.409 26.5635 202.382 26.2158L203.638 30.4676C201.909 31.2698 200.126 31.6709 198.289 31.6709Z" fill="#022F5E"/>
<path d="M212.734 31.6709C210.573 31.6709 208.858 30.7618 207.588 28.9434C206.318 27.125 205.683 24.6515 205.683 21.5228C205.683 17.7256 206.656 14.8376 208.601 12.8588C210.546 10.8533 213.342 9.8505 216.989 9.8505C219.042 9.8505 221.446 10.1714 224.202 10.8132V31.0693H218.772L218.893 27.7802H218.731C218.029 29.037 217.164 29.9996 216.138 30.6682C215.138 31.3367 214.004 31.6709 212.734 31.6709ZM213.95 26.7373C214.787 26.7373 215.611 26.2961 216.422 25.4136C217.232 24.5312 217.988 23.3546 218.691 21.8838V15.1452C217.826 14.9045 216.962 14.7842 216.097 14.7842C214.477 14.7842 213.247 15.3323 212.41 16.4287C211.6 17.5251 211.194 19.1429 211.194 21.2822C211.194 22.9668 211.437 24.3039 211.924 25.2933C212.41 26.2559 213.085 26.7373 213.95 26.7373Z" fill="#022F5E"/>
</svg>
