<svg width="85" height="16" viewBox="0 0 85 16" fill="none" xmlns="http://www.w3.org/2000/svg">
<rect width="16" height="16" rx="4" fill="#022F5E"/>
<path fill-rule="evenodd" clip-rule="evenodd" d="M5.53694 11.6658C7.59547 11.4 8.84353 10.7769 9.29001 10.4443C9.40085 10.3885 9.50943 10.325 9.61503 10.2536C10.9203 9.37106 11.2766 7.6177 10.4109 6.33735C9.54521 5.05701 7.78532 4.73451 6.48008 5.61704C6.4342 5.64805 6.3895 5.68014 6.34599 5.71325C6.31305 5.7305 6.28115 5.75041 6.25037 5.7731C4.95992 6.72429 4.03861 8.1874 3.67913 8.91427C3.27236 7.10274 3.99663 5.13292 5.64856 4.01599C7.79354 2.56567 10.6903 3.10254 12.1187 5.21512C13.5471 7.32769 12.9662 10.216 10.8212 11.6663C9.16753 12.7844 7.06697 12.7214 5.53694 11.6658Z" fill="white"/>
<path fill-rule="evenodd" clip-rule="evenodd" d="M6.63299 6.53065C6.66327 6.50759 6.69437 6.48526 6.72629 6.46367C7.63462 5.84952 8.86221 6.07819 9.4682 6.97444C10.0742 7.87068 9.82909 9.0951 8.92076 9.70926C8.84727 9.75894 8.77169 9.80312 8.69452 9.84186C8.38149 10.0752 7.50157 10.5131 6.04715 10.6924L7.27361 9.54296L3.88968 10.7972L6.43247 7.95274L4.73722 8.85197C4.9492 8.38541 5.61181 7.27629 6.56644 6.57228C6.58786 6.55649 6.61006 6.54263 6.63299 6.53065Z" fill="white"/>
<path d="M24.9186 12.9657C23.3755 12.9657 22.17 12.5513 21.302 11.7224C20.434 10.8936 20 9.72268 20 8.20961C20 7.17842 20.2025 6.26768 20.6076 5.47742C21.0223 4.68715 21.6058 4.08 22.3581 3.65596C23.1103 3.22227 23.9783 3.00543 24.962 3.00543C25.7625 3.00543 26.5341 3.14999 27.2767 3.43911L26.8861 5.30395C26.2303 5.00519 25.5938 4.85581 24.9765 4.85581C24.0989 4.85581 23.4045 5.14493 22.8933 5.72317C22.3822 6.29178 22.1266 7.05313 22.1266 8.00723C22.1266 8.9806 22.3966 9.73714 22.9367 10.2768C23.4768 10.8165 24.2242 11.0864 25.179 11.0864C25.8059 11.0864 26.4135 10.9852 27.0018 10.7828L27.3201 12.5609C26.6161 12.8307 25.8156 12.9657 24.9186 12.9657Z" fill="#022F5E"/>
<path d="M32.2103 12.9946C31.458 12.9946 30.7925 12.8307 30.2139 12.5031C29.6448 12.1754 29.2012 11.7176 28.8829 11.1297C28.5647 10.5322 28.4055 9.84315 28.4055 9.06252C28.4055 8.28189 28.5599 7.59764 28.8685 7.00976C29.1867 6.41224 29.6304 5.94965 30.1994 5.62198C30.7781 5.29431 31.4435 5.13047 32.1958 5.13047C32.9481 5.13047 33.6087 5.29431 34.1777 5.62198C34.7564 5.94001 35.2 6.39297 35.5086 6.98085C35.8269 7.56873 35.986 8.24816 35.986 9.01915C35.986 9.79978 35.8269 10.4937 35.5086 11.1008C35.2 11.6983 34.7564 12.1658 34.1777 12.5031C33.6087 12.8307 32.9529 12.9946 32.2103 12.9946ZM32.1958 11.2309C32.7166 11.2309 33.1313 11.0334 33.4399 10.6382C33.7582 10.2335 33.9173 9.70341 33.9173 9.04807C33.9173 8.39272 33.7582 7.87231 33.4399 7.48681C33.1313 7.09168 32.7166 6.89411 32.1958 6.89411C31.675 6.89411 31.2555 7.09168 30.9372 7.48681C30.6286 7.87231 30.4743 8.39272 30.4743 9.04807C30.4743 9.70341 30.6286 10.2335 30.9372 10.6382C31.2555 11.0334 31.675 11.2309 32.1958 11.2309Z" fill="#022F5E"/>
<path d="M37.498 5.33286H39.4944V6.48934C40.0827 5.58343 40.8784 5.13047 41.8814 5.13047C42.4504 5.13047 42.9326 5.2654 43.3281 5.53524C43.7331 5.79545 44.0273 6.17131 44.2105 6.66282C44.5481 6.13276 44.9242 5.74727 45.3389 5.50633C45.7633 5.25576 46.2455 5.13047 46.7856 5.13047C47.5861 5.13047 48.2081 5.37141 48.6518 5.85328C49.1051 6.32551 49.3317 6.98567 49.3317 7.83376V12.7777H47.2919V8.15179C47.2919 7.76629 47.1955 7.46754 47.0026 7.25551C46.8193 7.03385 46.5686 6.92302 46.2503 6.92302C45.8549 6.92302 45.4884 7.08686 45.1509 7.41453C44.8133 7.7422 44.5625 8.16143 44.3986 8.67221V12.7777H42.3588V8.15179C42.3588 7.77593 42.2624 7.47717 42.0695 7.25551C41.8766 7.03385 41.621 6.92302 41.3027 6.92302C40.9459 6.92302 40.6083 7.05795 40.2901 7.32779C39.9815 7.588 39.7307 7.95904 39.5378 8.44091V12.7777H37.498V5.33286Z" fill="#022F5E"/>
<path d="M51.1452 5.33286H53.1416V6.48934C53.7299 5.58343 54.5256 5.13047 55.5286 5.13047C56.0976 5.13047 56.5798 5.2654 56.9753 5.53524C57.3803 5.79545 57.6745 6.17131 57.8577 6.66282C58.1953 6.13276 58.5714 5.74727 58.9861 5.50633C59.4105 5.25576 59.8927 5.13047 60.4328 5.13047C61.2333 5.13047 61.8553 5.37141 62.299 5.85328C62.7523 6.32551 62.9789 6.98567 62.9789 7.83376V12.7777H60.9391V8.15179C60.9391 7.76629 60.8427 7.46754 60.6498 7.25551C60.4665 7.03385 60.2158 6.92302 59.8975 6.92302C59.5021 6.92302 59.1356 7.08686 58.7981 7.41453C58.4605 7.7422 58.2097 8.16143 58.0458 8.67221V12.7777H56.006V8.15179C56.006 7.77593 55.9096 7.47717 55.7167 7.25551C55.5238 7.03385 55.2682 6.92302 54.9499 6.92302C54.5931 6.92302 54.2555 7.05795 53.9373 7.32779C53.6287 7.588 53.3779 7.95904 53.185 8.44091V12.7777H51.1452V5.33286Z" fill="#022F5E"/>
<path d="M68.3784 12.9946C67.1729 12.9946 66.2229 12.6476 65.5285 11.9537C64.8438 11.2598 64.5014 10.2961 64.5014 9.06252C64.5014 8.26262 64.6509 7.56873 64.9499 6.98085C65.2488 6.38333 65.6684 5.92556 66.2085 5.60752C66.7582 5.28949 67.3995 5.13047 68.1325 5.13047C69.2127 5.13047 70.0421 5.47742 70.6208 6.17131C71.1994 6.8652 71.4888 7.86749 71.4888 9.17817C71.4888 9.39983 71.4839 9.56367 71.4743 9.66968H66.5557C66.6521 10.1805 66.8739 10.5708 67.2211 10.8406C67.5683 11.1008 68.0361 11.2309 68.6244 11.2309C68.9812 11.2309 69.3525 11.1876 69.7383 11.1008C70.1241 11.0045 70.4616 10.8792 70.751 10.725L71.0837 12.3585C70.6979 12.5609 70.2687 12.7151 69.7962 12.8211C69.3332 12.9367 68.8607 12.9946 68.3784 12.9946ZM69.5358 8.13733C69.5068 7.72293 69.3622 7.39526 69.1018 7.15432C68.8414 6.90375 68.4942 6.77846 68.0602 6.77846C67.6455 6.77846 67.3031 6.89893 67.0331 7.13987C66.7727 7.3808 66.6087 7.71329 66.5412 8.13733H69.5358Z" fill="#022F5E"/>
<path d="M75.7488 12.9946C75.0544 12.9946 74.5144 12.8211 74.1286 12.4742C73.7524 12.1176 73.5644 11.6164 73.5644 10.9707V7.08204H72.4071V5.33286H73.5644V3.74269C74.2491 3.62704 74.9242 3.54031 75.5897 3.48248V5.33286H77.4704V7.08204H75.5897V10.5949C75.5897 10.7972 75.6476 10.9514 75.7633 11.0575C75.8887 11.1635 76.0623 11.2165 76.2841 11.2165C76.5541 11.2165 76.8628 11.1538 77.21 11.0285L77.6584 12.5609C77.0412 12.85 76.4047 12.9946 75.7488 12.9946Z" fill="#022F5E"/>
<path d="M80.906 12.9946C80.1344 12.9946 79.522 12.6669 79.0687 12.0116C78.6154 11.3562 78.3888 10.4648 78.3888 9.33719C78.3888 7.96868 78.736 6.92784 79.4304 6.21468C80.1248 5.49187 81.123 5.13047 82.4249 5.13047C83.1579 5.13047 84.0163 5.24612 85 5.47742V12.7777H83.0615L83.1049 11.5923H83.047C82.7963 12.0453 82.4876 12.3922 82.1212 12.6332C81.7643 12.8741 81.3592 12.9946 80.906 12.9946ZM81.34 11.2165C81.6389 11.2165 81.9331 11.0575 82.2224 10.7394C82.5117 10.4214 82.7818 9.99735 83.0326 9.46729V7.03867C82.7239 6.95194 82.4153 6.90857 82.1067 6.90857C81.528 6.90857 81.0892 7.10614 80.7902 7.50127C80.5009 7.8964 80.3562 8.47946 80.3562 9.25045C80.3562 9.8576 80.443 10.3395 80.6166 10.6961C80.7902 11.043 81.0313 11.2165 81.34 11.2165Z" fill="#022F5E"/>
</svg>
