<svg width="24" height="24" viewBox="0 0 24 24" fill="none" xmlns="http://www.w3.org/2000/svg">
<g id="Sticker copy">
<path id="Vector" fill-rule="evenodd" clip-rule="evenodd" d="M17.3299 20.2509C19.1299 20.2509 20.2499 19.0609 20.2499 17.1509V11.0609C20.2499 9.17094 19.1099 7.96094 17.3299 7.96094H13.13V10.0609C13.13 11.8309 11.69 13.2809 9.90996 13.2909H7.95996V17.1509C7.95996 19.0609 9.06996 20.2509 10.87 20.2509H17.3299ZM6.45996 16.0409L6.47996 17.5409C6.63996 20.0409 8.39996 21.7509 10.87 21.7509H17.3299C19.9299 21.7509 21.7499 19.8609 21.7499 17.1509V11.0609C21.7499 8.42094 20.0199 6.56094 17.53 6.47094L16.03 6.46094H12.49C11.78 6.46094 11.1 6.75094 10.61 7.26094L7.17996 10.8309C6.70996 11.3209 6.45996 11.9609 6.45996 12.6309V16.0409Z" fill="#595DD2"/>
<path id="Vector_2" d="M3.75 9.08V12.94C3.75 14.78 4.78 15.95 6.46 16.04L6.48 17.54C3.94 17.46 2.25 15.63 2.25 12.94V8.43C2.25 7.78 2.51 7.12 2.97 6.63L6.4 3.06C6.91 2.54 7.59 2.25 8.28 2.25H13.13C15.61 2.25 17.37 3.97 17.53 6.47L16.03 6.46C15.88 4.8 14.78 3.75 13.13 3.75H8.93V5.86C8.93 7.63 7.49 9.08 5.71 9.08H3.75Z" fill="#595DD2"/>
</g>
</svg>
