<svg width="212" height="44" viewBox="0 0 212 44" fill="none" xmlns="http://www.w3.org/2000/svg">
<g id="Group">
<g id="Clip path group">
<mask id="mask0_84_5485" style="mask-type:luminance" maskUnits="userSpaceOnUse" x="83" y="0" width="46" height="44">
<g id="MicrophoneAudioWaves_svg__a">
<path id="Vector" d="M83.8789 0H128.122V44H83.8789V0Z" fill="white"/>
</g>
</mask>
<g mask="url(#mask0_84_5485)">
<g id="Group_2">
<path id="Vector_2" d="M106 25.6665C109.051 25.6665 111.512 23.2007 111.512 20.1665L111.53 9.1665C111.53 6.12317 109.06 3.6665 106 3.6665C102.949 3.6665 100.47 6.12317 100.47 9.1665V20.1665C100.47 23.2007 102.949 25.6665 106 25.6665ZM103.788 8.98317C103.788 7.77317 104.783 6.78317 106 6.78317C107.217 6.78317 108.212 7.77317 108.212 8.98317L108.194 20.3498C108.194 21.5598 107.208 22.5498 106 22.5498C104.783 22.5498 103.788 21.5598 103.788 20.3498V8.98317ZM115.77 20.1665C115.77 25.6665 111.097 29.5165 106 29.5165C100.912 29.5165 96.2296 25.6665 96.2296 20.1665H93.0957C93.0957 26.4273 98.11 31.5973 104.157 32.4865V38.4998H107.844V32.4865C113.89 31.5973 118.904 26.4273 118.904 20.1665H115.77Z" fill="#595DD2"/>
</g>
</g>
</g>
<path id="Vector_3" fill-rule="evenodd" clip-rule="evenodd" d="M74.0046 8.70785C74.0046 8.58629 74.0531 8.46971 74.1396 8.38375C74.226 8.2978 74.3432 8.24951 74.4655 8.24951H75.3936C75.5159 8.24951 75.6331 8.2978 75.7195 8.38375C75.806 8.46971 75.8545 8.58629 75.8545 8.70785V34.7769C75.8545 34.8985 75.806 35.0151 75.7195 35.101C75.6331 35.187 75.5159 35.2353 75.3936 35.2353H74.4655C74.3432 35.2353 74.226 35.187 74.1396 35.101C74.0531 35.0151 74.0046 34.8985 74.0046 34.7769V8.70785ZM15.2622 10.7025C15.1399 10.7025 15.0227 10.7508 14.9363 10.8368C14.8498 10.9227 14.8013 11.0393 14.8013 11.1608V32.3239C14.8013 32.4455 14.8498 32.5621 14.9363 32.648C15.0227 32.734 15.1399 32.7823 15.2622 32.7823H16.1903C16.3126 32.7823 16.4298 32.734 16.5162 32.648C16.6027 32.5621 16.6512 32.4455 16.6512 32.3239V11.1608C16.6512 11.0393 16.6027 10.9227 16.5162 10.8368C16.4298 10.7508 16.3126 10.7025 16.1903 10.7025H15.2622ZM10.3281 14.9962C10.2059 14.9962 10.0886 15.0445 10.0022 15.1304C9.91577 15.2164 9.86722 15.333 9.86722 15.4545V28.0312C9.86722 28.1527 9.91577 28.2693 10.0022 28.3553C10.0886 28.4412 10.2059 28.4895 10.3281 28.4895H11.2563C11.3785 28.4895 11.4957 28.4412 11.5822 28.3553C11.6686 28.2693 11.7171 28.1527 11.7171 28.0312V15.4545C11.7171 15.333 11.6686 15.2164 11.5822 15.1304C11.4957 15.0445 11.3785 14.9962 11.2563 14.9962H10.3281ZM19.7344 15.4545C19.7344 15.333 19.783 15.2164 19.8694 15.1304C19.9558 15.0445 20.0731 14.9962 20.1953 14.9962H21.1235C21.2457 14.9962 21.3629 15.0445 21.4494 15.1304C21.5358 15.2164 21.5844 15.333 21.5844 15.4545V28.0312C21.5844 28.1527 21.5358 28.2693 21.4494 28.3553C21.3629 28.4412 21.2457 28.4895 21.1235 28.4895H20.1953C20.0731 28.4895 19.9558 28.4412 19.8694 28.3553C19.783 28.2693 19.7344 28.1527 19.7344 28.0312V15.4545ZM25.1294 16.8359C25.0071 16.8359 24.8899 16.8842 24.8035 16.9702C24.7171 17.0561 24.6685 17.1727 24.6685 17.2943V26.1905C24.6685 26.3121 24.7171 26.4286 24.8035 26.5146C24.8899 26.6006 25.0071 26.6488 25.1294 26.6488H26.0576C26.1798 26.6488 26.297 26.6006 26.3834 26.5146C26.4699 26.4286 26.5184 26.3121 26.5184 26.1905V17.2943C26.5184 17.1727 26.4699 17.0561 26.3834 16.9702C26.297 16.8842 26.1798 16.8359 26.0576 16.8359H25.1294ZM4.93407 17.2943C4.93407 17.1727 4.98263 17.0561 5.06905 16.9702C5.15548 16.8842 5.27271 16.8359 5.39494 16.8359H6.32313C6.44536 16.8359 6.56258 16.8842 6.64901 16.9702C6.73544 17.0561 6.784 17.1727 6.784 17.2943V26.1905C6.784 26.3121 6.73544 26.4286 6.64901 26.5146C6.56258 26.6006 6.44536 26.6488 6.32313 26.6488H5.39494C5.27271 26.6488 5.15548 26.6006 5.06905 26.5146C4.98263 26.4286 4.93407 26.3121 4.93407 26.1905V17.2943ZM30.0625 12.5432C29.9403 12.5432 29.8231 12.5915 29.7366 12.6774C29.6502 12.7634 29.6017 12.88 29.6017 13.0015V30.4842C29.6017 30.6057 29.6502 30.7223 29.7366 30.8083C29.8231 30.8942 29.9403 30.9425 30.0625 30.9425H30.9907C31.1129 30.9425 31.2302 30.8942 31.3166 30.8083C31.403 30.7223 31.4516 30.6057 31.4516 30.4842V13.0006C31.4516 12.879 31.403 12.7625 31.3166 12.6765C31.2302 12.5906 31.1129 12.5423 30.9907 12.5423H30.0625V12.5432ZM34.5357 14.8403C34.5357 14.7188 34.5843 14.6022 34.6707 14.5163C34.7571 14.4303 34.8744 14.382 34.9966 14.382H35.9248C36.047 14.382 36.1642 14.4303 36.2507 14.5163C36.3371 14.6022 36.3857 14.7188 36.3857 14.8403V28.6435C36.3857 28.7651 36.3371 28.8816 36.2507 28.9676C36.1642 29.0536 36.047 29.1018 35.9248 29.1018H34.9966C34.8744 29.1018 34.7571 29.0536 34.6707 28.9676C34.5843 28.8816 34.5357 28.7651 34.5357 28.6435V14.8403ZM39.9297 17.4492C39.8075 17.4492 39.6903 17.4975 39.6039 17.5834C39.5174 17.6694 39.4689 17.786 39.4689 17.9075V25.5773C39.4689 25.6988 39.5174 25.8154 39.6039 25.9014C39.6903 25.9873 39.8075 26.0356 39.9297 26.0356H40.8579C40.9802 26.0356 41.0974 25.9873 41.1838 25.9014C41.2702 25.8154 41.3188 25.6988 41.3188 25.5773V17.9075C41.3188 17.786 41.2702 17.6694 41.1838 17.5834C41.0974 17.4975 40.9802 17.4492 40.8579 17.4492H39.9297ZM44.4029 20.3605C44.4029 20.239 44.4515 20.1224 44.5379 20.0364C44.6244 19.9505 44.7416 19.9022 44.8638 19.9022H45.792C45.9142 19.9022 46.0315 19.9505 46.1179 20.0364C46.2043 20.1224 46.2529 20.239 46.2529 20.3605V23.1243C46.2529 23.2458 46.2043 23.3624 46.1179 23.4484C46.0315 23.5343 45.9142 23.5826 45.792 23.5826H44.8638C44.7416 23.5826 44.6244 23.5343 44.5379 23.4484C44.4515 23.3624 44.4029 23.2458 44.4029 23.1243V20.3605ZM49.797 19.2889C49.6747 19.2889 49.5575 19.3372 49.4711 19.4232C49.3846 19.5091 49.3361 19.6257 49.3361 19.7473V23.7366C49.3361 23.8582 49.3846 23.9747 49.4711 24.0607C49.5575 24.1466 49.6747 24.1949 49.797 24.1949H50.7251C50.8474 24.1949 50.9646 24.1466 51.051 24.0607C51.1375 23.9747 51.186 23.8582 51.186 23.7366V19.7473C51.186 19.6257 51.1375 19.5091 51.051 19.4232C50.9646 19.3372 50.8474 19.2889 50.7251 19.2889H49.797ZM83.8718 19.7473C83.8718 19.6257 83.9204 19.5091 84.0068 19.4232C84.0932 19.3372 84.2104 19.2889 84.3327 19.2889H85.2609C85.3831 19.2889 85.5003 19.3372 85.5868 19.4232C85.6732 19.5091 85.7217 19.6257 85.7217 19.7473V23.7366C85.7217 23.8582 85.6732 23.9747 85.5868 24.0607C85.5003 24.1466 85.3831 24.1949 85.2609 24.1949H84.3327C84.2104 24.1949 84.0932 24.1466 84.0068 24.0607C83.9204 23.9747 83.8718 23.8582 83.8718 23.7366V19.7473ZM0.46087 19.2889C0.338639 19.2889 0.221415 19.3372 0.134986 19.4232C0.0485557 19.5091 0 19.6257 0 19.7473V23.7366C0 23.8582 0.0485557 23.9747 0.134986 24.0607C0.221415 24.1466 0.338639 24.1949 0.46087 24.1949H1.38906C1.51129 24.1949 1.62852 24.1466 1.71494 24.0607C1.80137 23.9747 1.84993 23.8582 1.84993 23.7366V19.7473C1.84993 19.6257 1.80137 19.5091 1.71494 19.4232C1.62852 19.3372 1.51129 19.2889 1.38906 19.2889H0.46087ZM54.2702 17.9075C54.2702 17.786 54.3187 17.6694 54.4051 17.5834C54.4916 17.4975 54.6088 17.4492 54.731 17.4492H55.6592C55.7814 17.4492 55.8987 17.4975 55.9851 17.5834C56.0715 17.6694 56.1201 17.786 56.1201 17.9075V25.5773C56.1201 25.6988 56.0715 25.8154 55.9851 25.9014C55.8987 25.9873 55.7814 26.0356 55.6592 26.0356H54.731C54.6088 26.0356 54.4916 25.9873 54.4051 25.9014C54.3187 25.8154 54.2702 25.6988 54.2702 25.5773V17.9075ZM59.6642 14.9962C59.5419 14.9962 59.4247 15.0445 59.3383 15.1304C59.2519 15.2164 59.2033 15.333 59.2033 15.4545V28.0312C59.2033 28.1527 59.2519 28.2693 59.3383 28.3553C59.4247 28.4412 59.5419 28.4895 59.6642 28.4895H60.5924C60.7146 28.4895 60.8318 28.4412 60.9182 28.3553C61.0047 28.2693 61.0532 28.1527 61.0532 28.0312V15.4545C61.0532 15.333 61.0047 15.2164 60.9182 15.1304C60.8318 15.0445 60.7146 14.9962 60.5924 14.9962H59.6642ZM78.9377 15.4545C78.9377 15.333 78.9863 15.2164 79.0727 15.1304C79.1591 15.0445 79.2764 14.9962 79.3986 14.9962H80.3268C80.449 14.9962 80.5663 15.0445 80.6527 15.1304C80.7391 15.2164 80.7877 15.333 80.7877 15.4545V28.0312C80.7877 28.1527 80.7391 28.2693 80.6527 28.3553C80.5663 28.4412 80.449 28.4895 80.3268 28.4895H79.3986C79.2764 28.4895 79.1591 28.4412 79.0727 28.3553C78.9863 28.2693 78.9377 28.1527 78.9377 28.0312V15.4545ZM69.5314 12.5432C69.4092 12.5432 69.2919 12.5915 69.2055 12.6774C69.1191 12.7634 69.0705 12.88 69.0705 13.0015V30.4842C69.0705 30.6057 69.1191 30.7223 69.2055 30.8083C69.2919 30.8942 69.4092 30.9425 69.5314 30.9425H70.4596C70.5818 30.9425 70.699 30.8942 70.7855 30.8083C70.8719 30.7223 70.9204 30.6057 70.9204 30.4842V13.0006C70.9204 12.879 70.8719 12.7625 70.7855 12.6765C70.699 12.5906 70.5818 12.5423 70.4596 12.5423H69.5314V12.5432ZM64.5982 10.0893C64.476 10.0893 64.3588 10.1376 64.2724 10.2235C64.1859 10.3095 64.1374 10.426 64.1374 10.5476V32.9372C64.1374 33.0587 64.1859 33.1753 64.2724 33.2613C64.3588 33.3472 64.476 33.3955 64.5982 33.3955H65.5264C65.6487 33.3955 65.7659 33.3472 65.8523 33.2613C65.9387 33.1753 65.9873 33.0587 65.9873 32.9372V10.5476C65.9873 10.426 65.9387 10.3095 65.8523 10.2235C65.7659 10.1376 65.6487 10.0893 65.5264 10.0893H64.5982ZM200.283 8.70785C200.283 8.58629 200.331 8.46971 200.418 8.38375C200.504 8.2978 200.621 8.24951 200.744 8.24951H201.672C201.794 8.24951 201.911 8.2978 201.998 8.38375C202.084 8.46971 202.133 8.58629 202.133 8.70785V34.7769C202.133 34.8985 202.084 35.0151 201.998 35.101C201.911 35.187 201.794 35.2353 201.672 35.2353H200.744C200.621 35.2353 200.504 35.187 200.418 35.101C200.331 35.0151 200.283 34.8985 200.283 34.7769V8.70785ZM141.54 10.7025C141.418 10.7025 141.301 10.7508 141.215 10.8368C141.128 10.9227 141.08 11.0393 141.08 11.1608V32.3239C141.08 32.4455 141.128 32.5621 141.215 32.648C141.301 32.734 141.418 32.7823 141.54 32.7823H142.469C142.591 32.7823 142.708 32.734 142.794 32.648C142.881 32.5621 142.929 32.4455 142.929 32.3239V11.1608C142.929 11.0393 142.881 10.9227 142.794 10.8368C142.708 10.7508 142.591 10.7025 142.469 10.7025H141.54ZM136.606 14.9962C136.484 14.9962 136.367 15.0445 136.28 15.1304C136.194 15.2164 136.145 15.333 136.145 15.4545V28.0312C136.145 28.1527 136.194 28.2693 136.28 28.3553C136.367 28.4412 136.484 28.4895 136.606 28.4895H137.535C137.657 28.4895 137.774 28.4412 137.86 28.3553C137.947 28.2693 137.995 28.1527 137.995 28.0312V15.4545C137.995 15.333 137.947 15.2164 137.86 15.1304C137.774 15.0445 137.657 14.9962 137.535 14.9962H136.606ZM146.013 15.4545C146.013 15.333 146.061 15.2164 146.148 15.1304C146.234 15.0445 146.351 14.9962 146.474 14.9962H147.402C147.524 14.9962 147.641 15.0445 147.728 15.1304C147.814 15.2164 147.863 15.333 147.863 15.4545V28.0312C147.863 28.1527 147.814 28.2693 147.728 28.3553C147.641 28.4412 147.524 28.4895 147.402 28.4895H146.474C146.351 28.4895 146.234 28.4412 146.148 28.3553C146.061 28.2693 146.013 28.1527 146.013 28.0312V15.4545ZM151.408 16.8359C151.285 16.8359 151.168 16.8842 151.082 16.9702C150.995 17.0561 150.947 17.1727 150.947 17.2943V26.1905C150.947 26.3121 150.995 26.4286 151.082 26.5146C151.168 26.6006 151.285 26.6488 151.408 26.6488H152.336C152.458 26.6488 152.575 26.6006 152.662 26.5146C152.748 26.4286 152.797 26.3121 152.797 26.1905V17.2943C152.797 17.1727 152.748 17.0561 152.662 16.9702C152.575 16.8842 152.458 16.8359 152.336 16.8359H151.408ZM131.212 17.2943C131.212 17.1727 131.261 17.0561 131.347 16.9702C131.434 16.8842 131.551 16.8359 131.673 16.8359H132.601C132.724 16.8359 132.841 16.8842 132.927 16.9702C133.014 17.0561 133.062 17.1727 133.062 17.2943V26.1905C133.062 26.3121 133.014 26.4286 132.927 26.5146C132.841 26.6006 132.724 26.6488 132.601 26.6488H131.673C131.551 26.6488 131.434 26.6006 131.347 26.5146C131.261 26.4286 131.212 26.3121 131.212 26.1905V17.2943ZM156.341 12.5432C156.219 12.5432 156.101 12.5915 156.015 12.6774C155.928 12.7634 155.88 12.88 155.88 13.0015V30.4842C155.88 30.6057 155.928 30.7223 156.015 30.8083C156.101 30.8942 156.219 30.9425 156.341 30.9425H157.269C157.391 30.9425 157.508 30.8942 157.595 30.8083C157.681 30.7223 157.73 30.6057 157.73 30.4842V13.0006C157.73 12.879 157.681 12.7625 157.595 12.6765C157.508 12.5906 157.391 12.5423 157.269 12.5423H156.341V12.5432ZM160.814 14.8403C160.814 14.7188 160.863 14.6022 160.949 14.5163C161.035 14.4303 161.153 14.382 161.275 14.382H162.203C162.325 14.382 162.442 14.4303 162.529 14.5163C162.615 14.6022 162.664 14.7188 162.664 14.8403V28.6435C162.664 28.7651 162.615 28.8816 162.529 28.9676C162.442 29.0536 162.325 29.1018 162.203 29.1018H161.275C161.153 29.1018 161.035 29.0536 160.949 28.9676C160.863 28.8816 160.814 28.7651 160.814 28.6435V14.8403ZM166.208 17.4492C166.086 17.4492 165.969 17.4975 165.882 17.5834C165.796 17.6694 165.747 17.786 165.747 17.9075V25.5773C165.747 25.6988 165.796 25.8154 165.882 25.9014C165.969 25.9873 166.086 26.0356 166.208 26.0356H167.136C167.258 26.0356 167.376 25.9873 167.462 25.9014C167.549 25.8154 167.597 25.6988 167.597 25.5773V17.9075C167.597 17.786 167.549 17.6694 167.462 17.5834C167.376 17.4975 167.258 17.4492 167.136 17.4492H166.208ZM170.681 20.3605C170.681 20.239 170.73 20.1224 170.816 20.0364C170.903 19.9505 171.02 19.9022 171.142 19.9022H172.07C172.192 19.9022 172.31 19.9505 172.396 20.0364C172.483 20.1224 172.531 20.239 172.531 20.3605V23.1243C172.531 23.2458 172.483 23.3624 172.396 23.4484C172.31 23.5343 172.192 23.5826 172.07 23.5826H171.142C171.02 23.5826 170.903 23.5343 170.816 23.4484C170.73 23.3624 170.681 23.2458 170.681 23.1243V20.3605ZM176.075 19.2889C175.953 19.2889 175.836 19.3372 175.749 19.4232C175.663 19.5091 175.614 19.6257 175.614 19.7473V23.7366C175.614 23.8582 175.663 23.9747 175.749 24.0607C175.836 24.1466 175.953 24.1949 176.075 24.1949H177.003C177.126 24.1949 177.243 24.1466 177.329 24.0607C177.416 23.9747 177.464 23.8582 177.464 23.7366V19.7473C177.464 19.6257 177.416 19.5091 177.329 19.4232C177.243 19.3372 177.126 19.2889 177.003 19.2889H176.075ZM210.15 19.7473C210.15 19.6257 210.199 19.5091 210.285 19.4232C210.371 19.3372 210.489 19.2889 210.611 19.2889H211.539C211.661 19.2889 211.779 19.3372 211.865 19.4232C211.951 19.5091 212 19.6257 212 19.7473V23.7366C212 23.8582 211.951 23.9747 211.865 24.0607C211.779 24.1466 211.661 24.1949 211.539 24.1949H210.611C210.489 24.1949 210.371 24.1466 210.285 24.0607C210.199 23.9747 210.15 23.8582 210.15 23.7366V19.7473ZM126.739 19.2889C126.617 19.2889 126.5 19.3372 126.413 19.4232C126.327 19.5091 126.278 19.6257 126.278 19.7473V23.7366C126.278 23.8582 126.327 23.9747 126.413 24.0607C126.5 24.1466 126.617 24.1949 126.739 24.1949H127.667C127.79 24.1949 127.907 24.1466 127.993 24.0607C128.08 23.9747 128.128 23.8582 128.128 23.7366V19.7473C128.128 19.6257 128.08 19.5091 127.993 19.4232C127.907 19.3372 127.79 19.2889 127.667 19.2889H126.739ZM180.548 17.9075C180.548 17.786 180.597 17.6694 180.683 17.5834C180.77 17.4975 180.887 17.4492 181.009 17.4492H181.937C182.06 17.4492 182.177 17.4975 182.263 17.5834C182.35 17.6694 182.398 17.786 182.398 17.9075V25.5773C182.398 25.6988 182.35 25.8154 182.263 25.9014C182.177 25.9873 182.06 26.0356 181.937 26.0356H181.009C180.887 26.0356 180.77 25.9873 180.683 25.9014C180.597 25.8154 180.548 25.6988 180.548 25.5773V17.9075ZM185.942 14.9962C185.82 14.9962 185.703 15.0445 185.617 15.1304C185.53 15.2164 185.482 15.333 185.482 15.4545V28.0312C185.482 28.1527 185.53 28.2693 185.617 28.3553C185.703 28.4412 185.82 28.4895 185.942 28.4895H186.871C186.993 28.4895 187.11 28.4412 187.197 28.3553C187.283 28.2693 187.331 28.1527 187.331 28.0312V15.4545C187.331 15.333 187.283 15.2164 187.197 15.1304C187.11 15.0445 186.993 14.9962 186.871 14.9962H185.942ZM205.216 15.4545C205.216 15.333 205.265 15.2164 205.351 15.1304C205.437 15.0445 205.555 14.9962 205.677 14.9962H206.605C206.727 14.9962 206.844 15.0445 206.931 15.1304C207.017 15.2164 207.066 15.333 207.066 15.4545V28.0312C207.066 28.1527 207.017 28.2693 206.931 28.3553C206.844 28.4412 206.727 28.4895 206.605 28.4895H205.677C205.555 28.4895 205.437 28.4412 205.351 28.3553C205.265 28.2693 205.216 28.1527 205.216 28.0312V15.4545ZM195.81 12.5432C195.687 12.5432 195.57 12.5915 195.484 12.6774C195.397 12.7634 195.349 12.88 195.349 13.0015V30.4842C195.349 30.6057 195.397 30.7223 195.484 30.8083C195.57 30.8942 195.687 30.9425 195.81 30.9425H196.738C196.86 30.9425 196.977 30.8942 197.064 30.8083C197.15 30.7223 197.199 30.6057 197.199 30.4842V13.0006C197.199 12.879 197.15 12.7625 197.064 12.6765C196.977 12.5906 196.86 12.5423 196.738 12.5423H195.81V12.5432ZM190.876 10.0893C190.754 10.0893 190.637 10.1376 190.551 10.2235C190.464 10.3095 190.416 10.426 190.416 10.5476V32.9372C190.416 33.0587 190.464 33.1753 190.551 33.2613C190.637 33.3472 190.754 33.3955 190.876 33.3955H191.805C191.927 33.3955 192.044 33.3472 192.131 33.2613C192.217 33.1753 192.266 33.0587 192.266 32.9372V10.5476C192.266 10.426 192.217 10.3095 192.131 10.2235C192.044 10.1376 191.927 10.0893 191.805 10.0893H190.876Z" fill="#2B2B2B"/>
</g>
</svg>
