<svg width="45" height="44" viewBox="0 0 45 44" fill="none" xmlns="http://www.w3.org/2000/svg">
<path d="M22.5 11.7376V9.81706C22.5 7.53357 20.6613 5.68262 18.3937 5.68262C16.2186 5.68262 14.439 7.38525 14.297 9.53887C13.7947 9.3797 13.2605 9.29381 12.7072 9.29381C9.78734 9.29381 7.42085 11.6766 7.42085 14.6158C7.42085 15.9494 7.90722 17.1681 8.71253 18.102C7.137 18.6204 6 20.1118 6 21.8711C6 23.6403 7.15135 25.1385 8.73964 25.6487C7.91838 26.5864 7.42085 27.8175 7.42085 29.1656C7.42085 32.1048 9.78734 34.4876 12.7072 34.4876C13.2573 34.4876 13.7883 34.4027 14.2875 34.2454C14.321 36.4993 16.1469 38.3159 18.3937 38.3159C20.6613 38.3159 22.5 36.465 22.5 34.1816V32.3215" stroke="#595DD2" stroke-width="2.5" stroke-linecap="round" stroke-linejoin="round"/>
<path d="M14.25 26.186L17.911 17.8179L21.6774 26.186" stroke="#595DD2" stroke-width="2.5" stroke-linecap="round" stroke-linejoin="round"/>
<path d="M15.2292 24.0303H20.6946" stroke="#595DD2" stroke-width="2.5"/>
<path d="M25.7158 26.1822V18.1221" stroke="#595DD2" stroke-width="2.5" stroke-linecap="round" stroke-linejoin="round"/>
<path d="M35.3276 6.97168H31.5227L27.4182 11.7383" stroke="#595DD2" stroke-width="2.5" stroke-linecap="round" stroke-linejoin="round"/>
<path d="M35.3276 37.0282H31.5227L27.4182 32.2617" stroke="#595DD2" stroke-width="2.5" stroke-linecap="round" stroke-linejoin="round"/>
<path d="M32.5059 27.9146L34.5693 29.9385H38.999" stroke="#595DD2" stroke-width="2.5" stroke-linecap="round" stroke-linejoin="round"/>
<path d="M31.1511 22H35.3344" stroke="#595DD2" stroke-width="2.5" stroke-linecap="round" stroke-linejoin="round"/>
<path d="M32.5059 16.0888L34.5693 14.0649H38.999" stroke="#595DD2" stroke-width="2.5" stroke-linecap="round" stroke-linejoin="round"/>
</svg>
