<svg width="124" height="40" viewBox="0 0 124 40" fill="none" xmlns="http://www.w3.org/2000/svg">
<path d="M5 11.6667C5 7.98477 8.01275 5 11.7292 5H28.5521C32.2685 5 35.2812 7.98477 35.2812 11.6667V28.3333C35.2812 32.0152 32.2685 35 28.5521 35H11.7292C8.01275 35 5 32.0152 5 28.3333V11.6667Z" fill="#595DD2"/>
<path d="M20.866 14.7362C20.8681 14.7386 20.8706 14.7406 20.8728 14.743C20.8713 14.74 20.8691 14.7374 20.866 14.7362ZM20.866 14.7362C20.8681 14.7386 20.8706 14.7406 20.8728 14.743C20.8713 14.74 20.8691 14.7374 20.866 14.7362ZM20.866 14.7362C20.8681 14.7386 20.8706 14.7406 20.8728 14.743C20.8713 14.74 20.8691 14.7374 20.866 14.7362ZM20.4422 15.5664C20.4453 15.5649 20.4478 15.5629 20.4494 15.5596C20.4469 15.562 20.4447 15.564 20.4422 15.5664ZM20.866 14.7362C20.8681 14.7386 20.8706 14.7406 20.8728 14.743C20.8713 14.74 20.8691 14.7374 20.866 14.7362ZM20.4422 15.5664C20.4453 15.5649 20.4478 15.5629 20.4494 15.5596C20.4469 15.562 20.4447 15.564 20.4422 15.5664ZM20.866 14.7362C20.8681 14.7386 20.8706 14.7406 20.8728 14.743C20.8713 14.74 20.8691 14.7374 20.866 14.7362ZM20.4422 15.5664C20.4453 15.5649 20.4478 15.5629 20.4494 15.5596C20.4469 15.562 20.4447 15.564 20.4422 15.5664ZM20.866 14.7362C20.8681 14.7386 20.8706 14.7406 20.8728 14.743C20.8713 14.74 20.8691 14.7374 20.866 14.7362ZM20.4422 15.5664C20.4453 15.5649 20.4478 15.5629 20.4494 15.5596C20.4469 15.562 20.4447 15.564 20.4422 15.5664ZM20.866 14.7362C20.8681 14.7386 20.8706 14.7406 20.8728 14.743C20.8713 14.74 20.8691 14.7374 20.866 14.7362ZM20.4422 15.5664C20.4453 15.5649 20.4478 15.5629 20.4494 15.5596C20.4469 15.562 20.4447 15.564 20.4422 15.5664ZM20.866 14.7362C20.8681 14.7386 20.8706 14.7406 20.8728 14.743C20.8713 14.74 20.8691 14.7374 20.866 14.7362ZM20.4422 15.5664C20.4453 15.5649 20.4478 15.5629 20.4494 15.5596C20.4469 15.562 20.4447 15.564 20.4422 15.5664ZM20.866 14.7362C20.8681 14.7386 20.8706 14.7406 20.8728 14.743C20.8713 14.74 20.8691 14.7374 20.866 14.7362ZM20.4422 15.5664C20.4453 15.5649 20.4478 15.5629 20.4494 15.5596C20.4469 15.562 20.4447 15.564 20.4422 15.5664ZM20.866 14.7362C20.8681 14.7386 20.8706 14.7406 20.8728 14.743C20.8713 14.74 20.8691 14.7374 20.866 14.7362ZM20.4422 15.5664C20.4453 15.5649 20.4478 15.5629 20.4494 15.5596C20.4469 15.562 20.4447 15.564 20.4422 15.5664ZM20.866 14.7362C20.8681 14.7386 20.8706 14.7406 20.8728 14.743C20.8713 14.74 20.8691 14.7374 20.866 14.7362ZM20.4422 15.5664C20.4453 15.5649 20.4478 15.5629 20.4494 15.5596C20.4469 15.562 20.4447 15.564 20.4422 15.5664ZM20.866 14.7362C20.8681 14.7386 20.8706 14.7406 20.8728 14.743C20.8713 14.74 20.8691 14.7374 20.866 14.7362ZM20.4422 15.5664C20.4453 15.5649 20.4478 15.5629 20.4494 15.5596C20.4469 15.562 20.4447 15.564 20.4422 15.5664ZM20.866 14.7362C20.8681 14.7386 20.8706 14.7406 20.8728 14.743C20.8713 14.74 20.8691 14.7374 20.866 14.7362ZM20.4422 15.5664C20.4453 15.5649 20.4478 15.5629 20.4494 15.5596C20.4469 15.562 20.4447 15.564 20.4422 15.5664ZM29.0845 17.4558C29.0811 17.4443 29.0746 17.4319 29.0655 17.4205C29.0349 17.1641 28.9004 16.9695 28.6596 16.8328C28.9497 16.6526 29.0911 16.4071 29.034 16.0897C28.9772 15.7736 28.7644 15.5831 28.4115 15.5158C28.8215 15.3874 28.916 15.096 28.8886 14.8776C28.794 14.2603 27.9213 14.2197 27.7297 14.7547C27.7038 14.7709 27.7007 14.7471 27.691 14.735C27.6068 14.4828 27.4261 14.3214 27.1543 14.2359C27.4654 14.0842 27.6274 13.8569 27.5419 13.525C27.4798 13.2846 27.3028 13.1332 27.0432 13.0982C26.7069 13.0526 26.4835 13.2102 26.349 13.5006C26.2532 13.2023 26.0494 13.0206 25.7355 12.9721C25.3842 12.918 25.1183 13.0579 24.9267 13.3451C24.8088 13.1587 24.6459 13.0362 24.4244 12.9891C24.4147 12.9821 24.4038 12.9824 24.3928 12.9832C24.4035 12.9815 24.4147 12.9812 24.4216 12.9706C24.4347 12.9609 24.4524 12.9635 24.4655 12.9547C25.0228 12.7598 25.0141 12.0146 24.4337 11.8473C24.1985 11.7862 23.9438 11.8506 23.7853 12.0275C23.5048 12.3421 23.6483 12.8092 24.0481 12.9556C24.0665 12.9618 24.0811 12.975 24.1008 12.9782C24.0917 12.9859 24.0764 12.9791 24.0686 12.99C23.8524 13.0544 23.6827 13.1723 23.5747 13.3819C23.4739 13.1928 23.3157 13.0797 23.1185 13.0147C23.1282 12.9912 23.1438 12.9944 23.155 12.9897C23.7822 12.756 23.6973 11.85 22.9756 11.7821C22.5974 11.7394 22.3175 12.002 22.2579 12.3444C22.2526 12.3547 22.2501 12.365 22.2492 12.3756C22.2479 12.3653 22.2442 12.355 22.2361 12.3453C22.1815 11.9455 21.7783 11.7262 21.447 11.7982C20.8192 11.9199 20.7496 12.6799 21.242 12.9374C21.3009 12.9688 21.368 12.9841 21.4307 13.0238C21.1596 13.0864 20.9836 13.2396 20.8947 13.4833C20.8619 13.4568 20.861 13.4254 20.8479 13.3995C20.5599 12.8521 19.7217 12.9306 19.5517 13.5197C19.5439 13.5297 19.5451 13.5415 19.5442 13.553C19.5439 13.5415 19.5448 13.5297 19.537 13.5197C19.3735 12.9683 18.5963 12.8709 18.2967 13.3619C18.0614 13.749 18.321 14.23 18.785 14.3047C18.7903 14.3091 18.7953 14.3129 18.8013 14.3164C18.805 14.3188 18.8078 14.3208 18.8116 14.3226H18.8134C18.8181 14.3244 18.8231 14.3261 18.8284 14.327C18.8768 14.3323 18.9264 14.332 18.9751 14.3279C18.9782 14.3273 18.9813 14.3267 18.9844 14.3258C19.2837 14.2644 19.4999 14.0854 19.5433 13.8411C19.5445 13.8369 19.5448 13.8322 19.5442 13.8281C19.5436 13.8152 19.5395 13.8023 19.5483 13.7955C19.5423 13.8034 19.5436 13.8155 19.5442 13.8281C19.5442 13.8325 19.5448 13.8372 19.5442 13.8416C19.5723 14.0601 19.8169 14.2805 20.0297 14.3152C19.7895 14.3552 19.5972 14.5713 19.5405 14.7903C19.5383 14.7974 19.5361 14.8047 19.5342 14.8121C19.5311 14.8268 19.5289 14.8414 19.5286 14.8564C19.5277 14.8714 19.5274 14.8867 19.5277 14.9017C19.5277 14.937 19.5277 14.9723 19.5274 15.0075C19.5277 15.0275 19.528 15.0475 19.5305 15.0672C19.5314 15.0707 19.5323 15.074 19.5333 15.0772C19.5355 15.0857 19.5376 15.0934 19.5405 15.1013C19.6066 15.3227 19.7451 15.487 19.9835 15.5711C19.9985 15.5749 20.0135 15.5773 20.0288 15.5793C20.0313 15.5796 20.0344 15.5799 20.0369 15.5808C20.0422 15.582 20.0481 15.5837 20.0531 15.5858L20.0547 15.5861L20.0531 15.5873C20.0422 15.5958 20.0319 15.5776 20.021 15.5852C19.728 15.6693 19.5779 15.8792 19.528 16.144C19.5286 16.1811 19.5217 16.2084 19.5352 16.2434V16.2449V16.2466V16.2484V16.2502V16.2543C19.5367 16.2584 19.5386 16.2625 19.5408 16.2666C19.5442 16.2728 19.5486 16.279 19.5539 16.2852C19.6166 16.5794 19.8191 16.7831 20.1371 16.8346C20.1445 16.8408 20.1523 16.8458 20.1605 16.8493C20.2004 16.8672 20.246 16.8572 20.289 16.8587C20.3052 16.8563 20.3212 16.8534 20.3368 16.8505L20.3411 16.8493H20.3436C20.3536 16.8472 20.3636 16.8452 20.3733 16.8431C20.6257 16.7852 20.8045 16.6429 20.8872 16.3919C20.8872 16.3822 20.8872 16.3728 20.8866 16.3636C20.8866 16.3454 20.8862 16.3254 20.8962 16.3107C20.8925 16.3184 20.8916 16.3307 20.8897 16.3431C20.8894 16.3457 20.8887 16.3481 20.8884 16.3504C20.9312 16.595 21.168 16.8249 21.4208 16.8434C21.4251 16.8452 21.4301 16.8446 21.4348 16.844C21.4467 16.8422 21.4591 16.8387 21.4669 16.8522C21.4582 16.8405 21.446 16.8422 21.4348 16.844C21.4323 16.8443 21.4301 16.8452 21.4276 16.8452C21.4245 16.8455 21.4214 16.8455 21.4183 16.8449C21.1565 16.8849 20.9518 17.0836 20.8916 17.3493C20.89 17.3555 20.8887 17.3614 20.8878 17.3673L20.8875 17.3702C20.8841 17.3861 20.8816 17.4011 20.8794 17.4175C20.8822 17.4569 20.8716 17.4981 20.8887 17.5351C20.8925 17.5436 20.8978 17.5519 20.905 17.5598C20.9496 17.8456 21.1736 18.0508 21.4691 18.1066C21.4744 18.1113 21.4797 18.1154 21.4857 18.119C21.4894 18.1216 21.4935 18.1237 21.4975 18.1251H21.4991C21.5038 18.1275 21.5072 18.1289 21.5125 18.1301C21.5512 18.1351 21.5896 18.1331 21.6283 18.1331C21.6442 18.1325 21.6601 18.131 21.6757 18.1281L21.6813 18.1269C21.9503 18.0793 22.1419 17.927 22.242 17.6798C22.3303 17.8982 22.472 18.0593 22.7035 18.1157C22.4564 18.1945 22.3026 18.3656 22.2386 18.6134V18.6161C22.238 18.6181 22.2376 18.6205 22.2376 18.6225C22.2333 18.644 22.233 18.6655 22.2327 18.6869C22.2327 18.7357 22.2302 18.8218 22.2348 18.8698V18.8724L22.2355 18.8745C22.2364 18.8774 22.237 18.8803 22.238 18.8833C22.3104 19.134 22.452 19.3239 22.7447 19.3807L22.7513 19.3816L22.7475 19.3825C22.7098 19.3804 22.6748 19.3948 22.6402 19.4101C22.4043 19.5133 22.2826 19.6958 22.2389 19.9225L22.2383 19.9257C22.2361 19.9375 22.2339 19.9495 22.232 19.9616C22.233 19.9863 22.2299 20.0116 22.2364 20.0351C22.2398 20.0474 22.2461 20.0589 22.2564 20.0695C22.3113 20.3864 22.5169 20.6004 22.862 20.6383C22.8676 20.6427 22.8733 20.6462 22.8792 20.6489C22.9029 20.6612 22.9297 20.6627 22.9572 20.6618C22.9747 20.6604 22.9921 20.6583 23.0093 20.6556C23.2767 20.6218 23.5554 20.4125 23.5844 20.1468C23.5775 20.3964 23.8923 20.6424 24.1048 20.6465C24.1251 20.6454 24.1457 20.6477 24.1657 20.6433C24.1457 20.6489 24.1248 20.6448 24.1048 20.6465C23.824 20.6783 23.61 20.9329 23.5666 21.1839C23.5622 21.2292 23.5625 21.2756 23.5672 21.3209C23.5703 21.3368 23.5781 21.35 23.5881 21.3627C23.634 21.6481 23.8424 21.8362 24.1339 21.9074C24.1385 21.9133 24.1438 21.918 24.1498 21.9218C24.1535 21.9244 24.1576 21.9265 24.1619 21.9283C24.1713 21.9324 24.1822 21.9344 24.1935 21.9353C24.2683 21.9385 24.3445 21.9394 24.4163 21.9171C24.4265 21.9147 24.4372 21.9124 24.4475 21.9103C24.6796 21.8445 24.8375 21.7031 24.927 21.4885C25.016 21.6987 25.1586 21.8512 25.3913 21.9174C25.1464 21.9979 24.9963 22.1537 24.9242 22.403C24.923 22.4057 24.9224 22.4083 24.9217 22.411C24.9208 22.4133 24.9202 22.4157 24.9196 22.4183C24.9186 22.4248 24.918 22.4309 24.9177 22.4374C24.9174 22.4418 24.9171 22.4459 24.9171 22.4504C24.9167 22.4539 24.9167 22.4577 24.9167 22.4612C24.9158 22.505 24.9167 22.5494 24.9164 22.5932C24.9164 22.6079 24.9164 22.6223 24.9167 22.637C24.9167 22.6391 24.9167 22.6423 24.9171 22.6444C24.9171 22.6529 24.9174 22.6611 24.918 22.6697C24.9186 22.6723 24.9186 22.6749 24.9189 22.6776C24.9192 22.6797 24.9196 22.6814 24.9199 22.6835C24.9202 22.6855 24.9208 22.6882 24.9214 22.6902V22.7002C24.9982 22.963 25.201 23.1488 25.4544 23.1856C25.465 23.1873 25.4759 23.1885 25.4868 23.1897C25.4965 23.1906 25.5071 23.1912 25.5171 23.1918C25.5767 23.192 25.6363 23.1918 25.6959 23.1915C25.7021 23.1912 25.7084 23.1909 25.7143 23.1903C25.7196 23.19 25.7246 23.1897 25.7296 23.1888C25.7355 23.1885 25.7411 23.1879 25.7471 23.187C26.0014 23.1568 26.1561 22.9971 26.2719 22.779C26.3708 22.9907 26.5278 23.1268 26.7421 23.1976C26.5037 23.2943 26.3321 23.4431 26.2781 23.6847C26.276 23.6965 26.2735 23.7077 26.2716 23.7194C26.271 23.7241 26.27 23.7288 26.2694 23.7335C26.2682 23.7726 26.2666 23.8123 26.2722 23.8511C26.2744 23.8608 26.2775 23.8688 26.2828 23.8773C26.2856 23.8823 26.2891 23.887 26.2928 23.8917C26.3477 24.1874 26.5596 24.3994 26.8772 24.43C27.1431 24.4597 27.3603 24.3556 27.5029 24.1416C27.715 23.8238 27.5977 23.3799 27.1493 23.2261C27.1234 23.2173 27.095 23.2156 27.0751 23.1935C27.3752 23.1112 27.5777 22.9422 27.628 22.6388C27.6392 22.615 27.6386 22.5909 27.6373 22.5665C27.6414 22.6112 27.6558 22.6547 27.6657 22.6988C27.7871 23.2503 28.682 23.3523 28.9117 22.742C29.0324 22.4154 28.8349 22.0655 28.4864 21.9521C29.1657 21.7145 29.1934 20.9349 28.6056 20.6483C29.1516 20.3896 29.19 19.7011 28.6483 19.388C28.6586 19.3598 28.688 19.3536 28.711 19.3407C28.8986 19.2375 29.0015 19.05 29.0437 18.8551C29.0474 18.8501 29.0508 18.8451 29.054 18.8398C29.0568 18.8357 29.0586 18.8339 29.0611 18.831V18.8268C29.0633 18.8218 29.0649 18.8163 29.0658 18.8107C29.0686 18.7628 29.0755 18.7107 29.0602 18.6643C29.0586 18.6599 29.0565 18.6563 29.0537 18.6522C29.0505 18.6463 29.0468 18.641 29.0424 18.6361C28.9959 18.4132 28.8699 18.2407 28.6564 18.119C28.9042 17.9855 29.0306 17.7912 29.0646 17.5407C29.0739 17.5292 29.0805 17.5175 29.0842 17.5057C29.0898 17.4887 29.0902 17.4728 29.0845 17.4558ZM22.2589 17.3041C22.2467 17.3032 22.2345 17.3023 22.2224 17.3014C22.1415 17.0651 21.9702 16.9192 21.7178 16.8543C21.7191 16.8481 21.7197 16.8419 21.7194 16.8358C21.9805 16.7793 22.1444 16.6206 22.2408 16.3769C22.335 16.6062 22.4698 16.7784 22.7416 16.8452C22.4817 16.9201 22.3378 17.0833 22.2589 17.3041ZM22.2389 15.1457C22.3297 15.3509 22.4498 15.5008 22.6686 15.5852C22.4452 15.6728 22.3235 15.8295 22.2411 16.0414C22.1546 15.8163 22.0086 15.6649 21.7662 15.5876C21.9936 15.5076 22.15 15.3735 22.2389 15.1457ZM21.7655 14.3158C21.9983 14.245 22.14 14.1103 22.2389 13.9148C22.3356 14.0953 22.4508 14.2417 22.6636 14.3161C22.4476 14.3958 22.3297 14.5463 22.2423 14.7427C22.149 14.5372 22.0086 14.3884 21.7655 14.3158ZM22.2489 12.4059C22.2498 12.42 22.2508 12.4341 22.2495 12.4479C22.2495 12.4529 22.2498 12.4576 22.2501 12.4623C22.2498 12.4647 22.2501 12.4667 22.2501 12.4688C22.2617 12.7219 22.4214 12.8854 22.6486 13.0141C22.457 13.082 22.3403 13.2125 22.2414 13.371C22.1746 13.2937 22.1309 13.2108 22.0557 13.1526C21.9784 13.0929 21.8888 13.0535 21.7968 13.0185C22.0504 12.9056 22.2233 12.7398 22.2467 12.4694C22.247 12.467 22.247 12.4647 22.247 12.4623C22.2476 12.457 22.2479 12.4517 22.2483 12.4465C22.2458 12.4332 22.2479 12.4194 22.2489 12.4059ZM20.9053 16.0685C20.8944 16.057 20.8834 16.0459 20.8722 16.0344C20.8706 16.0329 20.8691 16.0312 20.8675 16.0297C20.7923 15.8124 20.6344 15.6728 20.4085 15.5975C20.4198 15.5873 20.431 15.5767 20.4422 15.5664C20.4453 15.5649 20.4478 15.5629 20.4494 15.5596C20.6516 15.4788 20.7961 15.3459 20.8697 15.1487C20.8813 15.1422 20.8931 15.1357 20.9047 15.1292C20.9811 15.3515 21.1359 15.5029 21.3833 15.5858C21.1271 15.674 20.9702 15.8321 20.9053 16.0685ZM20.8675 13.8952C20.88 13.889 20.8928 13.8825 20.9053 13.876C20.9742 14.0956 21.1365 14.2297 21.3715 14.3149C21.1318 14.4011 20.973 14.5484 20.9043 14.7741C20.8937 14.7638 20.8834 14.7533 20.8728 14.743C20.8713 14.74 20.8691 14.7374 20.866 14.7362C20.773 14.514 20.6064 14.3711 20.3414 14.3161C20.6004 14.2532 20.7795 14.1233 20.8675 13.8952ZM23.5731 13.9683C23.6605 14.1236 23.775 14.24 23.9495 14.3173C23.7725 14.402 23.6558 14.5213 23.5766 14.688C23.4895 14.5146 23.3613 14.392 23.1703 14.3167C23.3528 14.2447 23.4823 14.133 23.5731 13.9683ZM23.5756 15.2027C23.6543 15.3812 23.7816 15.4988 23.9573 15.587C23.7797 15.6757 23.6527 15.7974 23.5778 15.9827C23.4926 15.7936 23.3638 15.6684 23.1669 15.5887C23.3504 15.5035 23.493 15.3888 23.5756 15.2027ZM23.5766 16.4377C23.6658 16.6329 23.8019 16.7708 24.0193 16.8466C23.8037 16.9339 23.6568 17.073 23.5794 17.2879C23.4917 17.0654 23.3348 16.9201 23.0911 16.8458C23.3301 16.7826 23.4798 16.6441 23.5766 16.4377ZM23.5769 17.6683C23.6639 17.8923 23.8162 18.039 24.0583 18.1169C23.8125 18.2071 23.6527 18.3568 23.5788 18.6058C23.4951 18.3462 23.3241 18.1904 23.0421 18.1181C23.311 18.0519 23.4836 17.9108 23.5769 17.6683ZM23.5813 19.9078C23.5033 19.6388 23.3444 19.4565 23.0536 19.3998C23.0542 19.3883 23.0545 19.3772 23.0552 19.3657C23.3335 19.3178 23.4936 19.149 23.5797 18.8939C23.6512 19.1479 23.8172 19.3034 24.0877 19.3833C23.8062 19.4768 23.6443 19.6435 23.5813 19.9078ZM26.339 13.8752C26.3512 13.8819 26.3633 13.8884 26.3755 13.8949C26.4435 14.0542 26.5718 14.158 26.7481 14.2338C26.5318 14.3005 26.3752 14.4111 26.2682 14.5877C26.1867 14.4707 26.0928 14.3776 25.9592 14.3135C26.1493 14.2115 26.2772 14.0683 26.339 13.8752ZM26.5509 15.5873C26.4276 15.6799 26.3449 15.7416 26.271 15.8824C26.1914 15.7554 26.0931 15.6599 25.9611 15.5896C26.0847 15.5164 26.1892 15.4323 26.2644 15.3095C26.3412 15.4223 26.4326 15.5164 26.5509 15.5873ZM26.266 16.5356C26.3515 16.6656 26.4498 16.7773 26.608 16.8472C26.4547 16.9307 26.3462 17.0377 26.2678 17.1838C26.1861 17.0351 26.0709 16.9284 25.9065 16.8505C26.0647 16.7776 26.1827 16.6788 26.266 16.5356ZM26.1025 17.982C26.168 17.9229 26.221 17.8556 26.2675 17.7709C26.353 17.9302 26.4713 18.0405 26.6376 18.1184C26.4691 18.2027 26.3496 18.3203 26.2682 18.485C26.1855 18.313 26.055 18.1992 25.8769 18.1204C25.9571 18.0719 26.0385 18.0393 26.1025 17.982ZM26.2625 19.0206C26.3184 19.0961 26.3599 19.1728 26.4223 19.2355C26.4869 19.3001 26.5743 19.3336 26.6557 19.3866C26.4719 19.4821 26.3505 19.5982 26.2691 19.7843C26.187 19.5915 26.0494 19.4677 25.8391 19.383C26.0435 19.3104 26.1827 19.2002 26.2625 19.0206ZM26.2688 20.2388C26.3568 20.4355 26.4966 20.5716 26.7131 20.6492C26.4937 20.7356 26.3499 20.8779 26.2694 21.0878C26.1836 20.8644 26.026 20.7256 25.7845 20.6504C26.0201 20.5798 26.1783 20.4522 26.2688 20.2388ZM26.2678 21.4741C26.3527 21.6907 26.5016 21.8359 26.7387 21.9174C26.4959 22.0044 26.3483 22.1593 26.2703 22.3898C26.1864 22.1393 26.0213 21.9894 25.7574 21.9186C26.0032 21.8462 26.182 21.7163 26.2678 21.4741ZM24.9267 13.9972C25.0113 14.1347 25.1149 14.2394 25.2631 14.3126C25.1052 14.3861 25.0063 14.5007 24.9189 14.6395C24.835 14.4972 24.7258 14.3931 24.5688 14.317C24.7311 14.242 24.84 14.1406 24.9267 13.9972ZM24.9183 15.2524C25.0019 15.3968 25.1086 15.5088 25.2587 15.5881C25.1105 15.6693 25.0038 15.7772 24.9252 15.9303C24.8344 15.7839 24.728 15.6643 24.5557 15.5887C24.7152 15.5082 24.8347 15.4079 24.9183 15.2524ZM24.9205 16.4851C25.0144 16.6453 25.1274 16.7737 25.3155 16.8469C25.1386 16.9334 25.0088 17.0536 24.9249 17.2423C24.8316 17.053 24.6989 16.926 24.4958 16.8478C24.6943 16.779 24.8244 16.6573 24.9205 16.4851ZM24.9221 17.7112C25.0135 17.9073 25.1461 18.0372 25.3495 18.1166C25.1452 18.2054 25.0085 18.3397 24.9245 18.5449C24.83 18.3362 24.6883 18.1939 24.454 18.1195C24.6746 18.0449 24.8263 17.9223 24.9221 17.7112ZM24.9295 18.9659C25.0097 19.1655 25.1489 19.306 25.3761 19.3833C25.147 19.4771 25.0038 19.6212 24.9264 19.8493C24.8375 19.6159 24.6852 19.4639 24.4484 19.3904C24.83 19.1955 24.7483 19.2293 24.9295 18.9659ZM24.9245 20.1732C25.0129 20.4214 25.1726 20.5739 25.4307 20.6489C25.1689 20.7353 25.0041 20.8938 24.9333 21.1433C24.8802 21.0743 24.8696 20.992 24.8188 20.9285C24.766 20.8629 24.7077 20.8041 24.6369 20.7562C24.5657 20.7077 24.4827 20.685 24.4016 20.6574C24.4028 20.6512 24.4035 20.6451 24.4031 20.6386C24.6603 20.5789 24.8316 20.4287 24.9245 20.1732ZM27.6043 17.8138C27.686 17.9461 27.7877 18.046 27.9325 18.1207C27.7887 18.1977 27.6876 18.3021 27.6043 18.4441C27.5203 18.293 27.4068 18.1957 27.2573 18.1181C27.4068 18.0481 27.5166 17.9526 27.6043 17.8138ZM27.2866 16.8505C27.4351 16.777 27.5397 16.677 27.6233 16.5386C27.7035 16.6638 27.7962 16.7582 27.9303 16.8299C27.7937 16.909 27.6879 17.0042 27.6074 17.1374C27.5197 17.0192 27.4264 16.9178 27.2866 16.8505ZM27.4508 19.2552C27.5135 19.2058 27.5565 19.1379 27.6061 19.0556C27.6845 19.204 27.7949 19.3063 27.9572 19.3833C27.7959 19.4718 27.6866 19.5812 27.6068 19.7382C27.5188 19.5806 27.4043 19.4656 27.2383 19.3913C27.3156 19.3422 27.3883 19.3043 27.4508 19.2552ZM27.6049 20.2835C27.6941 20.4537 27.8155 20.5725 27.9956 20.6498C27.8174 20.7359 27.6923 20.8567 27.6111 21.0322C27.4551 20.797 27.4417 20.785 27.1918 20.6468C27.3755 20.5769 27.5122 20.4631 27.6049 20.2835ZM27.6377 22.5133C27.6377 22.4871 27.6377 22.4471 27.6367 22.421C27.6149 22.1767 27.4489 22.0317 27.2298 21.9174C27.4008 21.8456 27.516 21.7325 27.6105 21.5755C27.6957 21.7675 27.8511 21.8633 28.0199 21.948C27.7369 22.139 27.6732 22.2181 27.6383 22.421L27.6377 22.4242V22.5133ZM27.6264 15.8806C27.5506 15.7548 27.4595 15.6643 27.3412 15.5899C27.5281 15.4747 27.652 15.318 27.711 15.0951C27.7924 15.3203 27.9409 15.4479 28.179 15.5138C27.9307 15.5655 27.7406 15.6655 27.6264 15.8806ZM20.4422 15.5664C20.4453 15.5649 20.4478 15.5629 20.4494 15.5596C20.4469 15.562 20.4447 15.564 20.4422 15.5664ZM20.866 14.7362C20.8681 14.7386 20.8706 14.7406 20.8728 14.743C20.8713 14.74 20.8691 14.7374 20.866 14.7362ZM20.4422 15.5664C20.4453 15.5649 20.4478 15.5629 20.4494 15.5596C20.4469 15.562 20.4447 15.564 20.4422 15.5664ZM20.866 14.7362C20.8681 14.7386 20.8706 14.7406 20.8728 14.743C20.8713 14.74 20.8691 14.7374 20.866 14.7362ZM20.4422 15.5664C20.4453 15.5649 20.4478 15.5629 20.4494 15.5596C20.4469 15.562 20.4447 15.564 20.4422 15.5664ZM20.866 14.7362C20.8681 14.7386 20.8706 14.7406 20.8728 14.743C20.8713 14.74 20.8691 14.7374 20.866 14.7362ZM20.4422 15.5664C20.4453 15.5649 20.4478 15.5629 20.4494 15.5596C20.4469 15.562 20.4447 15.564 20.4422 15.5664ZM20.866 14.7362C20.8681 14.7386 20.8706 14.7406 20.8728 14.743C20.8713 14.74 20.8691 14.7374 20.866 14.7362ZM20.4422 15.5664C20.4453 15.5649 20.4478 15.5629 20.4494 15.5596C20.4469 15.562 20.4447 15.564 20.4422 15.5664ZM20.866 14.7362C20.8681 14.7386 20.8706 14.7406 20.8728 14.743C20.8713 14.74 20.8691 14.7374 20.866 14.7362ZM20.4422 15.5664C20.4453 15.5649 20.4478 15.5629 20.4494 15.5596C20.4469 15.562 20.4447 15.564 20.4422 15.5664ZM20.866 14.7362C20.8681 14.7386 20.8706 14.7406 20.8728 14.743C20.8713 14.74 20.8691 14.7374 20.866 14.7362ZM20.4422 15.5664C20.4453 15.5649 20.4478 15.5629 20.4494 15.5596C20.4469 15.562 20.4447 15.564 20.4422 15.5664ZM20.866 14.7362C20.8681 14.7386 20.8706 14.7406 20.8728 14.743C20.8713 14.74 20.8691 14.7374 20.866 14.7362ZM20.4422 15.5664C20.4453 15.5649 20.4478 15.5629 20.4494 15.5596C20.4469 15.562 20.4447 15.564 20.4422 15.5664ZM20.866 14.7362C20.8681 14.7386 20.8706 14.7406 20.8728 14.743C20.8713 14.74 20.8691 14.7374 20.866 14.7362ZM20.4422 15.5664C20.4453 15.5649 20.4478 15.5629 20.4494 15.5596C20.4469 15.562 20.4447 15.564 20.4422 15.5664ZM20.866 14.7362C20.8681 14.7386 20.8706 14.7406 20.8728 14.743C20.8713 14.74 20.8691 14.7374 20.866 14.7362ZM20.4422 15.5664C20.4453 15.5649 20.4478 15.5629 20.4494 15.5596C20.4469 15.562 20.4447 15.564 20.4422 15.5664ZM20.866 14.7362C20.8681 14.7386 20.8706 14.7406 20.8728 14.743C20.8713 14.74 20.8691 14.7374 20.866 14.7362ZM20.866 14.7362C20.8681 14.7386 20.8706 14.7406 20.8728 14.743C20.8713 14.74 20.8691 14.7374 20.866 14.7362ZM20.866 14.7362C20.8681 14.7386 20.8706 14.7406 20.8728 14.743C20.8713 14.74 20.8691 14.7374 20.866 14.7362Z" fill="white"/>
<path d="M26.285 23.7291C26.2841 23.7476 26.2869 23.8626 26.2835 23.8782C26.2825 23.8832 26.2804 23.8882 26.2769 23.8926C26.1362 24.6322 25.0762 24.6178 24.9417 23.8923C24.9037 23.8511 24.918 23.7973 24.9165 23.7473C24.918 23.7356 24.9199 23.7241 24.9221 23.7129V23.7106C24.9227 23.7065 24.9237 23.7024 24.9246 23.6982C24.9705 23.4739 25.1102 23.3161 25.3358 23.2188C25.3848 23.197 25.4363 23.1838 25.49 23.1856C25.4965 23.1867 25.7281 23.1864 25.7281 23.1864C25.7346 23.1867 25.7405 23.1865 25.7471 23.187L25.7483 23.1879C26.0111 23.2138 26.2313 23.4211 26.2781 23.6847C26.2809 23.6991 26.2835 23.7144 26.285 23.7291Z" fill="white"/>
<path d="M19.5438 14.8554V15.0685L19.5435 15.0717C19.5429 15.0823 19.542 15.0929 19.5401 15.1032C19.5073 15.3251 19.2755 15.545 19.0212 15.5903C19.0121 15.5926 19.0025 15.595 18.9931 15.5976L18.9916 15.5979L18.9891 15.5988C18.9357 15.6103 18.8795 15.6082 18.8256 15.6044C18.8193 15.6026 18.8137 15.6006 18.8078 15.5979C18.8015 15.5959 18.795 15.5935 18.789 15.5909C18.7607 15.5791 18.7332 15.5659 18.7017 15.5621C18.3637 15.4542 18.1435 15.1379 18.2361 14.8054C18.2995 14.5361 18.501 14.3844 18.785 14.3247C18.79 14.3212 18.7956 14.3194 18.8012 14.3183C18.8137 14.3156 18.9572 14.3177 18.9735 14.3171C19.2434 14.3265 19.4914 14.5373 19.5404 14.7922C19.5417 14.7986 19.5429 14.806 19.5438 14.8124V14.8233C19.5442 14.8339 19.5438 14.8448 19.5438 14.8554Z" fill="white"/>
<path d="M22.2384 18.8469V18.8481C22.2381 18.8549 22.2381 18.8614 22.2384 18.8681V18.8849C22.2384 18.8946 22.2384 18.9046 22.2381 18.9146C22.1572 19.1824 21.9722 19.3373 21.6879 19.3852H21.6861C21.6833 19.3855 21.6805 19.3858 21.6776 19.3864C21.6717 19.3873 21.6658 19.3881 21.6595 19.389C21.6115 19.3864 21.5609 19.3973 21.5141 19.3852C21.4985 19.3811 21.4833 19.3746 21.4686 19.364C20.7222 19.2382 20.7341 18.2684 21.4686 18.1273C21.4808 18.1185 21.4948 18.1185 21.5095 18.1188H21.677C21.9376 18.1279 22.1822 18.339 22.2396 18.5971C22.239 18.6029 22.2386 18.6078 22.2386 18.6134C22.238 18.6169 22.2387 18.6212 22.2387 18.6247C22.2387 18.6465 22.2424 18.6682 22.2465 18.69C22.2468 18.692 22.2471 18.6944 22.2477 18.6964L22.2487 18.7017C22.2543 18.7505 22.2406 18.7984 22.2384 18.8469Z" fill="white"/>
<path d="M24.922 22.6311C24.922 22.6467 24.9223 22.6761 24.922 22.6916V22.706C24.8633 22.9565 24.6487 23.1399 24.3629 23.1873C24.3607 23.1879 24.3582 23.1882 24.3557 23.1885L24.3522 23.1893C24.3432 23.1905 24.3338 23.1917 24.3248 23.1929C24.2886 23.1914 24.2515 23.197 24.2165 23.1885C24.2015 23.1849 24.1872 23.1788 24.1735 23.1685C23.4324 23.05 23.3949 22.0949 24.132 21.93C24.1379 21.9261 24.1441 21.9241 24.1504 21.9232C24.1647 21.9208 24.1794 21.9232 24.1937 21.9223C24.2143 21.9223 24.336 21.9226 24.3541 21.922C24.3563 21.922 24.3591 21.922 24.3613 21.9217C24.3747 21.9214 24.3878 21.9176 24.4012 21.9161L24.4047 21.9158L24.4168 21.9185C24.6842 21.9755 24.8415 22.141 24.922 22.3818C24.9223 22.3886 24.9223 22.3953 24.9223 22.4021C24.9223 22.4056 24.9223 22.4091 24.9223 22.4124C24.9223 22.4153 24.9223 22.4182 24.9223 22.4209C24.9229 22.4332 24.9223 22.4456 24.923 22.4579C24.9236 22.5158 24.9258 22.5735 24.922 22.6311Z" fill="white"/>
<path d="M20.8887 17.5351C20.8853 17.5631 20.8787 17.5916 20.8671 17.619C20.7096 18.2342 19.7523 18.2719 19.581 17.6116C19.498 17.2782 19.7401 16.9484 20.0749 16.8711C20.103 16.8599 20.1318 16.8528 20.1605 16.8493C20.2157 16.8422 20.2718 16.847 20.328 16.8496C20.3333 16.8499 20.3383 16.8493 20.3436 16.8493C20.3542 16.8499 20.3651 16.8511 20.3757 16.8514C20.6593 16.9225 20.8519 17.1095 20.8865 17.3529C20.8868 17.3576 20.8875 17.3626 20.8878 17.3673L20.8875 17.3702C20.8903 17.4255 20.8956 17.4807 20.8887 17.5351Z" fill="white"/>
<path d="M23.5711 21.3643C23.4996 21.8456 22.8653 22.0801 22.4818 21.7456C22.0974 21.4255 22.2568 20.799 22.7589 20.6779C22.7913 20.6561 22.8322 20.6802 22.865 20.6606C22.8896 20.6379 22.9202 20.6538 22.948 20.6491C22.9576 20.6497 22.9673 20.6514 22.9767 20.6544C23.0107 20.6632 23.0463 20.6517 23.0806 20.6606C23.3424 20.7217 23.562 20.9266 23.5805 21.1865C23.5814 21.2314 23.5805 21.2764 23.5808 21.3214C23.5805 21.3364 23.5823 21.3514 23.5711 21.3643Z" fill="white"/>
<path d="M19.5403 16.2684C19.539 16.2746 19.5372 16.2805 19.5347 16.2866C19.4598 16.6491 19.1162 16.906 18.6978 16.7979C18.0322 16.6047 18.0915 15.7396 18.7633 15.5988C18.7714 15.5929 18.7803 15.5912 18.789 15.5909C18.8009 15.59 18.8129 15.5917 18.8248 15.5908C18.8591 15.5905 18.9512 15.5917 18.9842 15.5902C18.9864 15.5902 18.9883 15.5902 18.9905 15.5899H18.9917C19.0011 15.5893 19.0115 15.5894 19.0212 15.5903C19.2415 15.6003 19.5397 15.8689 19.5434 16.1229C19.544 16.1297 19.5437 16.1364 19.5434 16.1432C19.5394 16.1849 19.5506 16.2273 19.5403 16.2684Z" fill="white"/>
<path d="M24.9211 23.8574C24.919 23.8824 24.9143 23.9071 24.9052 23.9318C24.7648 24.548 23.8081 24.6326 23.6215 23.953C23.5232 23.567 23.7991 23.2736 24.1732 23.203C24.1872 23.1954 24.2018 23.1908 24.2165 23.1885C24.2586 23.1811 24.3024 23.1901 24.3451 23.1869L24.3511 23.1878L24.3557 23.1885C24.3585 23.189 24.361 23.1892 24.3635 23.1898C24.6759 23.241 24.8971 23.446 24.9221 23.7106L24.9224 23.7143C24.9205 23.7619 24.9252 23.8101 24.9211 23.8574Z" fill="white"/>
<path d="M22.2361 20.036C22.2339 20.0669 22.2289 20.0984 22.219 20.1284C22.0832 20.756 21.0944 20.816 20.9343 20.1328C20.8516 19.763 21.1184 19.4719 21.4679 19.4008C21.4829 19.3925 21.4989 19.3879 21.5141 19.3852C21.5619 19.3767 21.6111 19.3878 21.6589 19.3831C21.6651 19.3831 21.671 19.3837 21.6773 19.384C21.6801 19.3843 21.6833 19.3849 21.6861 19.3852H21.6879C21.9535 19.4081 22.1878 19.6248 22.2352 19.8935C22.2364 19.8991 22.2371 19.9044 22.238 19.9099C22.238 19.952 22.2399 19.9943 22.2361 20.036Z" fill="white"/>
<path d="M20.2279 18.1416C20.5921 18.1372 20.8748 18.4291 20.871 18.7516C20.852 19.5565 19.5842 19.5547 19.5776 18.7437C19.5786 18.4121 19.8657 18.1345 20.2279 18.1416Z" fill="white"/>
<path d="M17.5529 14.3416C17.9133 14.344 18.1801 14.5971 18.1751 14.9534C18.151 15.8032 16.8892 15.7274 16.8951 14.936C16.9001 14.6232 17.17 14.3275 17.5529 14.3416Z" fill="white"/>
<path d="M22.9108 23.1531C22.5307 23.1564 22.2717 22.8553 22.2789 22.5358C22.3088 21.735 23.532 21.7365 23.5616 22.549C23.5604 22.9071 23.2399 23.162 22.9108 23.1531Z" fill="white"/>
<path d="M23.6116 25.0806C23.6175 24.7699 23.8762 24.4803 24.2578 24.4794C25.1103 24.5074 25.1156 25.6586 24.2578 25.6912C23.9021 25.6912 23.6097 25.4152 23.6116 25.0806Z" fill="white"/>
<path d="M18.2369 17.476C18.2384 17.1438 18.5264 16.8736 18.8797 16.8736C19.7259 16.8983 19.7437 18.0595 18.8747 18.0807C18.5158 18.0786 18.2356 17.8102 18.2369 17.476Z" fill="white"/>
<path d="M20.9291 21.2845C20.9338 20.9758 21.1794 20.6819 21.5672 20.6771C22.4188 20.6877 22.4356 21.8592 21.5757 21.8824C21.2218 21.8863 20.9304 21.6149 20.9291 21.2845Z" fill="white"/>
<path d="M20.8611 20.0098C20.8596 20.3155 20.6255 20.6116 20.2199 20.6092C19.3705 20.5995 19.3899 19.413 20.2271 19.4113C20.6252 19.4142 20.8583 19.7105 20.8611 20.0098Z" fill="white"/>
<path d="M18.1632 16.2125C18.1594 16.57 17.8873 16.8034 17.5438 16.8058C16.7057 16.7973 16.6919 15.6237 17.5428 15.6102C17.8958 15.612 18.1622 15.8498 18.1632 16.2125Z" fill="white"/>
<path d="M22.9301 23.222C23.2084 23.2126 23.5579 23.4481 23.5523 23.8173C23.5186 24.6222 22.2758 24.601 22.2895 23.805C22.2957 23.406 22.6315 23.2064 22.9301 23.222Z" fill="white"/>
<path d="M19.5105 18.7492C19.5124 19.0452 19.2806 19.3433 18.8787 19.3413C18.0206 19.3251 18.0646 18.1601 18.8762 18.1542C19.2662 18.1519 19.513 18.4479 19.5105 18.7492Z" fill="white"/>
<path d="M22.2018 22.5545C22.209 22.8685 21.9337 23.1425 21.5734 23.1416C20.7153 23.1084 20.7546 21.9598 21.5914 21.9501C21.9116 21.9575 22.2193 22.2197 22.2018 22.5545Z" fill="white"/>
<path d="M20.2227 20.6955C20.5425 20.684 20.8502 20.9401 20.8502 21.2837C20.833 22.0422 19.6292 22.0819 19.5989 21.2855C19.5955 20.911 19.9278 20.6834 20.2227 20.6955Z" fill="white"/>
<path d="M17.5417 16.8883C17.8765 16.8995 18.1536 17.1076 18.1542 17.476C18.1573 18.27 16.9208 18.2441 16.9173 17.4789C16.9164 17.1203 17.2175 16.8901 17.5417 16.8883Z" fill="white"/>
<path d="M22.9193 24.4994C23.2379 24.4941 23.5446 24.7457 23.5415 25.0932C23.5072 25.8755 22.3002 25.8596 22.3015 25.0811C22.3043 24.7675 22.5542 24.4944 22.9193 24.4994Z" fill="white"/>
<path d="M18.2629 20.0078C18.2547 19.7088 18.5228 19.4257 18.8844 19.4272C19.7026 19.4572 19.7023 20.5754 18.8766 20.594C18.5019 20.5916 18.2501 20.2994 18.2629 20.0078Z" fill="white"/>
<path d="M22.1961 23.8096C22.1974 24.1515 21.9081 24.3944 21.5823 24.3999C20.7467 24.3767 20.7517 23.2505 21.5783 23.2346C21.9187 23.2367 22.1952 23.4854 22.1961 23.8096Z" fill="white"/>
<path d="M15.5793 16.2096C15.5696 15.9136 15.832 15.624 16.1971 15.6249C16.5413 15.6258 16.8131 15.8862 16.8149 16.2111C16.8165 16.4862 16.5871 16.7878 16.2008 16.7917C15.8336 16.7952 15.5734 16.5097 15.5793 16.2096Z" fill="white"/>
<path d="M19.6139 22.5421C19.598 22.2531 19.8673 21.9659 20.2255 21.9668C21.0446 21.995 21.038 23.1074 20.218 23.1242C19.8988 23.1224 19.5983 22.8728 19.6139 22.5421Z" fill="white"/>
<path d="M17.5374 18.1709C17.8344 18.1697 18.1449 18.3693 18.1415 18.7512C18.1181 19.5499 16.9423 19.4817 16.928 18.7532C16.9249 18.4507 17.1879 18.17 17.5374 18.1709Z" fill="white"/>
<path d="M22.1825 25.0894C22.189 25.4269 21.8645 25.6667 21.5622 25.6573C20.7609 25.6091 20.7743 24.5335 21.5818 24.512C21.9372 24.5147 22.1943 24.7992 22.1825 25.0894Z" fill="white"/>
<path d="M16.202 16.9091C16.5106 16.8941 16.8077 17.1549 16.8058 17.48C16.8039 17.7934 16.5294 18.0547 16.1977 18.0518C15.8916 18.0488 15.5936 17.8416 15.5892 17.4809C15.5848 17.1216 15.905 16.8915 16.202 16.9091Z" fill="white"/>
<path d="M18.8862 20.713C19.2044 20.7015 19.4927 20.9696 19.4893 21.2868C19.469 22.02 18.2921 22.0585 18.2727 21.2771C18.2758 20.9014 18.6131 20.6956 18.8862 20.713Z" fill="white"/>
<path d="M25.6085 25.6557C25.2719 25.6557 25.002 25.4014 25.0026 25.0848C25.0294 24.3299 26.193 24.3287 26.2161 25.0863C26.2161 25.4044 25.9471 25.6557 25.6085 25.6557Z" fill="white"/>
<path d="M20.8258 12.4081C20.8383 12.68 20.5893 12.9725 20.2264 12.9737C19.4463 12.9605 19.3977 11.8675 20.222 11.8392C20.6289 11.8378 20.8405 12.1553 20.8258 12.4081Z" fill="white"/>
<path d="M16.7982 14.9459C16.8004 15.2595 16.5351 15.5156 16.2044 15.5188C15.4071 15.5059 15.3965 14.4055 16.195 14.382C16.5273 14.3814 16.7963 14.6328 16.7982 14.9459Z" fill="white"/>
<path d="M20.8246 23.8208C20.8227 24.1347 20.555 24.3819 20.2192 24.3802C19.4342 24.3573 19.4129 23.2769 20.2286 23.2525C20.5325 23.2534 20.8383 23.49 20.8246 23.8208Z" fill="white"/>
<path d="M17.5421 20.5771C17.2148 20.5759 16.9414 20.3452 16.9386 20.0144C16.9324 19.3013 18.1059 19.2178 18.1325 20.0086C18.1346 20.3875 17.8282 20.5756 17.5421 20.5771Z" fill="white"/>
<path d="M18.8753 21.9847C19.2042 21.9826 19.4744 22.2304 19.4775 22.5379C19.4678 23.2764 18.3155 23.3037 18.2856 22.5485C18.2856 22.236 18.5452 21.9867 18.8753 21.9847Z" fill="white"/>
<path d="M21.5725 26.9095C21.2443 26.9087 20.9794 26.6576 20.98 26.3484C21.0134 25.5946 22.1429 25.6102 22.1741 26.3528C22.1723 26.6564 21.898 26.9101 21.5725 26.9095Z" fill="white"/>
<path d="M17.5288 14.2331C17.228 14.2381 16.9409 13.9873 16.9468 13.6648C16.9521 13.3741 17.2027 13.1098 17.5494 13.1142C17.8364 13.1178 18.1291 13.3209 18.1257 13.684C18.1223 14.0476 17.7971 14.2481 17.5288 14.2331Z" fill="white"/>
<path d="M29.0631 18.6391C29.1726 18.1584 29.8516 18.0285 30.1393 18.4465C30.2863 18.6603 30.2607 18.9386 30.0831 19.1256C29.938 19.2785 29.7567 19.324 29.5499 19.2976C29.2747 19.2623 29.1314 19.0942 29.0612 18.8557C29.0503 18.8419 29.0528 18.8261 29.0525 18.8105C29.0525 18.7737 29.0525 18.737 29.0525 18.6999C29.0547 18.6797 29.0463 18.6573 29.0631 18.6391Z" fill="white"/>
<path d="M14.8344 18.0325C14.5442 18.0345 14.2537 17.807 14.2566 17.4713C14.2878 16.7511 15.4108 16.7372 15.4329 17.4819C15.4301 17.8373 15.1174 18.0451 14.8344 18.0325Z" fill="white"/>
<path d="M16.9526 21.2817C16.943 21.021 17.1692 20.7299 17.5386 20.7276C18.319 20.7461 18.3056 21.8235 17.5386 21.8335C17.1926 21.8321 16.9458 21.5681 16.9526 21.2817Z" fill="white"/>
<path d="M20.8061 25.0898C20.812 25.3964 20.5293 25.6337 20.2216 25.634C19.904 25.634 19.6397 25.3835 19.6397 25.0845C19.6397 24.7838 19.9018 24.538 20.2219 24.5363C20.5755 24.5342 20.822 24.8244 20.8061 25.0898Z" fill="white"/>
<path d="M18.299 23.8192C18.2916 23.4691 18.6089 23.271 18.875 23.2704C19.6333 23.2771 19.6795 24.3343 18.881 24.3622C18.543 24.3631 18.299 24.1156 18.299 23.8192Z" fill="white"/>
<path d="M22.9116 26.8981C22.5886 26.8887 22.3393 26.6752 22.3443 26.3436C22.3574 25.5984 23.4926 25.6431 23.4991 26.3545C23.4985 26.6555 23.2305 26.8995 22.9116 26.8981Z" fill="white"/>
<path d="M20.2244 25.8089C20.5311 25.7936 20.806 26.054 20.8032 26.3533C20.8004 26.6461 20.5367 26.8945 20.2237 26.8919C19.9463 26.8895 19.6502 26.7022 19.6462 26.3527C19.6421 26.0005 19.9563 25.7936 20.2244 25.8089Z" fill="white"/>
<path d="M15.4172 16.2234C15.4238 16.4882 15.1791 16.7531 14.8437 16.7516C14.098 16.7363 14.0668 15.6857 14.8531 15.6677C15.2163 15.6716 15.4388 15.9641 15.4172 16.2234Z" fill="white"/>
<path d="M18.106 22.5532C18.1209 22.8845 17.8042 23.0944 17.5315 23.087C16.7583 23.0506 16.7932 22.0131 17.5474 22.0025C17.8111 22.004 18.1269 22.2118 18.106 22.5532Z" fill="white"/>
<path d="M29.6307 20.5476C29.2922 20.5476 29.061 20.2777 29.0694 19.9984C29.0785 19.7045 29.3384 19.4658 29.6604 19.4734C29.9599 19.4805 30.222 19.7192 30.2142 20.0217C30.2064 20.3268 29.9543 20.5552 29.6307 20.5476Z" fill="white"/>
<path d="M16.7669 21.2872C16.7654 21.582 16.5111 21.8175 16.1947 21.8166C15.4339 21.789 15.447 20.7648 16.2043 20.7474C16.5179 20.7513 16.7682 20.9914 16.7669 21.2872Z" fill="white"/>
<path d="M16.1955 18.2199C16.5122 18.2138 16.7631 18.4551 16.7627 18.7512C16.7624 19.0728 16.4741 19.2927 16.1983 19.2897C15.8897 19.2862 15.6316 19.0472 15.6307 18.7538C15.6298 18.4669 15.8756 18.2141 16.1955 18.2199Z" fill="white"/>
<path d="M18.1006 23.8159C18.0987 24.1102 17.8519 24.3413 17.5393 24.341C16.7882 24.3163 16.8032 23.2983 17.5415 23.2912C17.8444 23.2921 18.1019 23.5008 18.1006 23.8159Z" fill="white"/>
<path d="M16.1944 19.4828C16.5011 19.4819 16.7579 19.7241 16.7569 20.0131C16.7276 20.7066 15.6698 20.7116 15.6374 20.0163C15.6352 19.7268 15.8889 19.4837 16.1944 19.4828Z" fill="white"/>
<path d="M14.0437 18.7545C14.0605 18.9885 13.8362 19.2783 13.4898 19.2769C13.189 19.2757 12.9385 19.0308 12.9397 18.7459C12.941 18.4602 13.1943 18.2256 13.4989 18.2262C13.8031 18.2268 14.0599 18.4752 14.0437 18.7545Z" fill="white"/>
<path d="M16.2045 22.0273C16.4769 22.019 16.7499 22.2442 16.7481 22.5461C16.73 23.234 15.656 23.2381 15.6438 22.5405C15.6457 22.221 15.9359 22.0126 16.2045 22.0273Z" fill="white"/>
<path d="M29.1022 17.3632C29.1811 17.0692 29.4626 16.9334 29.7053 16.9599C30.3462 17.0428 30.3547 17.8756 29.7534 17.9888C29.4467 18.047 29.1655 17.8633 29.1009 17.5802C29.0738 17.5078 29.0813 17.4355 29.1022 17.3632Z" fill="white"/>
<path d="M14.3095 18.7494C14.2973 18.4716 14.5688 18.2347 14.8512 18.2423C15.1445 18.2502 15.3863 18.4725 15.3879 18.7491C15.3894 19.0246 15.1367 19.2639 14.8459 19.265C14.5601 19.2662 14.2951 19.021 14.3095 18.7494Z" fill="white"/>
<path d="M15.6618 23.8126C15.654 23.521 15.8955 23.3128 16.1938 23.3123C16.9074 23.3131 16.9121 24.3 16.1991 24.3212C15.8893 24.3206 15.6493 24.0822 15.6618 23.8126Z" fill="white"/>
<path d="M15.3735 22.553C15.372 22.8208 15.1467 23.0437 14.839 23.0425C14.5429 23.0413 14.3076 22.8108 14.3132 22.5322C14.3185 22.2611 14.5635 22.0427 14.8562 22.0477C15.152 22.0527 15.3779 22.2735 15.3735 22.553Z" fill="white"/>
<path d="M14.0234 17.483C14.0343 17.7161 13.8181 17.9793 13.4942 17.9787C12.7962 17.9522 12.7915 17.0097 13.492 16.9795C13.7881 16.9765 14.0246 17.2008 14.0234 17.483Z" fill="white"/>
<path d="M18.8801 26.838C18.5905 26.838 18.3577 26.619 18.359 26.3486C18.3602 26.0781 18.5949 25.8576 18.8813 25.8582C19.1675 25.8588 19.403 26.0808 19.403 26.3498C19.403 26.6199 19.1693 26.838 18.8801 26.838Z" fill="white"/>
<path d="M15.3587 23.8157C15.3578 24.0873 15.1325 24.2984 14.8445 24.2978C14.1627 24.2799 14.163 23.3439 14.8457 23.3365C15.1234 23.3365 15.3621 23.5291 15.3587 23.8157Z" fill="white"/>
<path d="M14.8418 21.7615C14.5529 21.7688 14.3289 21.5322 14.3332 21.2758C14.3626 20.642 15.3345 20.6405 15.3586 21.2832C15.3595 21.5324 15.1367 21.7723 14.8418 21.7615Z" fill="white"/>
<path d="M18.8833 27.142C19.1589 27.142 19.392 27.3507 19.3895 27.622C19.3682 28.2688 18.3794 28.2476 18.3691 27.6156C18.3691 27.3548 18.6041 27.1405 18.8833 27.142Z" fill="white"/>
<path d="M16.1943 25.5602C15.9547 25.5655 15.6917 25.3871 15.6885 25.0822C15.7166 24.4587 16.6814 24.4522 16.7023 25.0863C16.7023 25.4 16.4274 25.5676 16.1943 25.5602Z" fill="white"/>
<path d="M14.3493 25.0851C14.3502 24.8264 14.5705 24.6207 14.8454 24.6198C15.5004 24.6354 15.5129 25.5452 14.8414 25.5531C14.5228 25.5487 14.3455 25.3144 14.3493 25.0851Z" fill="white"/>
<path d="M25.6103 12.872C25.3391 12.8723 25.1104 12.6612 25.1154 12.4055C25.151 11.7614 26.0899 11.8108 26.1048 12.4046C26.1051 12.6612 25.8827 12.8717 25.6103 12.872Z" fill="white"/>
<path d="M19.3706 25.0892C19.3697 25.3459 19.1556 25.5575 18.8838 25.5511C18.2048 25.5279 18.2451 24.6304 18.8823 24.6198C19.1668 24.6201 19.3884 24.852 19.3706 25.0892Z" fill="white"/>
<path d="M19.3682 12.4051C19.3679 12.6597 19.1501 12.8664 18.8815 12.8673C18.614 12.8681 18.3925 12.6603 18.3906 12.4072C18.3891 12.1491 18.6122 11.938 18.8843 11.9407C19.1539 11.9433 19.3685 12.1494 19.3682 12.4051Z" fill="white"/>
<path d="M30.1305 21.2913C30.1355 21.5356 29.908 21.7473 29.6369 21.7429C28.9875 21.709 28.9988 20.8333 29.6562 20.8207C29.9168 20.8262 30.1427 21.0317 30.1305 21.2913Z" fill="white"/>
<path d="M13.9831 23.8122C13.984 24.068 13.7703 24.2741 13.4991 24.2738C12.867 24.277 12.827 23.3672 13.4917 23.3628C13.7853 23.3589 13.9778 23.5541 13.9831 23.8122Z" fill="white"/>
<path d="M17.0549 27.6139C17.0424 27.4198 17.2284 27.1623 17.5407 27.1638C18.1925 27.1758 18.1875 28.081 17.5342 28.0798C17.2402 28.0778 17.0458 27.8558 17.0549 27.6139Z" fill="white"/>
<path d="M23.7757 26.3492C23.7644 26.1169 23.981 25.8891 24.2634 25.892C24.8856 25.9126 24.9168 26.7872 24.2537 26.804C23.9557 26.8016 23.7657 26.5729 23.7757 26.3492Z" fill="white"/>
<path d="M11.6687 20.0117C11.6594 19.7959 11.8634 19.5596 12.1496 19.5572C12.7677 19.5725 12.821 20.433 12.1474 20.4671C11.8463 20.4671 11.6565 20.2137 11.6687 20.0117Z" fill="white"/>
<path d="M20.2265 27.182C20.4786 27.1696 20.7029 27.3851 20.6967 27.6309C20.6677 28.2091 19.7647 28.2079 19.7487 27.6241C19.7453 27.3678 19.9725 27.1696 20.2265 27.182Z" fill="white"/>
<path d="M13.9648 25.0885C13.9639 25.3333 13.7558 25.5256 13.4927 25.5244C12.8671 25.4994 12.8746 24.6666 13.498 24.6472C13.7595 24.6493 13.9658 24.8442 13.9648 25.0885Z" fill="white"/>
<path d="M13.491 22.1096C13.7459 22.1081 13.959 22.3013 13.9603 22.54C13.964 23.1017 13.0545 23.1567 13.0317 22.5482C13.0308 22.2569 13.2819 22.1072 13.491 22.1096Z" fill="white"/>
<path d="M17.5377 24.6553C17.7986 24.6547 18.0008 24.8431 18.0004 25.0871C17.9852 25.658 17.0999 25.6613 17.079 25.0912C17.0768 24.8472 17.2781 24.6559 17.5377 24.6553Z" fill="white"/>
<path d="M12.1535 18.3208C12.4118 18.3117 12.6165 18.5321 12.6112 18.7558C12.5766 19.3288 11.7213 19.3247 11.6929 18.7529C11.6907 18.5289 11.8895 18.3117 12.1535 18.3208Z" fill="white"/>
<path d="M12.1493 24.675C12.3727 24.665 12.5927 24.8502 12.5911 25.0898C12.5871 25.611 11.7293 25.6581 11.7134 25.0842C11.7146 24.8067 11.9671 24.6653 12.1493 24.675Z" fill="white"/>
<path d="M28.7308 23.8145C28.7439 24.0074 28.5548 24.2346 28.2905 24.2302C28.048 24.2261 27.8593 24.0494 27.8555 23.8189C27.8524 23.632 27.9897 23.4053 28.2964 23.4085C28.5473 23.4115 28.7308 23.5823 28.7308 23.8145Z" fill="white"/>
<path d="M30.0748 16.2064C30.0751 16.4304 29.8754 16.6182 29.6392 16.6159C29.4089 16.6138 29.2105 16.4254 29.2098 16.2081C29.2092 15.9853 29.4102 15.7984 29.6476 15.801C29.8838 15.8033 30.0745 15.9841 30.0748 16.2064Z" fill="white"/>
<path d="M26.9364 25.4807C26.7292 25.4931 26.527 25.3049 26.527 25.0824C26.527 24.8704 26.7245 24.6858 26.9452 24.6879C27.1798 24.6902 27.3673 24.8704 27.3642 25.0906C27.3608 25.3149 27.1776 25.4822 26.9364 25.4807Z" fill="white"/>
<path d="M14.8444 20.4031C14.615 20.4025 14.4334 20.2279 14.4315 20.0107C14.4425 19.5018 15.2422 19.4845 15.2609 20.0136C15.2619 20.2291 15.0728 20.4037 14.8444 20.4031Z" fill="white"/>
<path d="M12.5643 26.3554C12.5618 26.5353 12.4211 26.736 12.1506 26.7352C11.5958 26.7243 11.6108 25.9747 12.1528 25.9608C12.3805 25.9611 12.5665 26.1396 12.5643 26.3554Z" fill="white"/>
<path d="M12.5634 23.8156C12.5618 24.0249 12.3737 24.2028 12.1527 24.2034C11.9265 24.204 11.7371 24.0205 11.7424 23.8068C11.748 23.5913 11.9306 23.4235 12.1571 23.4264C12.3827 23.4291 12.5649 23.6034 12.5634 23.8156Z" fill="white"/>
<path d="M21.1727 27.6186C21.1646 27.4084 21.3621 27.2359 21.5836 27.2403C21.8049 27.2447 21.983 27.4158 21.9799 27.6254C21.9774 27.8038 21.8451 28.0008 21.5761 28.0037C21.325 28.0064 21.1643 27.8126 21.1727 27.6186Z" fill="white"/>
<path d="M13.4953 19.6346C13.6991 19.6208 13.8997 19.7951 13.8988 20.0097C13.8991 20.4969 13.1093 20.5436 13.0925 20.0095C13.0922 19.7681 13.3119 19.6199 13.4953 19.6346Z" fill="white"/>
<path d="M13.0976 26.3367C13.1029 26.0977 13.3213 25.9636 13.5113 25.9707C14.0324 26.0059 14.0196 26.7235 13.4854 26.7226C13.2561 26.7168 13.0891 26.5507 13.0976 26.3367Z" fill="white"/>
<path d="M14.8478 15.3086C14.6603 15.3197 14.459 15.1698 14.4627 14.9437C14.4659 14.7356 14.6259 14.5842 14.8444 14.5833C15.1012 14.5825 15.2307 14.7841 15.23 14.9499C15.2294 15.1425 15.0494 15.3189 14.8478 15.3086Z" fill="white"/>
<path d="M10.4201 26.348C10.421 26.1499 10.5948 25.9885 10.8051 25.9902C11.3028 26.0126 11.3122 26.6884 10.8014 26.7078C10.5908 26.7117 10.4191 26.5467 10.4201 26.348Z" fill="white"/>
<path d="M16.1994 14.0192C15.9976 14.0206 15.8284 13.8619 15.8297 13.6726C15.8525 13.2198 16.5483 13.216 16.5605 13.677C16.5592 13.8678 16.401 14.018 16.1994 14.0192Z" fill="white"/>
<path d="M11.1507 25.084C11.1522 25.2665 10.9984 25.4141 10.8043 25.4159C10.6112 25.4179 10.4539 25.2724 10.4517 25.0896C10.4496 24.9099 10.6081 24.7574 10.7984 24.7562C10.9891 24.755 11.1491 24.9041 11.1507 25.084Z" fill="white"/>
<path d="M14.8444 26.6776C14.6437 26.6864 14.4893 26.5027 14.4955 26.3492C14.5202 25.9101 15.1801 25.9206 15.1979 26.351C15.1966 26.5318 15.0388 26.6782 14.8444 26.6776Z" fill="white"/>
<path d="M11.1507 20.0118C11.1507 20.1932 10.9947 20.3419 10.8028 20.3425C10.6112 20.3434 10.4536 20.1961 10.4517 20.0142C10.4499 19.8334 10.6074 19.6832 10.8 19.6829C10.9919 19.6823 11.1507 19.8316 11.1507 20.0118Z" fill="white"/>
<path d="M13.8382 16.2047C13.8472 16.3876 13.6899 16.5319 13.4937 16.5369C13.3083 16.5416 13.1514 16.3893 13.1489 16.2127C13.1464 16.0286 13.3008 15.8819 13.4956 15.8825C13.7006 15.8828 13.8472 16.0474 13.8382 16.2047Z" fill="white"/>
<path d="M21.5737 10.8334C21.7572 10.8331 21.9051 10.9701 21.9057 11.1409C21.9063 11.3106 21.7578 11.4514 21.5771 11.4528C21.3962 11.4543 21.2467 11.3156 21.2445 11.1445C21.2423 10.9743 21.3912 10.8337 21.5737 10.8334Z" fill="white"/>
<path d="M17.5374 26.6581C17.3658 26.6584 17.2136 26.5385 17.2098 26.3462C17.2067 26.1754 17.3624 26.0373 17.5434 26.0387C17.7253 26.0405 17.8707 26.1801 17.8698 26.3518C17.8685 26.5255 17.7231 26.6596 17.5374 26.6581Z" fill="white"/>
<path d="M10.7847 21.5883C10.6043 21.5798 10.4664 21.4393 10.4748 21.2729C10.4836 21.1009 10.6396 20.9645 10.8171 20.9742C10.99 20.9836 11.1354 21.133 11.1282 21.2938C11.1204 21.4657 10.9672 21.5971 10.7847 21.5883Z" fill="white"/>
<path d="M23.2375 11.1464C23.2359 11.3125 23.0884 11.4495 22.9121 11.4475C22.4864 11.4248 22.4877 10.8524 22.9189 10.8398C23.0974 10.8416 23.2391 10.9777 23.2375 11.1464Z" fill="white"/>
<path d="M29.9476 22.5449C29.9476 22.7028 29.8138 22.8312 29.6465 22.8333C29.4783 22.8356 29.3354 22.7001 29.3379 22.5411C29.3407 22.385 29.4796 22.2568 29.645 22.258C29.811 22.2592 29.9476 22.3885 29.9476 22.5449Z" fill="white"/>
<path d="M16.1997 27.3409C16.372 27.342 16.4993 27.4628 16.4986 27.6254C16.498 27.78 16.3576 27.9114 16.1941 27.91C16.0325 27.9085 15.8905 27.7721 15.893 27.6201C15.8955 27.4599 16.0272 27.34 16.1997 27.3409Z" fill="white"/>
<path d="M16.199 29.1676C16.0343 29.1685 15.9017 29.0468 15.8992 28.8925C15.8964 28.7358 16.0362 28.6023 16.2003 28.6056C16.3622 28.6085 16.4955 28.7367 16.4952 28.8889C16.4952 29.0415 16.3619 29.1668 16.199 29.1676Z" fill="white"/>
<path d="M17.5431 29.1673C17.3752 29.1682 17.2467 29.0488 17.2451 28.8907C17.2439 28.7334 17.3727 28.6076 17.5378 28.6055C17.6951 28.6035 17.8383 28.7363 17.8402 28.8857C17.842 29.0371 17.7057 29.1664 17.5431 29.1673Z" fill="white"/>
<path d="M27.9993 13.6694C28.0009 13.5133 28.1351 13.3887 28.2979 13.3922C28.4602 13.396 28.5931 13.5257 28.5906 13.678C28.5881 13.8317 28.453 13.9546 28.2886 13.9525C28.122 13.9505 27.9981 13.8291 27.9993 13.6694Z" fill="white"/>
<path d="M13.2076 21.2777C13.1964 21.158 13.3228 21.0049 13.5006 21.0096C13.6591 21.0137 13.7896 21.1398 13.7861 21.288C13.7827 21.4358 13.6457 21.5617 13.49 21.5573C13.3171 21.5523 13.1948 21.4079 13.2076 21.2777Z" fill="white"/>
<path d="M25.8893 26.348C25.8905 26.4947 25.7626 26.617 25.6078 26.6164C25.2409 26.6011 25.2334 26.1025 25.6044 26.0858C25.7635 26.0843 25.888 26.1986 25.8893 26.348Z" fill="white"/>
<path d="M9.45014 27.3568C9.60865 27.355 9.73409 27.4711 9.73533 27.6199C9.73627 27.7595 9.60896 27.8833 9.46106 27.8862C9.31222 27.8895 9.18085 27.771 9.1768 27.6299C9.17243 27.4782 9.29225 27.3583 9.45014 27.3568Z" fill="white"/>
<path d="M9.18014 26.35C9.18014 26.2042 9.30184 26.0866 9.45348 26.0857C9.60232 26.0849 9.73119 26.2039 9.734 26.345C9.73681 26.4879 9.60232 26.6219 9.45379 26.6155C9.29185 26.6084 9.18264 26.4952 9.18014 26.35Z" fill="white"/>
<path d="M23.1916 27.6195C23.1941 27.7562 23.0715 27.8761 22.9242 27.8805C22.7732 27.8852 22.6393 27.7673 22.6375 27.6277C22.6353 27.4839 22.7588 27.3637 22.9102 27.3619C23.0624 27.3599 23.1888 27.4754 23.1916 27.6195Z" fill="white"/>
<path d="M11.0765 27.6268C11.0749 27.7638 10.9498 27.8808 10.8022 27.8805C10.624 27.8805 10.5217 27.7361 10.5229 27.6206C10.5245 27.4774 10.6521 27.3607 10.8037 27.3619C10.956 27.3631 11.078 27.4816 11.0765 27.6268Z" fill="white"/>
<path d="M12.1519 17.2216C12.3054 17.2219 12.4271 17.3392 12.4243 17.4841C12.4049 17.824 11.8826 17.8152 11.8785 17.4733C11.8813 17.3327 12.0024 17.2213 12.1519 17.2216Z" fill="white"/>
<path d="M17.5449 12.1489C17.6921 12.1512 17.8141 12.2715 17.8098 12.4099C17.8054 12.5493 17.6778 12.6619 17.5299 12.6574C17.387 12.653 17.2693 12.5366 17.2706 12.4008C17.2718 12.2609 17.3963 12.1468 17.5449 12.1489Z" fill="white"/>
<path d="M16.1957 26.601C16.0606 26.613 15.9258 26.4901 15.9299 26.3464C15.9333 26.2288 16.0204 26.1047 16.1942 26.0945C16.333 26.0859 16.4747 26.2179 16.4697 26.3499C16.465 26.4793 16.3592 26.6095 16.1957 26.601Z" fill="white"/>
<path d="M11.9173 21.2804C11.9086 21.1599 12.02 21.0608 12.1554 21.0585C12.2836 21.0561 12.3932 21.167 12.3907 21.2872C12.3879 21.4092 12.2777 21.5094 12.1485 21.508C12.0165 21.5065 11.9164 21.4077 11.9173 21.2804Z" fill="white"/>
<path d="M26.9391 12.1812C27.0724 12.1797 27.1847 12.2767 27.1816 12.4005C27.1629 12.7127 26.7079 12.6906 26.7145 12.4014C26.7201 12.2729 26.8043 12.1806 26.9391 12.1812Z" fill="white"/>
<path d="M18.881 29.1068C18.7565 29.1097 18.6442 29.0171 18.6457 28.8837C18.651 28.6138 19.0913 28.5856 19.1141 28.8825C19.1231 29.0048 19.0136 29.1065 18.881 29.1068Z" fill="white"/>
<path d="M12.3816 22.5456C12.3923 22.6514 12.2915 22.7643 12.1545 22.7646C11.8425 22.7567 11.8446 22.3325 12.1545 22.3263C12.2846 22.3275 12.3816 22.4212 12.3816 22.5456Z" fill="white"/>
<path d="M12.3809 27.6236C12.3803 27.7444 12.2773 27.837 12.1463 27.8344C11.8349 27.8173 11.8523 27.409 12.1553 27.4028C12.2836 27.4049 12.3812 27.5007 12.3809 27.6236Z" fill="white"/>
<path d="M20.4293 11.147C20.4268 11.2546 20.337 11.3381 20.2237 11.3378C20.1098 11.3375 20.0112 11.2432 20.014 11.1379C20.0171 11.0315 20.1185 10.9433 20.2331 10.9477C20.346 10.9521 20.4318 11.0394 20.4293 11.147Z" fill="white"/>
<path d="M8.31998 27.6265C8.31935 27.7232 8.22262 27.8099 8.11591 27.8096C7.85474 27.7976 7.84912 27.4463 8.11435 27.4383C8.23136 27.4374 8.3206 27.5192 8.31998 27.6265Z" fill="white"/>
<path d="M10.9836 23.8147C10.9836 23.9108 10.9002 23.991 10.8004 23.991C10.703 23.991 10.6154 23.9073 10.6154 23.8147C10.6154 23.7212 10.7018 23.6394 10.8004 23.6394C10.9027 23.6394 10.9836 23.7168 10.9836 23.8147Z" fill="white"/>
<path d="M29.6428 14.7758C29.7439 14.7758 29.8278 14.8517 29.8303 14.9457C29.8328 15.0413 29.7423 15.1262 29.64 15.1245C29.5405 15.1227 29.4578 15.0422 29.459 14.9478C29.4603 14.852 29.5414 14.7758 29.6428 14.7758Z" fill="white"/>
<path d="M24.2553 10.9718C24.3602 10.9709 24.4422 11.0444 24.4438 11.1406C24.4454 11.2323 24.3586 11.3155 24.26 11.3169C24.1639 11.3184 24.0722 11.2346 24.0709 11.1447C24.0697 11.0521 24.1539 10.9724 24.2553 10.9718Z" fill="white"/>
<path d="M10.9712 18.7512C10.9709 18.8409 10.8966 18.9114 10.8021 18.912C10.7056 18.9126 10.6239 18.8344 10.6273 18.7448C10.6308 18.6624 10.7188 18.5822 10.8036 18.5845C10.8926 18.5869 10.9715 18.6657 10.9712 18.7512Z" fill="white"/>
<path d="M9.60743 21.2863C9.60524 21.3636 9.53504 21.4309 9.4564 21.4315C9.37559 21.4321 9.29914 21.356 9.30288 21.2781C9.30632 21.2028 9.37964 21.132 9.45515 21.1317C9.53566 21.1311 9.60992 21.2061 9.60743 21.2863Z" fill="white"/>
<path d="M8.26081 28.8872C8.26019 28.9587 8.1878 29.0248 8.11291 29.0228C8.03989 29.0207 7.96594 28.9469 7.97031 28.8805C7.99028 28.7079 8.25301 28.712 8.26081 28.8872Z" fill="white"/>
<path d="M14.9878 28.8862C14.9878 28.9594 14.9189 29.0249 14.8437 29.0232C14.7669 29.0214 14.702 28.9553 14.7045 28.8818C14.7151 28.7074 14.9825 28.7124 14.9878 28.8862Z" fill="white"/>
<path d="M9.45153 24.9551C9.52423 24.9533 9.58976 25.0124 9.59256 25.0824C9.59569 25.1553 9.52797 25.2235 9.45309 25.2223C9.27929 25.2135 9.27336 24.9645 9.45153 24.9551Z" fill="white"/>
<path d="M13.6283 27.6235C13.6293 27.6879 13.565 27.7443 13.4929 27.7435C13.4258 27.7426 13.3625 27.6879 13.3603 27.6291C13.3575 27.5603 13.4243 27.4956 13.4973 27.4971C13.5678 27.4986 13.6274 27.5559 13.6283 27.6235Z" fill="white"/>
<path d="M9.45196 28.7746C9.50438 28.7722 9.56366 28.8269 9.56709 28.881C9.57084 28.9365 9.52154 28.9909 9.46319 28.9959C9.40328 29.0012 9.34181 28.9456 9.34181 28.8869C9.34181 28.8348 9.39891 28.7769 9.45196 28.7746Z" fill="white"/>
<path d="M28.4051 25.0871C28.4051 25.2311 28.1771 25.2285 28.1796 25.0856C28.1852 24.9404 28.4017 24.9416 28.4051 25.0871Z" fill="white"/>
<path d="M20.3287 28.885C20.3315 29.0161 20.123 29.0206 20.1193 28.89C20.1165 28.7583 20.3243 28.7545 20.3287 28.885Z" fill="white"/>
<path d="M8.12083 26.2618C8.24845 26.268 8.23409 26.4409 8.11271 26.4411C7.99102 26.4276 7.99196 26.2627 8.12083 26.2618Z" fill="white"/>
<path d="M10.8049 22.4648C10.9044 22.4772 10.9107 22.6265 10.7962 22.6209C10.7484 22.6191 10.7119 22.5798 10.7181 22.5365C10.7231 22.5016 10.7706 22.4625 10.8049 22.4648Z" fill="white"/>
<path d="M24.2572 27.6963C24.142 27.7007 24.1561 27.5472 24.259 27.5493C24.3611 27.5493 24.3733 27.7039 24.2572 27.6963Z" fill="white"/>
<path d="M14.8508 13.5976C14.8907 13.5996 14.9307 13.6373 14.9313 13.6734C14.9319 13.7108 14.882 13.7552 14.8417 13.7528C14.7391 13.7466 14.7416 13.5908 14.8508 13.5976Z" fill="white"/>
<path d="M6.84587 28.8813C6.84931 28.9862 6.69423 28.9921 6.68175 28.8916C6.68268 28.7928 6.83215 28.774 6.84587 28.8813Z" fill="white"/>
<path d="M13.4928 14.8706C13.5396 14.8695 13.5808 14.9071 13.5796 14.9494C13.5786 14.9844 13.5368 15.0241 13.4991 15.0259C13.3933 15.0273 13.3846 14.8754 13.4928 14.8706Z" fill="white"/>
<path d="M9.52971 22.5419C9.53502 22.6424 9.38337 22.6471 9.37869 22.5486C9.37713 22.5119 9.41488 22.4684 9.45108 22.466C9.48759 22.4634 9.52784 22.5025 9.52971 22.5419Z" fill="white"/>
<path d="M14.8501 27.6912C14.8167 27.6927 14.7708 27.6553 14.7752 27.6256C14.7802 27.5915 14.8017 27.5665 14.8407 27.5621C14.9306 27.5571 14.9374 27.6818 14.8501 27.6912Z" fill="white"/>
<path d="M6.76637 27.6916C6.67931 27.6858 6.67276 27.5676 6.76419 27.562C6.8528 27.5614 6.8553 27.6828 6.76637 27.6916Z" fill="white"/>
<path d="M18.9298 11.1381C18.932 11.199 18.8364 11.2057 18.8291 11.1469C18.8235 11.1144 18.8511 11.0996 18.8797 11.0976C18.9051 11.0958 18.9239 11.1124 18.9298 11.1381Z" fill="white"/>
<path d="M29.6913 23.8143C29.6894 23.871 29.5924 23.8695 29.5987 23.8122C29.5997 23.7534 29.6891 23.7578 29.6913 23.8143Z" fill="white"/>
<path d="M12.159 16.1644C12.2173 16.1715 12.2048 16.2634 12.1455 16.2504C12.0834 16.2436 12.0994 16.1591 12.159 16.1644Z" fill="white"/>
<path d="M26.9406 26.3057C26.9977 26.3074 27.0055 26.3908 26.9469 26.3937C26.88 26.3996 26.8753 26.3145 26.9406 26.3057Z" fill="white"/>
<path d="M10.803 28.8445C10.8626 28.8436 10.8544 28.9394 10.7958 28.9294C10.7669 28.9261 10.7534 28.9099 10.7541 28.883C10.755 28.8528 10.7773 28.8463 10.803 28.8445Z" fill="white"/>
<path d="M9.45078 19.9678C9.50882 19.9637 9.51667 20.0506 9.458 20.0529C9.40718 20.0591 9.40216 19.974 9.45078 19.9678Z" fill="white"/>
<path d="M29.0632 18.6373C29.0616 18.655 29.0601 18.6726 29.0588 18.6905C29.0566 18.6955 29.0548 18.7002 29.0526 18.7052C29.0504 18.7002 29.0485 18.6955 29.0463 18.6905C29.0454 18.6723 29.0437 18.6543 29.0424 18.6361C29.049 18.6381 29.0563 18.6385 29.0632 18.6373Z" fill="white"/>
<path d="M29.0608 18.8162C29.0608 18.8291 29.0608 18.8419 29.0605 18.8545C29.055 18.8548 29.0491 18.8548 29.0437 18.8551C29.0431 18.8419 29.0428 18.8291 29.0422 18.8159C29.0483 18.8062 29.0547 18.807 29.0608 18.8162Z" fill="white"/>
<path d="M29.0608 18.8162L29.0519 18.814L29.0422 18.8159C29.0435 18.7744 29.0444 18.7332 29.0457 18.6918C29.0497 18.6923 29.0541 18.6923 29.0582 18.6918C29.0594 18.7332 29.0595 18.7747 29.0608 18.8162Z" fill="white"/>
<path d="M20.904 13.8766C20.8918 13.8829 20.8797 13.8891 20.8675 13.8952C20.8618 13.8728 20.8645 13.8522 20.8924 13.8497C20.9052 13.8485 20.9088 13.864 20.904 13.8766Z" fill="white"/>
<path d="M76.0482 31.4706C75.0188 31.4706 74.021 31.3679 73.0546 31.1626C72.1093 30.9573 71.3005 30.6802 70.6283 30.3312L71.0379 26.636C71.7522 27.0671 72.54 27.4161 73.4013 27.683C74.2626 27.9498 75.0713 28.0833 75.8276 28.0833C76.4998 28.0833 77.088 27.9601 77.5922 27.7138C78.0964 27.4674 78.3485 27.0876 78.3485 26.5744C78.3485 26.0817 78.0754 25.7225 77.5292 25.4966C77.004 25.2708 76.1847 24.9526 75.0713 24.542C74.6512 24.3778 74.1785 24.193 73.6534 23.9877C73.1492 23.7825 72.666 23.5156 72.2038 23.1871C71.7417 22.8381 71.3636 22.3967 71.0695 21.863C70.7754 21.3087 70.6283 20.621 70.6283 19.7998C70.6283 18.6913 70.9119 17.7675 71.4791 17.0284C72.0673 16.2688 72.8656 15.694 73.8739 15.304C74.8823 14.9139 76.0167 14.7189 77.2771 14.7189C78.1384 14.7189 78.9787 14.801 79.798 14.9652C80.6383 15.1295 81.4365 15.345 82.1928 15.6119L81.5941 19.2763C80.9849 18.9273 80.2916 18.6502 79.5144 18.4449C78.7581 18.2191 78.0439 18.1062 77.3716 18.1062C76.7204 18.1062 76.1742 18.2191 75.7331 18.4449C75.3129 18.6502 75.1029 18.9787 75.1029 19.4303C75.1029 19.7998 75.2499 20.0975 75.544 20.3233C75.8381 20.5286 76.2373 20.7134 76.7414 20.8776C77.2456 21.0213 77.8023 21.2163 78.4115 21.4627C79.0207 21.6885 79.6614 21.9759 80.3337 22.3249C81.0269 22.6739 81.6151 23.1666 82.0983 23.803C82.5814 24.4394 82.823 25.3119 82.823 26.4204C82.823 27.5906 82.5184 28.5555 81.9092 29.315C81.321 30.0541 80.5122 30.5981 79.4829 30.9471C78.4745 31.2961 77.3296 31.4706 76.0482 31.4706Z" fill="#1F1F23"/>
<path d="M86.1238 31.0087V8.5294H90.5668V17.4595C91.2391 16.4947 91.9953 15.7967 92.8356 15.3656C93.6759 14.9345 94.6317 14.7189 95.7031 14.7189C97.4467 14.7189 98.8122 15.2321 99.7995 16.2586C100.787 17.2645 101.281 18.6707 101.281 20.4773V31.0087H96.8375V21.1547C96.8375 20.3131 96.6274 19.6664 96.2073 19.2148C95.7871 18.7631 95.2199 18.5373 94.5057 18.5373C93.7074 18.5373 92.9512 18.8042 92.2369 19.3379C91.5437 19.8717 90.987 20.5594 90.5668 21.4011V31.0087H86.1238Z" fill="#1F1F23"/>
<path d="M110.082 31.4706C108.423 31.4706 107.089 30.7829 106.081 29.4074C105.093 28.0114 104.6 26.1022 104.6 23.6798C104.6 20.7647 105.356 18.5476 106.868 17.0284C108.381 15.4887 110.555 14.7189 113.391 14.7189C114.988 14.7189 116.857 14.9652 119 15.4579V31.0087H114.778L114.872 28.4836H114.746C113.654 30.4749 112.099 31.4706 110.082 31.4706ZM111.028 27.683C111.721 27.683 112.383 27.3237 113.013 26.6052C113.643 25.8867 114.21 25.0039 114.715 23.957V18.7836C114.378 18.681 114.032 18.6091 113.675 18.5681C113.318 18.527 112.992 18.5065 112.698 18.5065C110.156 18.5065 108.885 20.1693 108.885 23.4951C108.885 24.7884 109.074 25.8148 109.452 26.5744C109.83 27.3134 110.356 27.683 111.028 27.683Z" fill="#1F1F23"/>
<path d="M38.8438 31.0078L46.5324 10.4993H52.0153L59.7985 31.0078H55.0719L53.3703 26.3272H45.1144L43.5074 31.0078H38.8438ZM46.4379 22.5088H52.0153L49.1793 14.6565L46.4379 22.5088Z" fill="#595DD2"/>
<path d="M62.4678 31.0078V10.4993H67.0369V31.0078H62.4678Z" fill="#595DD2"/>
</svg>
