<svg width="226" height="226" viewBox="0 0 226 226" fill="none" xmlns="http://www.w3.org/2000/svg">
<g filter="url(#filter0_d_1413_2569)">
<rect x="73" y="61" width="80" height="80" rx="40" fill="url(#paint0_linear_1413_2569)" shape-rendering="crispEdges"/>
<rect x="71.5" y="59.5" width="83" height="83" rx="41.5" stroke="url(#paint1_linear_1413_2569)" stroke-width="3" stroke-linecap="round" stroke-linejoin="round" shape-rendering="crispEdges"/>
<path fill-rule="evenodd" clip-rule="evenodd" d="M107.684 84.1459L107.684 85.1193L103.427 85.1193C102.976 85.1193 102.617 85.4764 102.617 85.9219L102.617 91.4035C102.597 94.6694 99.894 97.3651 96.5936 97.3651L90.7894 97.3651C90.3382 97.3651 89.96 97.7222 89.96 98.1849L89.96 107.718C89.96 112.163 93.6195 115.768 98.0912 115.768L107.684 115.768L107.684 116.742C107.684 117.508 108.304 118.13 109.07 118.13C109.836 118.13 110.458 117.508 110.458 116.742L110.458 84.1459C110.458 83.3798 109.836 82.7596 109.07 82.7596C108.304 82.7596 107.684 83.3798 107.684 84.1459Z" fill="white"/>
<path fill-rule="evenodd" clip-rule="evenodd" d="M99.9822 91.1651C99.9956 89.921 99.9995 88.1911 99.9956 86.7242C99.9937 85.9715 99.0856 85.5895 98.5403 86.1117C97.5515 87.0525 96.1729 88.3639 94.7886 89.6829C93.4004 91.0039 92.0065 92.3325 90.9908 93.2983C90.4302 93.832 90.8161 94.7651 91.5937 94.7651L96.3457 94.7651C98.3406 94.7651 99.9822 93.1389 99.9822 91.1651Z" fill="white"/>
<path d="M128.192 112.507C128.046 112.444 127.889 112.399 127.759 112.312C127.479 112.124 127.346 111.844 127.331 111.508C127.33 111.473 127.33 111.437 127.33 111.402C127.33 104.144 127.33 96.8861 127.328 89.6283C127.328 89.2647 127.443 88.9595 127.734 88.7385C128.052 88.4963 128.41 88.4552 128.773 88.6165C129.157 88.7861 129.354 89.0989 129.385 89.5165C129.388 89.5596 129.387 89.6033 129.387 89.647C129.387 96.897 129.387 104.146 129.388 111.396C129.388 111.862 129.206 112.213 128.779 112.419C128.693 112.461 128.597 112.484 128.507 112.516L128.192 112.507H128.192Z" fill="white" fill-opacity="0.4"/>
<path d="M121.383 112.518C121.148 112.457 120.926 112.373 120.757 112.187C120.585 111.999 120.49 111.78 120.481 111.525C120.48 111.477 120.479 111.43 120.479 111.383C120.479 104.137 120.48 96.8922 120.477 89.6467C120.477 89.26 120.594 88.9394 120.914 88.7145C121.23 88.4929 121.576 88.4614 121.926 88.6188C122.285 88.78 122.485 89.0685 122.526 89.463C122.533 89.5298 122.533 89.5972 122.533 89.6641C122.533 96.9012 122.533 104.139 122.535 111.376C122.535 111.851 122.361 112.211 121.923 112.42C121.836 112.462 121.738 112.483 121.645 112.513L121.383 112.52V112.518Z" fill="white" fill-opacity="0.4"/>
<path d="M136.238 103.259C136.238 103.496 136.186 103.731 136.08 103.943C136.053 103.996 136.023 104.047 135.987 104.092C135.728 104.426 135.282 104.538 134.887 104.407C134.483 104.274 134.209 103.911 134.183 103.475C134.181 103.44 134.181 103.404 134.181 103.368C134.181 101.466 134.181 99.5638 134.181 97.6615C134.181 97.1501 134.473 96.7447 134.928 96.6169C135.491 96.4595 136.068 96.7961 136.21 97.3653C136.21 97.3653 136.21 97.366 136.21 97.3666C136.227 97.4373 136.238 97.5092 136.238 97.5818V103.26V103.259Z" fill="white" fill-opacity="0.4"/>
<path d="M119.108 100.524C119.108 103.015 119.108 105.507 119.108 107.999C119.108 108.478 118.863 108.854 118.452 109.013C117.787 109.269 117.078 108.8 117.051 108.089C117.05 108.057 117.05 108.026 117.05 107.994C117.05 103.011 117.05 98.0278 117.049 93.0444C117.049 92.648 117.193 92.3268 117.532 92.1122C118.195 91.6914 119.062 92.1443 119.106 92.9313C119.109 92.9866 119.108 93.0418 119.108 93.0971C119.108 95.5731 119.108 98.049 119.108 100.524V100.524Z" fill="white" fill-opacity="0.4"/>
<path d="M132.81 100.519C132.81 102.438 132.808 104.357 132.811 106.275C132.812 106.729 132.63 107.072 132.22 107.271C131.567 107.59 130.796 107.125 130.761 106.398C130.758 106.351 130.758 106.304 130.758 106.256C130.758 102.431 130.759 98.606 130.756 94.7809C130.756 94.3646 130.898 94.0325 131.258 93.8127C131.912 93.4125 132.768 93.8686 132.806 94.6344C132.809 94.6974 132.809 94.761 132.809 94.824C132.809 96.723 132.809 98.6215 132.809 100.521L132.81 100.519Z" fill="white" fill-opacity="0.4"/>
<path d="M125.957 100.511C125.957 102.162 125.959 103.812 125.957 105.463C125.956 106.06 125.501 106.519 124.924 106.516C124.412 106.514 123.974 106.124 123.914 105.614C123.906 105.552 123.902 105.488 123.902 105.425C123.902 102.152 123.902 98.8782 123.901 95.6049C123.901 95.2522 124.018 94.9522 124.305 94.7383C124.642 94.4871 125.012 94.4485 125.387 94.6342C125.758 94.818 125.954 95.1328 125.955 95.5484C125.959 97.2027 125.957 98.8577 125.957 100.512L125.957 100.511Z" fill="white" fill-opacity="0.4"/>
<path d="M115.678 100.52C115.678 101.538 115.68 102.557 115.678 103.575C115.676 104.096 115.349 104.504 114.86 104.609C114.265 104.735 113.682 104.302 113.632 103.697C113.628 103.638 113.625 103.578 113.625 103.519C113.624 101.518 113.626 99.5162 113.623 97.5144C113.623 97.1282 113.748 96.8083 114.073 96.5886C114.405 96.365 114.761 96.3406 115.117 96.5211C115.468 96.6997 115.67 96.9965 115.673 97.3929C115.682 98.435 115.676 99.4777 115.676 100.52H115.678Z" fill="white" fill-opacity="0.4"/>
</g>
<defs>
<filter id="filter0_d_1413_2569" x="0" y="0" width="226" height="226" filterUnits="userSpaceOnUse" color-interpolation-filters="sRGB">
<feFlood flood-opacity="0" result="BackgroundImageFix"/>
<feColorMatrix in="SourceAlpha" type="matrix" values="0 0 0 0 0 0 0 0 0 0 0 0 0 0 0 0 0 0 127 0" result="hardAlpha"/>
<feOffset dy="12"/>
<feGaussianBlur stdDeviation="35"/>
<feComposite in2="hardAlpha" operator="out"/>
<feColorMatrix type="matrix" values="0 0 0 0 0.34902 0 0 0 0 0.364706 0 0 0 0 0.823529 0 0 0 0.57 0"/>
<feBlend mode="normal" in2="BackgroundImageFix" result="effect1_dropShadow_1413_2569"/>
<feBlend mode="normal" in="SourceGraphic" in2="effect1_dropShadow_1413_2569" result="shape"/>
</filter>
<linearGradient id="paint0_linear_1413_2569" x1="113" y1="61" x2="113" y2="146" gradientUnits="userSpaceOnUse">
<stop stop-color="#6569DB"/>
<stop offset="1" stop-color="#5054BD"/>
</linearGradient>
<linearGradient id="paint1_linear_1413_2569" x1="113" y1="61" x2="113" y2="141" gradientUnits="userSpaceOnUse">
<stop stop-color="white" stop-opacity="0.09"/>
<stop offset="1" stop-color="white" stop-opacity="0.05"/>
</linearGradient>
</defs>
</svg>
