<svg width="80" height="81" viewBox="0 0 80 81" fill="none" xmlns="http://www.w3.org/2000/svg">
<path d="M40.2095 63.9699C36.8575 63.9629 33.5401 63.2682 30.4462 61.9253C27.3523 60.5823 24.5426 58.6179 22.1778 56.1436C19.813 53.6693 17.9393 50.7343 16.6638 47.5056C15.3882 44.2769 14.7358 40.8179 14.7437 37.3266C14.7454 36.6646 14.9991 36.0306 15.449 35.5633C15.8989 35.0956 16.5083 34.8333 17.1437 34.8333C17.4589 34.8343 17.7709 34.8996 18.0617 35.0263C18.3526 35.1526 18.6167 35.3373 18.839 35.5703C19.0612 35.8029 19.2373 36.0789 19.3571 36.3826C19.4769 36.6863 19.5382 37.0116 19.5374 37.3399C19.5374 43.0483 21.7143 48.5229 25.5893 52.5592C29.4642 56.5956 34.7199 58.8633 40.1999 58.8633C45.6799 58.8633 50.9353 56.5956 54.8102 52.5592C58.685 48.5229 60.8623 43.0483 60.8623 37.3399C60.8614 37.0116 60.9225 36.6863 61.0425 36.3826C61.1622 36.0789 61.3382 35.8029 61.5606 35.5703C61.783 35.3373 62.047 35.1526 62.3378 35.0263C62.6287 34.8996 62.9407 34.8343 63.2556 34.8333C63.8911 34.8333 64.5007 35.0956 64.9506 35.5633C65.4006 36.0306 65.654 36.6646 65.6556 37.3266C65.6636 40.8173 65.0114 44.2756 63.7366 47.5039C62.4614 50.7323 60.5881 53.6673 58.2239 56.1413C55.8598 58.6153 53.0511 60.5803 49.9577 61.9233C46.8646 63.2666 43.5478 63.9619 40.1967 63.9699H40.2095Z" fill="white"/>
<path d="M40.2064 73.4673C39.5696 73.4673 38.9594 73.204 38.5091 72.7353C38.0592 72.2663 37.8064 71.6306 37.8064 70.9673V61.4673C37.8064 60.8043 38.0592 60.1686 38.5091 59.6996C38.9594 59.231 39.5696 58.9673 40.2064 58.9673C40.8429 58.9673 41.4531 59.231 41.9034 59.6996C42.3533 60.1686 42.6064 60.8043 42.6064 61.4673V70.961C42.607 71.2896 42.5456 71.6156 42.4253 71.9196C42.3053 72.2236 42.1286 72.5 41.9056 72.733C41.6826 72.9656 41.4179 73.1503 41.1261 73.2766C40.8346 73.4026 40.5219 73.4673 40.2064 73.4673Z" fill="white"/>
<path d="M40.209 51.9896C36.4605 51.9796 32.8688 50.4213 30.2225 47.6556C27.5761 44.8903 26.0912 41.1443 26.0938 37.2396V23.1627C26.0938 19.2649 27.5802 15.5268 30.2262 12.7707C32.8721 10.0145 36.4608 8.46606 40.2026 8.46606C43.9443 8.46606 47.5331 10.0145 50.1789 12.7707C52.825 15.5268 54.3114 19.2649 54.3114 23.1627V37.2396C54.3174 41.1429 52.8352 44.8893 50.191 47.6549C47.5466 50.4206 43.9562 51.9796 40.209 51.9896ZM40.209 13.4661C37.7408 13.4687 35.3747 14.4912 33.6294 16.3091C31.8843 18.127 30.9027 20.5918 30.9002 23.1627V37.2496C30.9002 38.5229 31.141 39.7836 31.6088 40.9603C32.0766 42.1366 32.7623 43.2056 33.6266 44.1059C34.4912 45.0066 35.5174 45.7206 36.6467 46.2079C37.776 46.6953 38.9866 46.9463 40.209 46.9463C41.4314 46.9463 42.6419 46.6953 43.7712 46.2079C44.9008 45.7206 45.927 45.0066 46.7914 44.1059C47.6557 43.2056 48.3414 42.1366 48.8093 40.9603C49.2771 39.7836 49.5178 38.5229 49.5178 37.2496V23.1661C49.5162 20.5946 48.535 18.1289 46.7898 16.3103C45.0445 14.4917 42.6778 13.4687 40.209 13.4661Z" fill="white"/>
<path d="M51.9114 37.7082H43.2938C42.6573 37.7082 42.0468 37.4449 41.5968 36.9759C41.1466 36.5072 40.8938 35.8712 40.8938 35.2082C40.8938 34.5452 41.1466 33.9093 41.5968 33.4404C42.0468 32.9716 42.6573 32.7082 43.2938 32.7082H51.9114C52.5479 32.7082 53.1584 32.9716 53.6084 33.4404C54.0586 33.9093 54.3114 34.5452 54.3114 35.2082C54.3114 35.8712 54.0586 36.5072 53.6084 36.9759C53.1584 37.4449 52.5479 37.7082 51.9114 37.7082ZM51.9114 27.6848H46.1738C45.5373 27.6848 44.9268 27.4214 44.4768 26.9526C44.0266 26.4837 43.7738 25.8478 43.7738 25.1848C43.7738 24.5218 44.0266 23.886 44.4768 23.4171C44.9268 22.9483 45.5373 22.6848 46.1738 22.6848H51.9114C52.5479 22.6848 53.1584 22.9483 53.6084 23.4171C54.0586 23.886 54.3114 24.5218 54.3114 25.1848C54.3114 25.8478 54.0586 26.4837 53.6084 26.9526C53.1584 27.4214 52.5479 27.6848 51.9114 27.6848Z" fill="white"/>
</svg>
