<svg width="80" height="80" viewBox="0 0 80 80" fill="none" xmlns="http://www.w3.org/2000/svg">
<path fill-rule="evenodd" clip-rule="evenodd" d="M25.608 15.8333C23.0187 15.8333 20.918 17.934 20.918 20.5233V59.4766C20.918 62.0659 23.0187 64.1666 25.608 64.1666C28.1973 64.1666 30.298 62.0659 30.298 59.4766V20.5233C30.298 17.934 28.1973 15.8333 25.608 15.8333ZM15.918 20.5233C15.918 15.1726 20.2573 10.8333 25.608 10.8333C30.9587 10.8333 35.298 15.1726 35.298 20.5233V59.4766C35.298 64.8273 30.9587 69.1666 25.608 69.1666C20.2573 69.1666 15.918 64.8273 15.918 59.4766V20.5233Z" fill="white"/>
<path fill-rule="evenodd" clip-rule="evenodd" d="M56.0572 15.8333C53.4679 15.8333 51.3672 17.934 51.3672 20.5233V59.4766C51.3672 62.0659 53.4679 64.1666 56.0572 64.1666C58.6462 64.1666 60.7472 62.0659 60.7472 59.4766V20.5233C60.7472 17.934 58.6462 15.8333 56.0572 15.8333ZM46.3672 20.5233C46.3672 15.1726 50.7062 10.8333 56.0572 10.8333C61.4079 10.8333 65.7472 15.1726 65.7472 20.5233V59.4766C65.7472 64.8273 61.4079 69.1666 56.0572 69.1666C50.7062 69.1666 46.3672 64.8273 46.3672 59.4766V20.5233Z" fill="white"/>
</svg>
