<svg width="110" height="36" viewBox="0 0 110 36" fill="none" xmlns="http://www.w3.org/2000/svg">
<path d="M39.4089 31.037C39.6552 30.3814 40.382 30.0681 41.0439 30.2901C41.6882 30.5061 42.3464 30.6651 43.0364 30.6651C43.9878 30.6651 44.8032 30.4877 45.4828 30.1329C46.8003 29.5224 47.2883 27.9705 47.8476 26.7351L41.2299 9.01669C40.9992 8.39909 41.4539 7.74027 42.1109 7.74027H46.0505C46.5885 7.74027 47.0666 8.08464 47.2389 8.5963L50.7016 18.8752L54.1643 8.5963C54.3367 8.08464 54.8148 7.74027 55.3527 7.74027H59.0412C59.7 7.74027 60.1548 8.40241 59.9207 9.02064L52.4548 28.7411C51.585 30.979 50.4434 32.6983 49.03 33.8991C47.6165 35.1273 45.7546 35.7413 43.4441 35.7413C42.0822 35.7413 40.7499 35.4913 39.471 35.0561C38.6874 34.7895 38.3303 33.908 38.6223 33.1307L39.4089 31.037Z" fill="#1B9684"/>
<path d="M33.2259 25.0567C31.7867 26.5017 29.9594 26.9078 27.9046 26.8989C24.253 26.883 21.2171 25.0863 20.0156 21.618C19.1084 18.9993 19.0892 15.8419 20.0156 13.2259C21.2329 9.78852 24.2499 7.74027 27.9255 7.74027C29.9 7.74027 31.7444 8.02097 33.2259 9.33682V8.99988C33.2259 8.30422 33.7876 7.74027 34.4804 7.74027H38.9466V26.8989H34.4804C33.7876 26.8989 33.2259 26.3349 33.2259 25.6393V25.0567ZM32.4512 20.9221C33.1851 19.9669 33.5521 18.766 33.5521 17.3196C33.5521 15.6821 33.1444 14.4403 32.3289 13.5943C30.7329 11.8814 27.676 11.8539 26.213 13.758C24.7218 15.716 24.76 19.0187 26.2538 20.963C27.7494 22.8539 30.9832 22.8327 32.4512 20.9221Z" fill="#1B9684"/>
<path d="M9.29783 0.371582H4.01623C2.61101 0.371582 1.90841 0.371582 1.37169 0.64616C0.899575 0.887685 0.515735 1.27308 0.275182 1.7471C0.00170898 2.28598 0.00170898 2.99143 0.00170898 4.40232V5.28404H8.80856C10.1133 5.28404 11.119 5.62519 11.8257 6.30747C11.9175 6.38935 12.0035 6.47421 12.0837 6.56205C12.6456 7.17696 12.9266 7.93814 12.9266 8.84558C12.9266 8.91381 12.9253 8.98134 12.9226 9.04819C12.8828 10.0508 12.5443 10.8976 11.9073 11.5884C11.8257 11.6805 11.7384 11.7668 11.6454 11.8474C10.9943 12.4116 10.0623 12.6937 8.84933 12.6937H0.00170898V22.8681C0.00170898 24.279 0.00170898 24.9845 0.275182 25.5234C0.515735 25.9974 0.899575 26.3828 1.37169 26.6243C1.90841 26.8989 2.61101 26.8989 4.01623 26.8989H5.44954V17.4015H9.42015C10.7792 17.4015 12.016 17.2104 13.1304 16.8283C14.2721 16.4463 15.2506 15.8868 16.0661 15.1499C16.8815 14.3857 17.5067 13.4442 17.9416 12.3252C18.4037 11.179 18.6347 9.86901 18.6347 8.39527C18.6347 7.16715 18.4173 6.06185 17.9824 5.07936C17.5475 4.09687 16.9223 3.26448 16.1068 2.58219C15.2914 1.87261 14.2993 1.32678 13.1304 0.944703C11.9888 0.562622 10.7113 0.371582 9.29783 0.371582Z" fill="#1B9684"/>
<path d="M91.1885 9.0552C90.9242 8.43207 91.3796 7.74036 92.0541 7.74036H96.0466C96.5665 7.74036 97.0324 8.06227 97.2183 8.54974L100.702 17.6881L104.146 8.55398C104.331 8.06429 104.798 7.74036 105.319 7.74036H109.058C109.734 7.74036 110.19 8.4348 109.922 9.05831L102.537 26.3008C102.338 26.7631 101.885 27.0627 101.384 27.0627H99.6554C99.1525 27.0627 98.6982 26.7612 98.5011 26.2966L91.1885 9.0552Z" fill="#334055"/>
<path d="M81.1587 22.3549C81.8654 22.3549 82.477 22.2185 82.9934 21.9456C83.5371 21.6727 83.9856 21.3179 84.3389 20.8812C84.7195 20.4173 84.9913 19.8851 85.1544 19.2847C85.3446 18.657 85.4398 18.002 85.4398 17.3197C85.4398 16.6374 85.3446 15.996 85.1544 15.3956C84.9913 14.7679 84.7195 14.2357 84.3389 13.7991C83.9856 13.3351 83.5371 12.9667 82.9934 12.6938C82.477 12.4209 81.8654 12.2844 81.1587 12.2844C80.452 12.2844 79.8268 12.4209 79.2831 12.6938C78.7667 12.9667 78.3182 13.3351 77.9376 13.7991C77.5843 14.2357 77.3125 14.7679 77.1222 15.3956C76.9319 15.996 76.8368 16.6374 76.8368 17.3197C76.8368 18.002 76.9319 18.657 77.1222 19.2847C77.3125 19.8851 77.5843 20.4173 77.9376 20.8812C78.3182 21.3179 78.7667 21.6727 79.2831 21.9456C79.8268 22.2185 80.452 22.3549 81.1587 22.3549ZM81.1587 27.513C79.6093 27.513 78.2095 27.2538 76.9591 26.7352C75.7359 26.1894 74.6759 25.4662 73.7789 24.5656C72.9091 23.6376 72.2431 22.5596 71.781 21.3315C71.3189 20.0761 71.0879 18.7388 71.0879 17.3197C71.0879 15.9005 71.3189 14.5769 71.781 13.3488C72.2431 12.1206 72.9091 11.0426 73.7789 10.1147C74.6759 9.18682 75.7359 8.46359 76.9591 7.94505C78.2095 7.39923 79.6093 7.12631 81.1587 7.12631C82.708 7.12631 84.0943 7.39923 85.3175 7.94505C86.5678 8.46359 87.6279 9.18682 88.4977 10.1147C89.3947 11.0426 90.0743 12.1206 90.5363 13.3488C90.9984 14.5769 91.2295 15.9005 91.2295 17.3197C91.2295 18.7388 90.9984 20.0761 90.5363 21.3315C90.0743 22.5596 89.3947 23.6376 88.4977 24.5656C87.6279 25.4662 86.5678 26.1894 85.3175 26.7352C84.0943 27.2538 82.708 27.513 81.1587 27.513Z" fill="#334055"/>
<path d="M62.5012 2.77751C62.5012 1.38619 63.6246 0.258301 65.0103 0.258301H68.5355V26.899H65.0103C63.6246 26.899 62.5012 25.7711 62.5012 24.3798V2.77751Z" fill="#334055"/>
<ellipse cx="9.05494" cy="9.00552" rx="1.72803" ry="1.73501" fill="#FA8231"/>
</svg>
