<svg width="80" height="80" viewBox="0 0 80 80" fill="none" xmlns="http://www.w3.org/2000/svg">
<g id="Play">
<path id="Vector" fill-rule="evenodd" clip-rule="evenodd" d="M21.8817 23.4879C20.7201 33.8113 20.6914 44.8939 21.884 56.4946C22.3049 59.8169 23.8724 62.0419 25.9086 63.1876C27.9612 64.3426 30.876 64.6159 34.3747 63.2393C43.6077 59.5176 52.013 54.0383 58.735 47.9516C61.495 45.4116 62.6793 42.5749 62.6653 39.9306C62.6513 37.2806 61.4317 34.4903 58.742 32.0546L58.7317 32.0453C51.644 25.5547 43.4827 20.4912 34.3527 16.7517L34.3298 16.7424C31.2578 15.4487 28.3455 15.6111 26.1707 16.7526C24.0372 17.8725 22.3337 20.0778 21.8817 23.4879ZM36.2587 12.1292C32.0041 10.3412 27.5146 10.4003 23.8469 12.3254C20.139 14.2716 17.5601 17.9761 16.9212 22.8606L16.9158 22.9049C15.7075 33.6269 15.683 45.0873 16.9132 57.0346L16.9192 57.0876C17.4999 61.7446 19.8246 65.5013 23.4565 67.5449C27.0756 69.5816 31.6093 69.7036 36.217 67.8876L36.2343 67.8806C46.0547 63.9236 54.9637 58.1136 62.0983 51.6513L62.112 51.6389C65.7473 48.2969 67.6877 44.1696 67.6653 39.9043C67.6427 35.6449 65.6643 31.5802 62.1037 28.3534C54.5553 21.4421 45.889 16.0751 36.2587 12.1292Z" fill="white"/>
</g>
</svg>
