<svg width="48" height="48" viewBox="0 0 48 48" fill="none" xmlns="http://www.w3.org/2000/svg">
<path fill-rule="evenodd" clip-rule="evenodd" d="M29.2293 7.14637L29.2293 8.11981L33.486 8.11981C33.9372 8.11981 34.2962 8.47693 34.2962 8.92237L34.2962 14.404C34.3154 17.6699 37.0188 20.3656 40.3193 20.3656L46.1234 20.3656C46.5746 20.3656 46.9529 20.7227 46.9529 21.1854L46.9529 30.7182C46.9529 35.163 43.2934 38.7688 38.8217 38.7688L29.2293 38.7688L29.2293 39.7422C29.2293 40.5083 28.6092 41.1304 27.8431 41.1304C27.077 41.1304 26.4549 40.5083 26.4549 39.7422L26.4549 7.14637C26.4549 6.38029 27.077 5.76013 27.8431 5.76013C28.6092 5.76013 29.2293 6.38029 29.2293 7.14637Z" fill="white" fill-opacity="0.4"/>
<path fill-rule="evenodd" clip-rule="evenodd" d="M36.9306 14.1654C36.9172 12.9212 36.9134 11.1913 36.9172 9.72442C36.9191 8.97178 37.8273 8.5897 38.3726 9.11194C39.3614 10.0527 40.7399 11.3641 42.1242 12.6831C43.5124 14.0041 44.9063 15.3327 45.922 16.2985C46.4826 16.8323 46.0967 17.7654 45.3191 17.7654L40.5671 17.7654C38.5722 17.7654 36.9306 16.1391 36.9306 14.1654Z" fill="white" fill-opacity="0.4"/>
<path d="M15.5287 35.5065C15.3829 35.4442 15.2255 35.3986 15.0964 35.3119C14.8163 35.1243 14.6826 34.8442 14.6679 34.5082C14.6666 34.4728 14.6672 34.4369 14.6672 34.4015C14.6672 27.1438 14.6672 19.8861 14.6653 12.6283C14.6653 12.2647 14.7796 11.9595 15.0707 11.7385C15.3893 11.4963 15.7465 11.4552 16.1101 11.6165C16.4937 11.7861 16.6909 12.0989 16.7218 12.5165C16.725 12.5596 16.7243 12.6033 16.7243 12.647C16.7243 19.897 16.7243 27.1464 16.725 34.3964C16.725 34.8615 16.5425 35.2129 16.1159 35.4192C16.0298 35.4609 15.9341 35.484 15.8435 35.5162L15.5294 35.5065H15.5287Z" fill="white"/>
<path d="M8.72021 35.5187C8.48508 35.4577 8.26279 35.3735 8.09383 35.1872C7.92229 34.999 7.82657 34.7806 7.81822 34.5249C7.81693 34.4773 7.81629 34.4304 7.81629 34.3829C7.81629 27.1374 7.81693 19.8925 7.81372 12.647C7.81372 12.2602 7.93129 11.9396 8.25123 11.7148C8.56667 11.4931 8.91295 11.4616 9.26244 11.619C9.62157 11.7803 9.82201 12.0687 9.86249 12.4632C9.86955 12.53 9.8702 12.5975 9.8702 12.6643C9.8702 19.9015 9.8702 27.1393 9.87212 34.3765C9.87212 34.8512 9.69802 35.211 9.25987 35.4204C9.1725 35.4622 9.07485 35.4827 8.98169 35.5136L8.72021 35.52V35.5187Z" fill="white"/>
<path d="M23.5747 26.2591C23.5747 26.4962 23.5233 26.7313 23.4167 26.9433C23.3897 26.996 23.3601 27.0468 23.3241 27.0924C23.0652 27.4258 22.6194 27.5382 22.2236 27.4072C21.8202 27.2736 21.5458 26.9106 21.5195 26.475C21.5176 26.4397 21.5176 26.4037 21.5176 26.3683C21.5176 24.4661 21.5176 22.5638 21.5176 20.6615C21.5176 20.1501 21.8099 19.7447 22.2647 19.6169C22.8275 19.4595 23.4051 19.7961 23.5464 20.3653C23.5464 20.3653 23.5464 20.366 23.5464 20.3666C23.5638 20.4373 23.5747 20.5092 23.5747 20.5818V26.2598V26.2591Z" fill="white"/>
<path d="M6.44463 23.5235C6.44463 26.0149 6.44463 28.507 6.44463 30.9984C6.44463 31.4777 6.19986 31.8541 5.78869 32.0128C5.1244 32.2685 4.41514 31.8002 4.38816 31.0883C4.38687 31.0569 4.38687 31.0254 4.38687 30.9939C4.38687 26.0104 4.38687 21.0276 4.38623 16.0441C4.38623 15.6477 4.53014 15.3265 4.86871 15.1119C5.53236 14.6911 6.39902 15.1441 6.4427 15.9311C6.44592 15.9863 6.44463 16.0416 6.44463 16.0968C6.44463 18.5728 6.44463 21.0488 6.44463 23.5242V23.5235Z" fill="white"/>
<path d="M20.1467 23.5193C20.1467 25.4376 20.1448 27.3566 20.148 29.2749C20.1486 29.7285 19.9668 30.0716 19.5569 30.2714C18.9035 30.59 18.1326 30.1249 18.0979 29.3983C18.0953 29.3508 18.0947 29.3039 18.0947 29.2563C18.0947 25.4312 18.096 21.606 18.0928 17.7809C18.0928 17.3646 18.2354 17.0325 18.5945 16.8127C19.2492 16.4125 20.1049 16.8686 20.1428 17.6344C20.146 17.6974 20.146 17.761 20.146 17.824C20.146 19.723 20.146 21.6215 20.146 23.5205L20.1467 23.5193Z" fill="white"/>
<path d="M13.2943 23.5113C13.2943 25.1618 13.2956 26.8122 13.2936 28.4633C13.293 29.0601 12.8381 29.5195 12.2606 29.5163C11.7485 29.5137 11.311 29.1237 11.2506 28.6143C11.2429 28.552 11.2384 28.4884 11.2384 28.4254C11.2384 25.1521 11.2384 21.8782 11.2378 18.6049C11.2378 18.2522 11.3554 17.9522 11.6419 17.7383C11.9785 17.4871 12.3492 17.4485 12.7238 17.6342C13.0951 17.818 13.2904 18.1328 13.2917 18.5484C13.2956 20.2027 13.2936 21.8577 13.2936 23.512L13.2943 23.5113Z" fill="white"/>
<path d="M3.01515 23.5197C3.01515 24.538 3.01708 25.5569 3.01451 26.5752C3.01322 27.0962 2.68622 27.5042 2.19667 27.6089C1.60177 27.7355 1.01842 27.3025 0.968955 26.6966C0.964458 26.6375 0.961888 26.5784 0.961888 26.5193C0.961246 24.5181 0.962531 22.5162 0.959961 20.5144C0.959961 20.1282 1.08524 19.8083 1.41032 19.5886C1.74182 19.365 2.09838 19.3406 2.45365 19.5211C2.80443 19.6997 3.0068 19.9965 3.01001 20.3929C3.01901 21.435 3.01322 22.4777 3.01322 23.5197H3.01515Z" fill="white"/>
</svg>
