<svg width="48" height="42" viewBox="0 0 48 42" fill="none" xmlns="http://www.w3.org/2000/svg">
<path d="M22.7845 13.3389C22.7845 12.2924 22.7936 11.3005 22.7713 10.3096C22.7693 10.2013 22.6003 10.0434 22.4758 9.99783C20.6823 9.34601 19.3392 7.67394 19.243 5.97354C19.1195 3.78528 19.9829 2.13852 21.9505 1.14762C25.1155 -0.446505 28.9181 2.03933 28.7632 5.6041C28.6722 7.71443 27.58 9.16078 25.6266 9.93507C25.2987 10.0646 25.1954 10.2073 25.2035 10.5454C25.2258 11.4533 25.2116 12.3622 25.2116 13.3379H25.7794C28.5628 13.3379 31.3462 13.3369 34.1296 13.3379C37.9718 13.3399 41.0861 15.93 41.7693 19.7175C41.8736 20.2924 41.8726 20.8855 41.9211 21.4816C44.2157 22.0515 45.8543 23.3845 46.6964 25.6243C48.0234 29.1547 45.8695 33.2144 42.2045 34.0667C41.9009 34.1375 41.8311 34.2681 41.8098 34.5353C41.5426 37.845 38.9049 40.7084 35.6023 41.26C35.1398 41.3369 34.6651 41.3652 34.1954 41.3662C27.3483 41.3743 20.5001 41.3774 13.6529 41.3723C9.81082 41.3693 6.53349 38.3662 6.18733 34.5413C6.16001 34.2337 6.04158 34.1456 5.74705 34.0596C3.39482 33.3723 1.7764 31.8774 1.14685 29.4928C0.490975 27.01 1.15596 24.8298 3.01628 23.0555C3.86851 22.2428 4.91608 21.7488 6.03045 21.509C6.14887 20.681 6.20352 19.8733 6.38571 19.095C7.16203 15.7843 10.2056 13.3622 13.6023 13.3409C16.4525 13.3227 19.3037 13.3369 22.1549 13.3369C22.3402 13.3369 22.5244 13.3369 22.7835 13.3369L22.7845 13.3389ZM23.9303 38.9462C27.2015 38.9462 30.4728 38.9503 33.744 38.9422C34.2137 38.9411 34.6863 38.9067 35.1519 38.844C37.3877 38.5434 39.3523 36.4341 39.3776 34.183C39.4272 29.7994 39.3989 25.4158 39.4211 21.0322C39.4363 18.093 37.0679 15.764 34.079 15.7741C27.3604 15.7964 20.6408 15.7711 13.9222 15.7741C13.5041 15.7741 13.08 15.8288 12.6701 15.9128C10.4566 16.3632 8.53349 18.3794 8.56689 21.2478C8.61547 25.3116 8.57701 29.3754 8.58207 33.4391C8.58207 33.8582 8.57701 34.2903 8.66709 34.6952C9.26426 37.3774 11.246 38.9442 14.0132 38.9462C17.3179 38.9492 20.6236 38.9462 23.9282 38.9462H23.9303ZM24.0072 7.77718C25.3159 7.77617 26.3321 6.75694 26.33 5.44823C26.328 4.13143 25.2724 3.09904 23.9394 3.11119C22.6934 3.12232 21.6651 4.18609 21.6681 5.45937C21.6722 6.76605 22.6934 7.7792 24.0062 7.77718H24.0072ZM6.08511 31.5403V24.0849C4.52741 24.4169 3.30575 26.1628 3.35029 27.9503C3.39178 29.6001 4.69543 31.3247 6.08511 31.5393V31.5403ZM41.9141 24.0849V31.5383C43.2693 31.2833 44.5537 29.7478 44.6469 28.0545C44.746 26.2428 43.5112 24.4513 41.9141 24.0849Z" fill="white"/>
<path d="M29.3481 24.6749C29.3461 22.6769 30.9757 21.0504 32.9676 21.0636C34.9261 21.0767 36.5516 22.7123 36.5516 24.6708C36.5516 26.6729 34.9271 28.3115 32.9463 28.3075C30.9514 28.3034 29.3502 26.687 29.3481 24.6749ZM32.9079 23.5291C32.2773 23.5413 31.7824 24.0676 31.7904 24.7174C31.7985 25.3358 32.3451 25.8702 32.9645 25.8632C33.5678 25.8571 34.1265 25.2842 34.1174 24.682C34.1062 24.014 33.585 23.516 32.9089 23.5291H32.9079Z" fill="white" fill-opacity="0.4"/>
<path d="M18.6538 24.7416C18.6143 26.7527 16.9686 28.3489 14.9746 28.3074C12.9493 28.2649 11.4139 26.5958 11.4524 24.4774C11.4858 22.6444 13.2236 21.0118 15.086 21.0634C17.1103 21.1201 18.6933 22.7517 18.6548 24.7406L18.6538 24.7416ZM15.0789 23.529C14.4159 23.524 13.8775 24.0392 13.8765 24.6809C13.8765 25.2871 14.4159 25.8438 15.0212 25.862C15.6528 25.8802 16.2084 25.3327 16.2084 24.689C16.2084 24.0432 15.7115 23.5331 15.0789 23.528V23.529Z" fill="white" fill-opacity="0.4"/>
<path d="M24.0081 34.5829C22.9292 34.5829 21.8492 34.5971 20.7703 34.5788C19.7622 34.5616 19.1579 33.6669 19.5628 32.8167C19.7783 32.3643 20.1468 32.1416 20.6528 32.1416C22.8624 32.1436 25.0719 32.1355 27.2804 32.1467C28.0688 32.1507 28.5405 32.6143 28.5506 33.339C28.5607 34.0242 28.0425 34.5616 27.2956 34.5758C26.1994 34.5971 25.1032 34.5809 24.0071 34.5819L24.0081 34.5829Z" fill="white" fill-opacity="0.4"/>
</svg>
