<svg width="43" height="46" viewBox="0 0 43 46" fill="none" xmlns="http://www.w3.org/2000/svg">
<path d="M27.4776 45.1774C27.2075 45.062 26.9159 44.9775 26.6767 44.8168C26.1578 44.4693 25.9103 43.9505 25.8829 43.3281C25.8806 43.2626 25.8817 43.196 25.8817 43.1305C25.8817 29.6866 25.8817 16.2426 25.8782 2.79859C25.8782 2.12503 26.09 1.55975 26.6291 1.15038C27.2194 0.701727 27.881 0.625564 28.5546 0.924266C29.2651 1.23844 29.6304 1.81799 29.6875 2.59152C29.6935 2.67126 29.6923 2.75218 29.6923 2.8331C29.6923 16.2628 29.6923 29.6913 29.6935 43.121C29.6935 43.9826 29.3555 44.6336 28.5653 45.0156C28.4058 45.0929 28.2285 45.1358 28.0607 45.1953L27.4788 45.1774H27.4776Z" fill="white"/>
<path d="M14.8657 45.2001C14.4301 45.0871 14.0184 44.9312 13.7054 44.5861C13.3876 44.2374 13.2103 43.8328 13.1949 43.3591C13.1925 43.2711 13.1913 43.1842 13.1913 43.0961C13.1913 29.6748 13.1925 16.2546 13.1865 2.8332C13.1865 2.11679 13.4043 1.52296 13.9969 1.10644C14.5813 0.695875 15.2227 0.637563 15.8701 0.929125C16.5353 1.22783 16.9066 1.76216 16.9816 2.49285C16.9947 2.61661 16.9959 2.74157 16.9959 2.86533C16.9959 16.2712 16.9959 29.6783 16.9994 43.0842C16.9994 43.9637 16.6769 44.6301 15.8653 45.0181C15.7035 45.0954 15.5226 45.1335 15.35 45.1906L14.8657 45.2025V45.2001Z" fill="white"/>
<path d="M42.3818 28.0478C42.3818 28.4869 42.2866 28.9225 42.0891 29.3152C42.0391 29.4128 41.9843 29.5068 41.9177 29.5913C41.4381 30.2089 40.6122 30.4172 39.8792 30.1744C39.1318 29.9269 38.6237 29.2545 38.5749 28.4477C38.5713 28.3822 38.5713 28.3156 38.5713 28.2501C38.5713 24.7264 38.5713 21.2026 38.5713 17.6789C38.5713 16.7316 39.1128 15.9807 39.9553 15.7439C40.9978 15.4523 42.0677 16.0759 42.3295 17.1303C42.3295 17.1303 42.3295 17.1315 42.3295 17.1327C42.3616 17.2636 42.3818 17.3969 42.3818 17.5313V28.049V28.0478Z" fill="white"/>
<path d="M10.6503 22.9807C10.6503 27.5957 10.6503 32.2119 10.6503 36.8269C10.6503 37.7147 10.1969 38.4121 9.43528 38.706C8.20477 39.1797 6.89095 38.3121 6.84097 36.9935C6.83859 36.9352 6.83859 36.8769 6.83859 36.8186C6.83859 27.5874 6.83859 18.3574 6.8374 9.12617C6.8374 8.39191 7.10397 7.79688 7.73113 7.39941C8.96045 6.61993 10.5658 7.45891 10.6467 8.91672C10.6527 9.01906 10.6503 9.12141 10.6503 9.22375C10.6503 13.8102 10.6503 18.3967 10.6503 22.9819V22.9807Z" fill="white" fill-opacity="0.4"/>
<path d="M36.0316 22.9723C36.0316 26.5258 36.0281 30.0805 36.034 33.634C36.0352 34.4742 35.6984 35.1096 34.9392 35.4797C33.7289 36.07 32.3008 35.2084 32.2366 33.8625C32.2318 33.7744 32.2306 33.6875 32.2306 33.5995C32.2306 26.5139 32.233 19.4284 32.2271 12.3428C32.2271 11.5717 32.4912 10.9564 33.1565 10.5494C34.3691 9.80801 35.9543 10.6529 36.0245 12.0715C36.0304 12.1881 36.0304 12.3059 36.0304 12.4226C36.0304 15.9403 36.0304 19.4569 36.0304 22.9747L36.0316 22.9723Z" fill="white" fill-opacity="0.4"/>
<path d="M23.3386 22.9582C23.3386 26.0154 23.341 29.0726 23.3375 32.131C23.3363 33.2366 22.4937 34.0875 21.4239 34.0815C20.4754 34.0768 19.665 33.3544 19.5531 32.4107C19.5388 32.2953 19.5305 32.1775 19.5305 32.0608C19.5305 25.9975 19.5305 19.9331 19.5293 13.8698C19.5293 13.2164 19.7471 12.6607 20.2778 12.2644C20.9014 11.7991 21.5881 11.7277 22.2819 12.0716C22.9697 12.4119 23.3315 12.9951 23.3339 13.765C23.341 16.8294 23.3375 19.895 23.3375 22.9593L23.3386 22.9582Z" fill="white" fill-opacity="0.4"/>
<path d="M4.29793 22.9734C4.29793 24.8597 4.3015 26.7471 4.29674 28.6333C4.29436 29.5984 3.68863 30.3541 2.78181 30.5481C1.67983 30.7825 0.599261 29.9804 0.507627 28.8582C0.499297 28.7487 0.494537 28.6393 0.494537 28.5298C0.493347 24.8228 0.495727 21.1146 0.490967 17.4064C0.490967 16.6912 0.723026 16.0985 1.32519 15.6915C1.93926 15.2774 2.59973 15.2322 3.25783 15.5666C3.9076 15.8974 4.28246 16.4472 4.28841 17.1815C4.30507 19.1117 4.29436 21.0432 4.29436 22.9734H4.29793Z" fill="white"/>
</svg>
