<svg width="48" height="48" viewBox="0 0 48 48" fill="none" xmlns="http://www.w3.org/2000/svg">
<path fill-rule="evenodd" clip-rule="evenodd" d="M40.4415 19.4817H40.4369C39.484 19.484 38.7129 20.2574 38.7152 21.2126C38.7336 29.425 32.0679 36.1229 23.8647 36.1482C23.8601 36.1482 23.8578 36.1459 23.8532 36.1459H23.8463C19.869 36.1321 16.1356 34.5761 13.3298 31.7566C10.5218 28.937 8.98195 25.1899 8.99115 21.2126C8.99346 20.2597 8.22239 19.484 7.26949 19.4817H7.26489C6.31429 19.4817 5.54093 20.2505 5.53863 21.2034C5.52712 26.1036 7.42371 30.7185 10.8831 34.1941C13.9329 37.2576 17.8734 39.1059 22.127 39.511V44.4274C22.127 45.3803 22.9003 46.1536 23.8532 46.1536C24.8084 46.1536 25.5795 45.3803 25.5795 44.4274V39.5087C34.8921 38.6156 42.1908 30.7415 42.1677 21.2034C42.1654 20.2505 41.3944 19.4817 40.4415 19.4817Z" fill="white"/>
<path opacity="0.4" fill-rule="evenodd" clip-rule="evenodd" d="M23.8584 30.7485C29.1431 30.7346 33.4357 26.4236 33.4265 21.1389V11.4189C33.4265 6.14114 29.1316 1.84619 23.8515 1.84619C18.5737 1.84619 14.2788 6.14114 14.2788 11.4189V21.1366C14.2719 23.6984 15.264 26.1083 17.0708 27.9243C18.8776 29.7403 21.2851 30.7439 23.8584 30.7485Z" fill="white"/>
<path d="M25.1429 13.8428H22.5627C21.6098 13.8428 20.8364 14.6161 20.8364 15.569C20.8364 16.5219 21.6098 17.2953 22.5627 17.2953H25.1429C26.0958 17.2953 26.8691 16.5219 26.8691 15.569C26.8691 14.6161 26.0958 13.8428 25.1429 13.8428Z" fill="white"/>
<path d="M23.8539 8.20825C22.9011 8.20825 22.1277 8.98162 22.1277 9.93452V9.95523C22.1277 10.9081 22.9011 11.6723 23.8539 11.6723C24.8068 11.6723 25.5802 10.8874 25.5802 9.93452C25.5802 8.98162 24.8068 8.20825 23.8539 8.20825Z" fill="white"/>
<path d="M22.1277 21.2288C22.1277 22.1817 22.9011 22.9435 23.8539 22.9435C24.8068 22.9435 25.5802 22.1587 25.5802 21.2058C25.5802 20.2529 24.8068 19.4795 23.8539 19.4795C22.9011 19.4795 22.1277 20.2529 22.1277 21.2058V21.2288Z" fill="white"/>
</svg>
