<svg width="48" height="48" viewBox="0 0 48 48" fill="none" xmlns="http://www.w3.org/2000/svg">
<path d="M15.33 5.29853C15.3095 6.83712 15.3177 8.37228 15.6221 9.89103C16.231 12.9258 17.6327 15.533 19.8185 17.7194C23.248 21.1516 26.7007 24.562 30.107 28.0175C33.6637 31.6255 35.4397 35.9943 35.491 41.0595C35.5047 42.4264 35.5012 43.7932 35.4882 45.1601C35.48 46.0303 34.8349 46.6994 33.951 46.7924C33.204 46.8711 32.4419 46.3238 32.2455 45.5507C32.2017 45.377 32.1976 45.1902 32.1969 45.0089C32.1922 43.6304 32.2188 42.2519 32.186 40.8741C32.0895 36.8542 30.6946 33.3447 27.8733 30.4687C24.3877 26.9153 20.8248 23.438 17.3303 19.8935C14.4126 16.934 12.6989 13.3691 12.1803 9.23701C11.9107 7.09161 12.0469 4.93663 12.0387 2.78507C12.0353 1.89572 12.8172 1.19586 13.6908 1.19997C14.5863 1.20407 15.2999 1.91282 15.3252 2.83638C15.3368 3.24617 15.3286 3.65664 15.3293 4.06643C15.3293 4.47622 15.3293 4.88669 15.3293 5.29648L15.33 5.29853Z" fill="white"/>
<path d="M23.0242 26.998C22.6316 27.403 22.2724 27.7656 21.9214 28.1357C20.8234 29.2912 19.6584 30.3919 18.6472 31.6192C16.7057 33.9767 15.6104 36.7214 15.412 39.7726C15.2999 41.4972 15.3423 43.2328 15.3354 44.9637C15.3327 45.7162 15.0755 46.3025 14.3756 46.6309C13.333 47.1193 12.0626 46.4215 12.0489 45.2729C12.0222 42.9975 11.8902 40.7139 12.2165 38.4481C12.586 35.8813 13.4527 33.4937 14.8217 31.2806C15.8082 29.6852 17.0731 28.3361 18.3852 27.0192C19.0844 26.3173 19.7733 25.6044 20.4643 24.8936C20.586 24.7685 20.6852 24.6699 20.8549 24.8403C21.5609 25.5504 22.2745 26.2537 23.0249 26.9987L23.0242 26.998Z" fill="white"/>
<path d="M26.9135 23.1813C26.0789 22.3494 25.3182 21.59 24.5513 20.8252C24.853 20.5167 25.1848 20.1773 25.5159 19.8373C26.6604 18.6654 27.8884 17.5633 28.9303 16.3066C30.6885 14.1851 31.7605 11.7059 32.0232 8.95503C32.1915 7.19274 32.1464 5.41061 32.1943 3.63737C32.2018 3.36441 32.1908 3.09076 32.1977 2.8178C32.2209 1.92297 32.9228 1.2238 33.8149 1.20259C34.6667 1.18207 35.4787 1.87166 35.4767 2.73639C35.4698 5.10139 35.6381 7.47255 35.2625 9.82797C34.7303 13.1644 33.4373 16.1739 31.2249 18.7256C29.9832 20.1582 28.5616 21.4347 27.2248 22.7852C27.0983 22.9131 26.9997 23.0698 26.9129 23.182L26.9135 23.1813Z" fill="white"/>
<path opacity="0.4" d="M23.7638 5.4834C21.7709 5.4834 19.7781 5.48887 17.7853 5.48067C16.9766 5.47724 16.4676 4.78629 16.7119 4.04128C16.8432 3.6397 17.1251 3.3941 17.5431 3.31953C17.6765 3.29559 17.8154 3.29285 17.9515 3.29285C21.8346 3.2908 25.7176 3.29011 29.6014 3.29148C30.2349 3.29148 30.6351 3.53229 30.8034 4.00228C31.0756 4.76234 30.5537 5.4793 29.7088 5.48203C27.7276 5.48888 25.7457 5.48408 23.7645 5.4834H23.7638Z" fill="white"/>
<path opacity="0.4" d="M23.7591 42.5167C25.7519 42.5167 27.7448 42.5105 29.7376 42.5194C30.5469 42.5235 31.0566 43.2179 30.8123 43.9588C30.6796 44.3611 30.3916 44.6019 29.9784 44.6792C29.8231 44.7079 29.661 44.7066 29.5022 44.7066C25.7218 44.7079 21.9414 44.7079 18.1602 44.7072C18.0125 44.7072 17.864 44.71 17.7162 44.7011C17.0862 44.6628 16.6346 44.1928 16.649 43.5935C16.6634 42.9839 17.1149 42.5222 17.7463 42.5194C19.7501 42.5105 21.7546 42.516 23.7591 42.5167Z" fill="white"/>
<path opacity="0.4" d="M23.7611 8.32023C25.5035 8.32023 27.2467 8.31749 28.9891 8.3216C29.7115 8.32297 30.187 8.78201 30.1713 9.44629C30.1583 9.98469 29.7656 10.4205 29.2286 10.4875C29.1157 10.5019 29.0014 10.5046 28.8879 10.5046C25.4823 10.506 22.0768 10.508 18.6712 10.5026C18.4475 10.5026 18.2094 10.4834 18.0042 10.4047C17.5301 10.2221 17.2736 9.70899 17.3639 9.20821C17.4542 8.70539 17.8865 8.32912 18.4311 8.32638C20.2078 8.31749 21.9851 8.32296 23.7618 8.32296V8.32023H23.7611Z" fill="white"/>
<path opacity="0.4" d="M23.7386 39.6755C21.9728 39.6755 20.2078 39.6789 18.4421 39.6735C17.9222 39.6721 17.5144 39.3506 17.3804 38.8683C17.2586 38.4284 17.433 37.9091 17.8449 37.6813C18.0624 37.5609 18.3388 37.5041 18.5906 37.498C19.4669 37.4761 20.3446 37.4877 21.2217 37.4877C23.7618 37.4877 26.302 37.4843 28.8421 37.4918C29.0768 37.4918 29.3271 37.5164 29.5413 37.602C30.0085 37.7887 30.2541 38.3128 30.157 38.8135C30.0605 39.3081 29.6179 39.6714 29.0699 39.6735C27.2932 39.6796 25.5159 39.6755 23.7392 39.6748L23.7386 39.6755Z" fill="white"/>
<path opacity="0.4" d="M23.7591 13.334C24.5903 13.334 25.4215 13.3313 26.2527 13.3347C26.9642 13.3374 27.4458 13.7698 27.4547 14.4074C27.4643 15.0744 26.9936 15.5348 26.2725 15.5375C24.5992 15.5437 22.9251 15.5444 21.2518 15.5375C20.5328 15.5348 20.0559 15.071 20.0648 14.4094C20.073 13.7739 20.5574 13.3374 21.2661 13.334C22.0973 13.3306 22.9285 13.3333 23.7597 13.3333L23.7591 13.334Z" fill="white"/>
<path opacity="0.4" d="M23.7487 34.6645C22.9175 34.6645 22.0863 34.6665 21.2551 34.6645C20.5559 34.6624 20.0702 34.2171 20.0647 33.5781C20.0593 32.9295 20.5293 32.4671 21.2284 32.4644C22.9134 32.4575 24.5984 32.4582 26.2834 32.4644C26.988 32.4671 27.4567 32.9193 27.4546 33.5692C27.4526 34.2143 26.9757 34.6617 26.2766 34.6652C25.4337 34.6686 24.5916 34.6658 23.7487 34.6658V34.6645Z" fill="white"/>
</svg>
