<svg width="48" height="48" viewBox="0 0 48 48" fill="none" xmlns="http://www.w3.org/2000/svg">
<path fill-rule="evenodd" clip-rule="evenodd" d="M18.6835 7.14588L18.6835 8.11932L14.4268 8.11932C13.9756 8.11932 13.6166 8.47644 13.6166 8.92188L13.6166 14.4035C13.5974 17.6694 10.894 20.3651 7.59356 20.3651L1.7894 20.3651C1.3382 20.3651 0.95996 20.7222 0.95996 21.1849L0.95996 30.7177C0.959961 35.1625 4.61948 38.7683 9.09116 38.7683L18.6835 38.7683L18.6835 39.7417C18.6835 40.5078 19.3037 41.1299 20.0698 41.1299C20.8358 41.1299 21.4579 40.5078 21.4579 39.7417L21.4579 7.14588C21.4579 6.3798 20.8358 5.75964 20.0698 5.75964C19.3037 5.75964 18.6835 6.3798 18.6835 7.14588Z" fill="white"/>
<path fill-rule="evenodd" clip-rule="evenodd" d="M10.9822 14.1651C10.9956 12.921 10.9995 11.1911 10.9956 9.72418C10.9937 8.97154 10.0856 8.58946 9.54028 9.1117C8.55148 10.0525 7.17292 11.3639 5.7886 12.6829C4.40044 14.0039 3.00652 15.3325 1.99084 16.2983C1.4302 16.832 1.81612 17.7651 2.59372 17.7651L7.34572 17.7651C9.3406 17.7651 10.9822 16.1389 10.9822 14.1651Z" fill="white"/>
<path d="M39.1918 35.5065C39.046 35.4442 38.8886 35.3986 38.7595 35.3119C38.4793 35.1243 38.3457 34.8442 38.3309 34.5082C38.3297 34.4728 38.3303 34.4369 38.3303 34.4015C38.3303 27.1438 38.3303 19.8861 38.3284 12.6283C38.3284 12.2647 38.4427 11.9595 38.7338 11.7385C39.0524 11.4963 39.4096 11.4552 39.7732 11.6165C40.1568 11.7861 40.354 12.0989 40.3848 12.5165C40.3881 12.5596 40.3874 12.6033 40.3874 12.647C40.3874 19.897 40.3874 27.1464 40.3881 34.3964C40.3881 34.8615 40.2056 35.2129 39.779 35.4192C39.6929 35.4609 39.5972 35.484 39.5066 35.5162L39.1925 35.5065H39.1918Z" fill="white" fill-opacity="0.4"/>
<path d="M32.3833 35.5185C32.1482 35.4574 31.9259 35.3733 31.7569 35.187C31.5854 34.9987 31.4897 34.7803 31.4813 34.5246C31.48 34.4771 31.4794 34.4302 31.4794 34.3826C31.4794 27.1371 31.48 19.8922 31.4768 12.6467C31.4768 12.26 31.5944 11.9394 31.9143 11.7145C32.2298 11.4929 32.576 11.4614 32.9255 11.6188C33.2847 11.78 33.4851 12.0685 33.5256 12.463C33.5326 12.5298 33.5333 12.5972 33.5333 12.6641C33.5333 19.9012 33.5333 27.139 33.5352 34.3762C33.5352 34.851 33.3611 35.2107 32.923 35.4202C32.8356 35.4619 32.7379 35.4825 32.6448 35.5133L32.3833 35.5198V35.5185Z" fill="white" fill-opacity="0.4"/>
<path d="M47.2378 26.2591C47.2378 26.4962 47.1864 26.7313 47.0797 26.9433C47.0528 26.996 47.0232 27.0468 46.9872 27.0924C46.7283 27.4258 46.2825 27.5382 45.8867 27.4072C45.4833 27.2736 45.2089 26.9106 45.1826 26.475C45.1807 26.4397 45.1807 26.4037 45.1807 26.3683C45.1807 24.4661 45.1807 22.5638 45.1807 20.6615C45.1807 20.1501 45.473 19.7447 45.9278 19.6169C46.4906 19.4595 47.0682 19.7961 47.2095 20.3653C47.2095 20.3653 47.2095 20.366 47.2095 20.3666C47.2269 20.4373 47.2378 20.5092 47.2378 20.5818V26.2598V26.2591Z" fill="white" fill-opacity="0.4"/>
<path d="M30.1077 23.5238C30.1077 26.0152 30.1077 28.5072 30.1077 30.9986C30.1077 31.4779 29.8629 31.8544 29.4518 32.0131C28.7875 32.2688 28.0782 31.8004 28.0512 31.0886C28.05 31.0571 28.05 31.0256 28.05 30.9941C28.05 26.0107 28.05 21.0278 28.0493 16.0444C28.0493 15.648 28.1932 15.3268 28.5318 15.1122C29.1954 14.6914 30.0621 15.1443 30.1058 15.9313C30.109 15.9866 30.1077 16.0418 30.1077 16.0971C30.1077 18.5731 30.1077 21.049 30.1077 23.5244V23.5238Z" fill="white" fill-opacity="0.4"/>
<path d="M43.8098 23.5193C43.8098 25.4376 43.8078 27.3566 43.811 29.2749C43.8117 29.7285 43.6299 30.0716 43.22 30.2714C42.5666 30.59 41.7957 30.1249 41.761 29.3983C41.7584 29.3508 41.7578 29.3039 41.7578 29.2563C41.7578 25.4312 41.7591 21.606 41.7559 17.7809C41.7559 17.3646 41.8985 17.0325 42.2576 16.8127C42.9123 16.4125 43.768 16.8686 43.8059 17.6344C43.8091 17.6974 43.8091 17.761 43.8091 17.824C43.8091 19.723 43.8091 21.6215 43.8091 23.5205L43.8098 23.5193Z" fill="white" fill-opacity="0.4"/>
<path d="M36.9574 23.5113C36.9574 25.1618 36.9586 26.8122 36.9567 28.4633C36.9561 29.0601 36.5012 29.5195 35.9237 29.5163C35.4116 29.5137 34.9741 29.1237 34.9137 28.6143C34.906 28.552 34.9015 28.4884 34.9015 28.4254C34.9015 25.1521 34.9015 21.8782 34.9009 18.6049C34.9009 18.2522 35.0184 17.9522 35.305 17.7383C35.6416 17.4871 36.0123 17.4485 36.3869 17.6342C36.7582 17.818 36.9535 18.1328 36.9548 18.5484C36.9586 20.2027 36.9567 21.8577 36.9567 23.512L36.9574 23.5113Z" fill="white" fill-opacity="0.4"/>
<path d="M26.6782 23.5197C26.6782 24.538 26.6802 25.5569 26.6776 26.5752C26.6763 27.0962 26.3493 27.5042 25.8598 27.6089C25.2649 27.7355 24.6815 27.3025 24.632 26.6966C24.6275 26.6375 24.625 26.5784 24.625 26.5193C24.6243 24.5181 24.6256 22.5162 24.623 20.5144C24.623 20.1282 24.7483 19.8083 25.0734 19.5886C25.4049 19.365 25.7615 19.3406 26.1167 19.5211C26.4675 19.6997 26.6699 19.9965 26.6731 20.3929C26.6821 21.435 26.6763 22.4777 26.6763 23.5197H26.6782Z" fill="white" fill-opacity="0.4"/>
</svg>
