<svg width="24" height="24" viewBox="0 0 24 24" fill="none" xmlns="http://www.w3.org/2000/svg">
<path fill-rule="evenodd" clip-rule="evenodd" d="M20.5 14.9434C20.5 18.2157 18.2894 20.5 15.1227 20.5H8.87727C5.71304 20.5 3.5 18.2157 3.5 14.9434V9.05654C3.5 5.78429 5.71304 3.5 8.87727 3.5H15.1227C18.2894 3.5 20.5 5.78429 20.5 9.05654V14.9434ZM8.878 7.16968H15.1234C16.5368 7.16968 16.8327 8.19688 16.8327 9.05777V14.9446C16.8327 15.8055 16.5368 16.8327 15.1234 16.8327H8.878C7.46459 16.8327 7.1687 15.8055 7.1687 14.9446V9.05777C7.1687 8.3534 7.39123 7.16968 8.878 7.16968Z" fill="white"/>
<path d="M8.878 7.16968H15.1234C16.5368 7.16968 16.8327 8.19688 16.8327 9.05777V14.9446C16.8327 15.8055 16.5368 16.8327 15.1234 16.8327H8.878C7.46459 16.8327 7.1687 15.8055 7.1687 14.9446V9.05777C7.1687 8.3534 7.39123 7.16968 8.878 7.16968Z" fill="white"/>
</svg>
