<svg width="232" height="44" viewBox="0 0 232 44" fill="none" xmlns="http://www.w3.org/2000/svg">
<path d="M22 7.55365L16.9696 5.5L9.32318 10.5024V16.0082L5.5 17.9735V26.0269L9.32318 27.9912V33.4912L16.9696 38.5L22 36.4375" stroke="#595DD2" stroke-width="2.5" stroke-linecap="round" stroke-linejoin="round"/>
<path d="M22 33.2292V36.4463L27.0305 38.5L34.6768 33.4976V27.9919L38.5 26.0265V17.973L34.6768 16.0088V10.5089L27.0305 5.5L22 7.56246V10.7724" stroke="#595DD2" stroke-width="2.5" stroke-linecap="round" stroke-linejoin="round"/>
<path fill-rule="evenodd" clip-rule="evenodd" d="M21.456 15.2625L16.2032 22.4979C15.8283 23.014 16.197 23.7369 16.8345 23.7369H21.1315V28.2799C21.1315 29.0356 22.1002 29.3509 22.5446 28.7378L27.7975 21.5031C28.1722 20.9872 27.8036 20.2634 27.1661 20.2634H22.8682V15.7213C22.8682 14.9648 21.9004 14.6503 21.456 15.2625Z" stroke="#595DD2" stroke-width="2.5" stroke-linecap="round" stroke-linejoin="round"/>
<path d="M53.7955 16.6634V14.4545H65.4006V16.6634H60.9048V29H58.2912V16.6634H53.7955ZM70.7717 29.2131C69.6779 29.2131 68.7333 28.9858 67.9379 28.5312C67.1471 28.072 66.5387 27.4233 66.1126 26.5852C65.6864 25.7424 65.4734 24.7505 65.4734 23.6094C65.4734 22.4872 65.6864 21.5024 66.1126 20.6548C66.5434 19.8026 67.1448 19.1397 67.9165 18.6662C68.6883 18.188 69.5951 17.9489 70.6367 17.9489C71.3091 17.9489 71.9435 18.0578 72.5401 18.2756C73.1415 18.4886 73.6718 18.8201 74.131 19.2699C74.5951 19.7197 74.9596 20.2926 75.2248 20.9886C75.4899 21.6799 75.6225 22.5038 75.6225 23.4602V24.2486H66.6808V22.5156H73.158C73.1533 22.0232 73.0468 21.5852 72.8384 21.2017C72.6301 20.8134 72.3389 20.508 71.9648 20.2855C71.5955 20.063 71.1647 19.9517 70.6722 19.9517C70.1467 19.9517 69.685 20.0795 69.2873 20.3352C68.8896 20.5862 68.5794 20.9176 68.3569 21.3295C68.1391 21.7367 68.0278 22.1842 68.0231 22.6719V24.1847C68.0231 24.8191 68.1391 25.3636 68.3711 25.8182C68.6031 26.268 68.9274 26.6136 69.3441 26.8551C69.7608 27.0919 70.2485 27.2102 70.8072 27.2102C71.1812 27.2102 71.5198 27.1581 71.8228 27.054C72.1258 26.9451 72.3886 26.7865 72.6112 26.5781C72.8337 26.3698 73.0018 26.1117 73.1154 25.804L75.516 26.0739C75.3645 26.7083 75.0756 27.2623 74.6495 27.7358C74.2281 28.2045 73.6883 28.5691 73.0302 28.8295C72.372 29.0852 71.6192 29.2131 70.7717 29.2131ZM77.6555 29V27.3665L83.2805 20.3139V20.2216H77.8402V18.0909H86.4268V19.8452L81.0717 26.777V26.8693H86.6115V29H77.6555ZM92.0465 27.0114L91.9542 27.7926C91.8879 28.3892 91.7695 28.9953 91.5991 29.6108C91.4334 30.2311 91.2582 30.8016 91.0735 31.3224C90.8888 31.8433 90.7397 32.2528 90.6261 32.5511H88.8931C88.9594 32.2623 89.0494 31.8693 89.163 31.3722C89.2814 30.875 89.395 30.3163 89.5039 29.696C89.6128 29.0758 89.6862 28.446 89.7241 27.8068L89.7738 27.0114H92.0465ZM102.577 29.2202C101.886 29.2202 101.263 29.0971 100.71 28.8509C100.16 28.5999 99.7247 28.2306 99.4027 27.7429C99.0855 27.2552 98.9268 26.6539 98.9268 25.9389C98.9268 25.3234 99.0405 24.8144 99.2678 24.4119C99.495 24.0095 99.8052 23.6875 100.198 23.446C100.591 23.2045 101.034 23.0223 101.526 22.8991C102.023 22.7713 102.537 22.679 103.067 22.6222C103.707 22.5559 104.225 22.4967 104.623 22.4446C105.021 22.3878 105.309 22.3026 105.489 22.1889C105.674 22.0705 105.766 21.8883 105.766 21.642V21.5994C105.766 21.0644 105.608 20.6501 105.29 20.3565C104.973 20.063 104.516 19.9162 103.92 19.9162C103.29 19.9162 102.79 20.0535 102.421 20.3281C102.057 20.6027 101.81 20.9271 101.683 21.3011L99.282 20.9602C99.4714 20.2973 99.7839 19.7434 100.219 19.2983C100.655 18.8485 101.188 18.5123 101.817 18.2898C102.447 18.0625 103.143 17.9489 103.906 17.9489C104.431 17.9489 104.954 18.0104 105.475 18.1335C105.996 18.2566 106.472 18.4602 106.903 18.7443C107.334 19.0237 107.679 19.4048 107.94 19.8878C108.205 20.3707 108.337 20.9744 108.337 21.6989V29H105.866V27.5014H105.781C105.624 27.8045 105.404 28.0885 105.12 28.3537C104.841 28.6141 104.488 28.8248 104.062 28.9858C103.64 29.142 103.146 29.2202 102.577 29.2202ZM103.245 27.331C103.761 27.331 104.209 27.2292 104.587 27.0256C104.966 26.8172 105.257 26.5426 105.461 26.2017C105.669 25.8608 105.773 25.4891 105.773 25.0866V23.8011C105.693 23.8674 105.556 23.929 105.362 23.9858C105.172 24.0426 104.959 24.0923 104.722 24.1349C104.486 24.1776 104.251 24.2154 104.019 24.2486C103.787 24.2817 103.586 24.3101 103.415 24.3338C103.032 24.3859 102.689 24.4711 102.386 24.5895C102.083 24.7079 101.844 24.8736 101.668 25.0866C101.493 25.295 101.406 25.5649 101.406 25.8963C101.406 26.3698 101.578 26.7273 101.924 26.9688C102.27 27.2102 102.71 27.331 103.245 27.331ZM113.494 22.608V29H110.923V18.0909H113.38V19.9446H113.508C113.759 19.3338 114.159 18.8485 114.708 18.4886C115.262 18.1288 115.946 17.9489 116.761 17.9489C117.513 17.9489 118.169 18.1098 118.728 18.4318C119.291 18.7538 119.727 19.2202 120.035 19.831C120.347 20.4418 120.501 21.1828 120.496 22.054V29H117.925V22.4517C117.925 21.7225 117.736 21.152 117.357 20.7401C116.983 20.3281 116.465 20.1222 115.802 20.1222C115.352 20.1222 114.952 20.2216 114.602 20.4205C114.256 20.6146 113.984 20.8963 113.785 21.2656C113.591 21.6349 113.494 22.0824 113.494 22.608ZM123.11 29V18.0909H125.681V29H123.11ZM124.403 16.5426C123.996 16.5426 123.645 16.4077 123.352 16.1378C123.058 15.8632 122.911 15.5341 122.911 15.1506C122.911 14.7623 123.058 14.4332 123.352 14.1634C123.645 13.8887 123.996 13.7514 124.403 13.7514C124.815 13.7514 125.165 13.8887 125.454 14.1634C125.747 14.4332 125.894 14.7623 125.894 15.1506C125.894 15.5341 125.747 15.8632 125.454 16.1378C125.165 16.4077 124.815 16.5426 124.403 16.5426ZM135.605 33.0909V27.2812H135.498C135.366 27.5464 135.174 27.8281 134.923 28.1264C134.672 28.42 134.341 28.6709 133.929 28.8793C133.517 29.0876 132.998 29.1918 132.373 29.1918C131.516 29.1918 130.749 28.9716 130.072 28.5312C129.395 28.0909 128.86 27.4517 128.467 26.6136C128.074 25.7756 127.877 24.7576 127.877 23.5597C127.877 22.3475 128.076 21.3248 128.474 20.4915C128.877 19.6534 129.419 19.0213 130.1 18.5952C130.782 18.1643 131.542 17.9489 132.38 17.9489C133.02 17.9489 133.545 18.0578 133.957 18.2756C134.369 18.4886 134.696 18.7467 134.937 19.0497C135.179 19.348 135.366 19.6297 135.498 19.8949H135.654V18.0909H138.183V33.0909H135.605ZM133.091 27.0824C133.635 27.0824 134.099 26.9356 134.483 26.642C134.866 26.3437 135.157 25.9295 135.356 25.3991C135.555 24.8688 135.654 24.2509 135.654 23.5455C135.654 22.84 135.555 22.2268 135.356 21.706C135.162 21.1851 134.873 20.7803 134.49 20.4915C134.111 20.2027 133.645 20.0582 133.091 20.0582C132.518 20.0582 132.039 20.2074 131.656 20.5057C131.272 20.804 130.984 21.2159 130.789 21.7415C130.595 22.267 130.498 22.8684 130.498 23.5455C130.498 24.2273 130.595 24.8357 130.789 25.3707C130.988 25.901 131.279 26.3201 131.663 26.6278C132.051 26.9309 132.527 27.0824 133.091 27.0824ZM155.53 18.0909L151.645 29H148.804L144.919 18.0909H147.661L150.168 26.1946H150.282L152.796 18.0909H155.53ZM160.136 29.2202C159.445 29.2202 158.822 29.0971 158.268 28.8509C157.719 28.5999 157.283 28.2306 156.961 27.7429C156.644 27.2552 156.485 26.6539 156.485 25.9389C156.485 25.3234 156.599 24.8144 156.826 24.4119C157.054 24.0095 157.364 23.6875 157.757 23.446C158.15 23.2045 158.592 23.0223 159.085 22.8991C159.582 22.7713 160.096 22.679 160.626 22.6222C161.265 22.5559 161.784 22.4967 162.181 22.4446C162.579 22.3878 162.868 22.3026 163.048 22.1889C163.233 22.0705 163.325 21.8883 163.325 21.642V21.5994C163.325 21.0644 163.166 20.6501 162.849 20.3565C162.532 20.063 162.075 19.9162 161.478 19.9162C160.849 19.9162 160.349 20.0535 159.98 20.3281C159.615 20.6027 159.369 20.9271 159.241 21.3011L156.841 20.9602C157.03 20.2973 157.342 19.7434 157.778 19.2983C158.214 18.8485 158.746 18.5123 159.376 18.2898C160.006 18.0625 160.702 17.9489 161.464 17.9489C161.99 17.9489 162.513 18.0104 163.034 18.1335C163.555 18.2566 164.03 18.4602 164.461 18.7443C164.892 19.0237 165.238 19.4048 165.498 19.8878C165.763 20.3707 165.896 20.9744 165.896 21.6989V29H163.424V27.5014H163.339C163.183 27.8045 162.963 28.0885 162.679 28.3537C162.399 28.6141 162.047 28.8248 161.62 28.9858C161.199 29.142 160.704 29.2202 160.136 29.2202ZM160.804 27.331C161.32 27.331 161.767 27.2292 162.146 27.0256C162.525 26.8172 162.816 26.5426 163.02 26.2017C163.228 25.8608 163.332 25.4891 163.332 25.0866V23.8011C163.252 23.8674 163.114 23.929 162.92 23.9858C162.731 24.0426 162.518 24.0923 162.281 24.1349C162.044 24.1776 161.81 24.2154 161.578 24.2486C161.346 24.2817 161.145 24.3101 160.974 24.3338C160.591 24.3859 160.247 24.4711 159.944 24.5895C159.641 24.7079 159.402 24.8736 159.227 25.0866C159.052 25.295 158.964 25.5649 158.964 25.8963C158.964 26.3698 159.137 26.7273 159.483 26.9688C159.828 27.2102 160.269 27.331 160.804 27.331ZM180.722 33.0909V27.2812H180.615C180.483 27.5464 180.291 27.8281 180.04 28.1264C179.789 28.42 179.458 28.6709 179.046 28.8793C178.634 29.0876 178.115 29.1918 177.49 29.1918C176.633 29.1918 175.866 28.9716 175.189 28.5312C174.512 28.0909 173.977 27.4517 173.584 26.6136C173.191 25.7756 172.995 24.7576 172.995 23.5597C172.995 22.3475 173.194 21.3248 173.591 20.4915C173.994 19.6534 174.536 19.0213 175.218 18.5952C175.9 18.1643 176.659 17.9489 177.498 17.9489C178.137 17.9489 178.662 18.0578 179.074 18.2756C179.486 18.4886 179.813 18.7467 180.054 19.0497C180.296 19.348 180.483 19.6297 180.615 19.8949H180.772V18.0909H183.3V33.0909H180.722ZM178.208 27.0824C178.752 27.0824 179.216 26.9356 179.6 26.642C179.983 26.3437 180.275 25.9295 180.473 25.3991C180.672 24.8688 180.772 24.2509 180.772 23.5455C180.772 22.84 180.672 22.2268 180.473 21.706C180.279 21.1851 179.99 20.7803 179.607 20.4915C179.228 20.2027 178.762 20.0582 178.208 20.0582C177.635 20.0582 177.157 20.2074 176.773 20.5057C176.39 20.804 176.101 21.2159 175.907 21.7415C175.712 22.267 175.615 22.8684 175.615 23.5455C175.615 24.2273 175.712 24.8357 175.907 25.3707C176.105 25.901 176.397 26.3201 176.78 26.6278C177.168 26.9309 177.644 27.0824 178.208 27.0824ZM192.895 24.4119V18.0909H195.466V29H192.973V27.0611H192.86C192.614 27.6719 192.209 28.1714 191.645 28.5597C191.087 28.9479 190.398 29.142 189.578 29.142C188.864 29.142 188.231 28.9834 187.682 28.6662C187.138 28.3442 186.712 27.8778 186.404 27.267C186.096 26.6515 185.942 25.9081 185.942 25.0369V18.0909H188.513V24.6392C188.513 25.3305 188.703 25.8797 189.081 26.2869C189.46 26.6941 189.957 26.8977 190.573 26.8977C190.952 26.8977 191.319 26.8054 191.674 26.6207C192.029 26.4361 192.32 26.1615 192.547 25.7969C192.779 25.4276 192.895 24.9659 192.895 24.4119ZM200.681 14.4545V29H198.11V14.4545H200.681ZM206.464 29.2202C205.773 29.2202 205.15 29.0971 204.596 28.8509C204.047 28.5999 203.611 28.2306 203.289 27.7429C202.972 27.2552 202.814 26.6539 202.814 25.9389C202.814 25.3234 202.927 24.8144 203.154 24.4119C203.382 24.0095 203.692 23.6875 204.085 23.446C204.478 23.2045 204.921 23.0223 205.413 22.8991C205.91 22.7713 206.424 22.679 206.954 22.6222C207.593 22.5559 208.112 22.4967 208.51 22.4446C208.907 22.3878 209.196 22.3026 209.376 22.1889C209.561 22.0705 209.653 21.8883 209.653 21.642V21.5994C209.653 21.0644 209.494 20.6501 209.177 20.3565C208.86 20.063 208.403 19.9162 207.806 19.9162C207.177 19.9162 206.677 20.0535 206.308 20.3281C205.943 20.6027 205.697 20.9271 205.569 21.3011L203.169 20.9602C203.358 20.2973 203.671 19.7434 204.106 19.2983C204.542 18.8485 205.074 18.5123 205.704 18.2898C206.334 18.0625 207.03 17.9489 207.792 17.9489C208.318 17.9489 208.841 18.0104 209.362 18.1335C209.883 18.2566 210.359 18.4602 210.789 18.7443C211.22 19.0237 211.566 19.4048 211.826 19.8878C212.092 20.3707 212.224 20.9744 212.224 21.6989V29H209.752V27.5014H209.667C209.511 27.8045 209.291 28.0885 209.007 28.3537C208.727 28.6141 208.375 28.8248 207.949 28.9858C207.527 29.142 207.032 29.2202 206.464 29.2202ZM207.132 27.331C207.648 27.331 208.095 27.2292 208.474 27.0256C208.853 26.8172 209.144 26.5426 209.348 26.2017C209.556 25.8608 209.66 25.4891 209.66 25.0866V23.8011C209.58 23.8674 209.442 23.929 209.248 23.9858C209.059 24.0426 208.846 24.0923 208.609 24.1349C208.372 24.1776 208.138 24.2154 207.906 24.2486C207.674 24.2817 207.473 24.3101 207.302 24.3338C206.919 24.3859 206.575 24.4711 206.272 24.5895C205.969 24.7079 205.73 24.8736 205.555 25.0866C205.38 25.295 205.292 25.5649 205.292 25.8963C205.292 26.3698 205.465 26.7273 205.811 26.9688C206.156 27.2102 206.597 27.331 207.132 27.331ZM216.017 33.0909C215.666 33.0909 215.342 33.0625 215.044 33.0057C214.75 32.9536 214.516 32.892 214.341 32.821L214.937 30.8182C215.311 30.9271 215.645 30.9792 215.939 30.9744C216.232 30.9697 216.49 30.8774 216.713 30.6974C216.94 30.5223 217.132 30.2287 217.288 29.8168L217.508 29.2273L213.552 18.0909H216.279L218.794 26.3295H218.907L221.429 18.0909H224.163L219.795 30.321C219.592 30.8987 219.322 31.3935 218.985 31.8054C218.649 32.2221 218.237 32.5393 217.75 32.7571C217.267 32.9796 216.689 33.0909 216.017 33.0909Z" fill="#2B2B2B"/>
</svg>
