<svg width="155" height="31" viewBox="0 0 155 31" fill="none" xmlns="http://www.w3.org/2000/svg">
<g id="Frame 427320102">
<g id="Group 427319195">
<path id="Union" fill-rule="evenodd" clip-rule="evenodd" d="M20.3389 7.41534C20.3088 7.46613 20.2387 7.47628 20.1885 7.45597C19.4258 7.01532 18.7033 6.51344 17.9168 5.96704C17.7421 5.84568 17.5642 5.72212 17.3821 5.59655C16.4397 4.95642 14.4149 4.08259 10.2049 4.28581C10.0291 4.29472 9.84517 4.30606 9.6539 4.31785C7.66477 4.44049 4.87683 4.61238 2.00546 2.61945C1.24364 2.10125 0.471809 1.21726 0.0708567 0.394258C0.0307642 0.323123 0.0107183 0.231671 0.000695134 0.14022C-0.00932799 0.0487683 0.0909025 -0.0223389 0.181138 0.00813564C5.21268 2.05613 7.92244 2.26373 10.5319 2.46365C11.9617 2.57319 13.3615 2.68042 15.0965 3.08684C16.8424 3.50068 18.9496 5.78382 19.9506 6.86845L19.9507 6.86854L19.9512 6.86912C20.1051 7.03585 20.2328 7.17422 20.329 7.27307C20.369 7.30357 20.369 7.36452 20.3389 7.41534ZM18.9858 7.4229C15.7407 6.63547 12.9028 6.95577 10.454 7.23215C7.02542 7.61912 4.3595 7.92001 2.40649 4.97416C2.40147 4.96398 2.39645 4.95635 2.39143 4.94871C2.38643 4.9411 2.38142 4.93349 2.37642 4.92335C2.28621 4.7811 2.40649 4.57788 2.56686 4.61852C7.17536 5.73208 9.20557 5.63869 10.9099 5.56028C11.756 5.52136 12.5217 5.48613 13.4828 5.60411C16.1591 5.92926 18.9858 7.4229 18.9858 7.4229ZM20.3591 8.69507C17.3869 8.25021 14.7896 8.97385 12.5018 9.61126C9.512 10.4443 7.0508 11.13 4.97243 8.86781C4.9694 8.86473 4.96636 8.86073 4.96305 8.85635C4.95542 8.84628 4.94632 8.83426 4.93234 8.82718C4.83211 8.71541 4.90227 8.51219 5.05262 8.52235C9.27686 8.8375 11.3227 8.432 12.9971 8.10014C13.8059 7.93983 14.5281 7.7967 15.3672 7.76029C17.7728 7.65868 20.3591 8.69507 20.3591 8.69507ZM15.2021 11.617C17.0058 10.8299 18.9847 9.96637 21.633 10.3306C21.633 10.3306 20.2097 9.34499 17.1825 9.71079C16.4355 9.80247 15.7837 10.0031 15.0489 10.2292C13.5849 10.6797 11.7919 11.2315 8.26125 11.2247C8.12093 11.2247 8.09086 11.4889 8.19109 11.5804L8.23118 11.621C10.9357 13.4789 12.93 12.6086 15.2021 11.617ZM24.329 12.129C22.9176 12.2803 22.2433 12.8806 21.6131 13.4416C20.8468 14.1237 20.1458 14.7477 18.2647 14.4354C17.8137 14.3643 17.9139 14.0392 18.1143 13.9782C20.0284 13.4239 20.669 12.991 21.1874 12.6406C21.4482 12.4644 21.6781 12.309 22.0236 12.1696C23.006 11.7937 24.329 12.129 24.329 12.129ZM18.2079 12.7798C19.454 12.1171 20.8235 11.3888 22.9149 11.3464C22.9149 11.3464 21.0705 10.8993 19.5569 11.2651C19.0138 11.3951 18.6296 11.5549 18.1931 11.7366C17.3326 12.0947 16.2686 12.5375 13.3824 13.0026C13.0716 13.0432 12.8712 13.4903 13.4525 13.6529C15.4901 14.2251 16.7664 13.5464 18.2079 12.7798ZM27.0465 25.1048C27.0647 24.9972 27.0829 24.8896 27.1151 24.7886C27.1264 24.7327 27.1428 24.6731 27.1597 24.6119L27.1597 24.6119C27.2319 24.3501 27.3128 24.057 27.0447 23.8843C26.9502 23.8533 26.8409 23.844 26.7306 23.8346C26.4781 23.813 26.2202 23.7911 26.1226 23.5081C25.8731 22.8359 25.6365 22.1605 25.4001 21.4855L25.4 21.4853L25.3999 21.485C25.2183 20.9664 25.0367 20.4481 24.8494 19.9317C24.8365 19.9054 24.8255 19.8749 24.8142 19.8437C24.773 19.73 24.7284 19.6072 24.5789 19.6472C24.4587 19.6978 24.4187 19.7792 24.4587 19.901C24.8396 21.6486 25.2205 23.3863 25.6113 25.1237C25.6277 25.1763 25.6397 25.2327 25.6518 25.2899C25.6842 25.4429 25.7179 25.6022 25.8419 25.713C26.1026 26.0078 26.6437 25.9774 26.8645 25.6521C26.9806 25.495 27.0136 25.2998 27.0465 25.1048ZM27.6268 19.9931C27.667 20.1049 27.6068 20.2369 27.4866 20.2571C27.4165 20.2674 27.3562 20.2572 27.3362 20.1556C27.203 19.8856 27.0782 19.6092 26.9531 19.3323L26.9531 19.3323L26.9531 19.3323L26.9531 19.3323L26.9531 19.3323L26.9531 19.3322C26.8052 19.0048 26.657 18.6765 26.4941 18.3573L26.4635 18.331L26.4635 18.331C26.082 18.0037 25.686 17.6639 25.4518 17.1988C25.0208 16.4266 25.0608 15.4207 25.5419 14.679C25.5617 14.6538 25.5791 14.6261 25.5966 14.5984C25.6143 14.5702 25.632 14.542 25.6523 14.5164C25.7224 14.4148 25.8727 14.4351 25.9127 14.5571C25.9218 14.5848 25.93 14.6125 25.9382 14.6399L25.9382 14.6399L25.9382 14.64L25.9382 14.64L25.9382 14.64L25.9382 14.64C25.9569 14.7031 25.9751 14.7646 26.0031 14.8212C26.1986 15.4415 26.3915 16.0645 26.5846 16.6882L26.5846 16.6882L26.5846 16.6882L26.5846 16.6883L26.5846 16.6883L26.5846 16.6883C26.9261 17.7911 27.2684 18.8963 27.6268 19.9931ZM27.5088 12.7659C27.6002 12.4545 27.6918 12.1424 27.7061 11.8147C27.7539 11.2399 27.5177 10.7265 27.2831 10.2165C27.1735 9.97822 27.0643 9.74072 26.9845 9.49808C26.7834 8.94585 26.9054 8.39363 27.0275 7.8414C27.0941 7.54012 27.1607 7.23884 27.1748 6.93755C27.1748 6.43593 26.8872 6.0339 26.6112 5.64811C26.5573 5.57286 26.5039 5.49823 26.4532 5.42359C26.4031 5.35249 26.393 5.35249 26.3628 5.44394C26.1925 6.18565 26.3428 6.96805 26.6638 7.64882C26.652 7.70599 26.6398 7.76317 26.6276 7.82037L26.6276 7.82039C26.5468 8.20027 26.4657 8.58116 26.4833 8.96971C26.5077 9.4891 26.7177 9.95204 26.9281 10.4158L26.9281 10.4158C27.0634 10.7141 27.1989 11.0128 27.2852 11.327C27.3816 11.7048 27.3296 12.0825 27.2773 12.463L27.2773 12.463C27.248 12.6761 27.2186 12.8899 27.2151 13.1051C27.2151 13.1763 27.2852 13.2271 27.3553 13.1966C27.3854 13.1864 27.3953 13.1661 27.4054 13.1356C27.4367 13.0119 27.4727 12.8889 27.5088 12.7659ZM30.3529 8.86699C30.3435 9.39081 30.1272 9.86553 29.9113 10.3393C29.6665 10.8763 29.4223 11.4122 29.481 12.0168C29.481 12.1945 29.4992 12.3738 29.5174 12.5534L29.5174 12.5534C29.544 12.8156 29.5707 13.0785 29.5409 13.3377C29.4799 13.6738 29.1454 13.7635 28.8549 13.8415C28.8117 13.8531 28.7695 13.8644 28.7292 13.8762C28.5488 13.9575 28.3483 13.7442 28.3984 13.5613V9.58842C28.4084 9.31494 28.4458 9.03389 28.5267 8.76917C28.5239 8.76324 28.5243 8.75199 28.5282 8.7349C28.5583 8.61905 28.6263 8.46571 28.7034 8.29162C28.8834 7.88542 29.1136 7.36622 29.0294 6.94658C29.0193 6.9013 28.9988 6.85959 28.9712 6.82135C28.345 6.33791 27.5963 6.56008 27.5963 6.56008C27.5963 6.56008 27.9068 6.32639 28.5885 6.38733C29.158 6.43866 29.5159 6.72088 29.7023 6.92195L29.7 6.89954L29.7 6.89944C29.6791 6.70177 29.6593 6.51371 29.7515 6.27599C29.913 5.93888 30.1198 5.72959 30.337 5.50965L30.3729 5.4733C30.4132 5.43267 30.4731 5.45298 30.4833 5.50377C30.6438 6.2252 30.4833 7.00757 30.1525 7.65786C30.1704 7.74427 30.1904 7.83169 30.2105 7.92001L30.2105 7.92002L30.2106 7.92008L30.2106 7.92013C30.2805 8.22647 30.3529 8.54366 30.3529 8.86699ZM40.4767 6.07194C41.0178 5.63503 41.6493 5.16764 43.0126 4.78155C43.7983 4.55812 44.9307 4.58776 46.2583 4.6225C48.6738 4.68572 51.7354 4.76586 54.5299 3.3692C56.0336 2.6173 56.6651 1.74348 57.1964 0.38192C57.3065 0.148227 57.126 -0.0143325 56.9858 0.0669607C53.4036 2.42786 49.4417 2.71073 46.1777 2.94377C44.2722 3.07982 42.6045 3.19889 41.3889 3.7045C40.6915 3.98916 39.489 4.90922 37.9351 6.09822L37.7702 6.22437C37.1933 6.66701 36.6886 7.07529 36.2056 7.46596L36.2055 7.46598C35.2029 8.27698 34.294 9.01211 33.0289 9.82128C32.4878 10.1566 32.0666 10.6951 31.8661 11.3047C31.5353 12.3005 31.0541 13.2455 30.4128 14.0786C30.2983 14.2482 30.1744 14.4142 30.0499 14.5811C29.7489 14.9844 29.4443 15.3926 29.2601 15.8669C29.0813 16.3789 29.0471 16.9153 29.0128 17.4524C29.0028 17.6082 28.9929 17.764 28.9794 17.9193C28.9676 18.3158 28.9321 18.7121 28.8967 19.1084L28.8966 19.1085C28.8712 19.3929 28.8457 19.6773 28.829 19.9618C28.8792 20.1445 29.1196 20.114 29.1697 19.9515C29.2815 19.7664 29.3837 19.5752 29.4858 19.3839L29.4859 19.3839L29.4859 19.3838C29.7594 18.8719 30.0333 18.3594 30.493 17.96L30.172 18.8948C30.0384 20.1987 29.9059 21.5027 29.7734 22.8066L29.7732 22.8083C29.5082 25.4156 29.2432 28.023 28.9693 30.6304C28.9493 30.7627 28.9293 31.037 29.1396 30.9963C29.2518 30.8666 29.3126 30.7107 29.3734 30.555L29.3734 30.555C29.3888 30.5156 29.4041 30.4763 29.4203 30.4374C29.8164 29.443 30.2127 28.4576 30.6088 27.4728L30.6095 27.4711L30.6833 27.2876C30.8838 26.7287 30.964 26.1292 30.8438 25.5502C30.7961 25.2211 30.6845 24.9197 30.5701 24.6107L30.5701 24.6107L30.553 24.5645C30.4727 24.3511 30.4629 24.1073 30.533 23.8839C30.8601 22.8087 31.1774 21.7432 31.4946 20.678L31.5052 20.6424C31.6758 20.1243 31.7259 19.5654 31.7158 19.0268C31.7084 18.453 31.5569 17.9127 31.4055 17.3728L31.4055 17.3727C31.3532 17.1862 31.3009 16.9997 31.2546 16.8119C31.2664 16.6461 31.2581 16.4474 31.2487 16.2226C31.2184 15.4966 31.1766 14.4985 31.7659 13.4588C32.0266 12.9914 32.5077 12.7069 33.0289 12.7272C33.8523 12.7615 34.279 13.1671 34.7354 13.6008C35.3625 14.1968 36.0455 14.846 37.8904 14.6578C38.2113 14.6273 38.2412 14.231 37.9506 14.1498C36.7926 13.83 36.1785 13.4593 35.616 13.1198C34.8737 12.6718 34.2215 12.2781 32.5277 12.1278C34.6216 11.6419 36.0603 12.4921 37.4049 13.2867C38.7316 14.0707 39.9667 14.8007 41.6493 14.1396C41.8197 14.0685 42.0001 13.9872 42.1606 13.8754C42.3712 13.7332 42.3008 13.3979 42.0503 13.3674H42.0404C39.7971 13.1562 38.7106 12.6316 37.6763 12.1322C36.5708 11.5984 35.5248 11.0934 33.1894 11.0304C36.8995 10.3679 38.0044 10.9012 39.497 11.6217C40.3393 12.0283 41.3051 12.4945 42.9323 12.839C45.0974 13.2861 46.2504 12.5139 47.0421 11.8839C47.0747 11.8556 47.1116 11.8273 47.1499 11.7979C47.194 11.7641 47.2399 11.7289 47.2828 11.6909C47.423 11.5689 47.3129 11.3454 47.1325 11.3657C44.4789 11.7148 43.1966 11.2962 41.6778 10.8005C40.1902 10.315 38.4757 9.75539 35.0237 9.77047C39.8153 8.56636 41.5234 9.21326 43.2421 9.86416C44.1049 10.1909 44.9704 10.5187 46.2301 10.6138C49.4073 10.8553 50.3719 9.80101 51.2666 8.82319L51.2923 8.79503C51.3174 8.76458 51.3474 8.73413 51.3774 8.70367L51.3775 8.7036C51.4076 8.67312 51.4376 8.64263 51.4627 8.61216C51.573 8.49023 51.5027 8.26667 51.3225 8.24635C51.2422 8.23619 51.1518 8.25651 51.0716 8.27685C47.5629 9.12712 45.996 8.72872 44.3705 8.31545C42.8104 7.91879 41.1964 7.50843 37.76 8.17524C38.3516 7.77896 39.4141 7.12867 41.4689 6.8645C43.1692 6.64437 44.4692 6.92923 45.823 7.22588C47.0312 7.49063 48.2823 7.76476 49.899 7.69767C53.0457 7.56562 53.878 6.10313 54.6296 4.78247L54.6301 4.78155C54.6802 4.70026 54.6301 4.54786 54.4398 4.57833C51.0038 5.9231 49.5554 5.74089 47.8066 5.52089C46.688 5.38018 45.4466 5.224 43.4836 5.442C41.7096 5.63503 40.4767 6.07194 40.4767 6.07194Z" fill="#141414"/>
<g id="Group">
<path id="Vector" d="M114.483 20.5148C113.178 20.7332 111.857 20.8345 110.536 20.8176C108.056 20.8176 105.398 19.1616 105.398 14.5377V11.8314C105.398 6.92857 108.185 5.53413 110.711 5.53413C111.974 5.5227 113.235 5.61714 114.483 5.81645C114.659 5.83713 114.821 5.91632 114.821 6.11946V7.12824C114.821 7.26941 114.743 7.33141 114.564 7.33141H114.486C113.316 7.23154 112.403 7.19022 110.715 7.19022C108.871 7.19022 107.204 8.19903 107.204 11.8314V14.5377C107.204 17.8706 108.692 19.1824 110.539 19.1824C111.747 19.1824 112.568 19.1032 113.035 19.0617V13.2878C113.031 13.2369 113.037 13.1856 113.053 13.1371C113.069 13.0886 113.095 13.044 113.128 13.006C113.162 12.9679 113.203 12.9372 113.248 12.9159C113.294 12.8945 113.343 12.8828 113.393 12.8816H114.466C114.568 12.8869 114.664 12.9321 114.734 13.0079C114.804 13.0836 114.842 13.1839 114.841 13.2878V20.0706C114.844 20.1763 114.81 20.2795 114.744 20.3612C114.678 20.4429 114.585 20.4974 114.483 20.5148Z" fill="#141414" fill-opacity="0.6"/>
<path id="Vector_2" d="M122.236 10.9853C121.313 10.948 120.388 11.0162 119.48 11.1885V20.2746C119.485 20.3731 119.452 20.4697 119.389 20.5445C119.326 20.6195 119.238 20.6671 119.141 20.6773H118.11C118.01 20.6721 117.916 20.6267 117.849 20.5514C117.782 20.4758 117.747 20.3765 117.751 20.2746V10.462C117.757 10.3606 117.793 10.2633 117.854 10.1829C117.915 10.1025 117.998 10.0426 118.093 10.0109C119.223 9.50483 120.593 9.44629 122.236 9.44629C122.497 9.44629 122.656 9.46694 122.656 9.74926V10.6755C122.656 10.8855 122.615 10.9853 122.236 10.9853Z" fill="#141414" fill-opacity="0.6"/>
<path id="Vector_3" d="M128.818 20.8172C125.903 20.8172 124.421 18.8583 124.421 15.8903V14.3547C124.421 11.3868 125.909 9.43115 128.818 9.43115C131.727 9.43115 133.215 11.3868 133.215 14.3547V15.8903C133.215 18.8583 131.717 20.8172 128.818 20.8172ZM131.497 14.3547C131.497 12.2889 130.682 10.984 128.818 10.984C126.955 10.984 126.16 12.2785 126.16 14.3547V15.8903C126.16 17.956 126.955 19.2644 128.818 19.2644C130.682 19.2644 131.497 17.9698 131.497 15.8903V14.3547Z" fill="#141414" fill-opacity="0.6"/>
<path id="Vector_4" d="M139.831 20.8171H139.642C138.289 20.8171 135.556 20.0493 135.556 16.0727V9.97511C135.551 9.92373 135.558 9.87203 135.574 9.82329C135.591 9.77452 135.617 9.72979 135.651 9.6919C135.686 9.65403 135.727 9.62383 135.774 9.60324C135.82 9.58265 135.87 9.5721 135.921 9.57227H136.953C137.003 9.57304 137.052 9.58428 137.098 9.60529C137.143 9.6263 137.184 9.65663 137.218 9.69441C137.252 9.7322 137.277 9.77662 137.293 9.82489C137.309 9.87319 137.315 9.92432 137.311 9.97511V16.0727C137.311 18.4829 138.326 19.2643 139.652 19.2643H139.831C141.157 19.2643 142.172 18.4965 142.172 16.0727V9.97511C142.168 9.92459 142.174 9.87375 142.189 9.8257C142.205 9.77764 142.23 9.73339 142.264 9.69566C142.297 9.65793 142.338 9.62752 142.383 9.60631C142.428 9.58508 142.477 9.57351 142.527 9.57227H143.558C143.609 9.57304 143.658 9.58428 143.704 9.60529C143.749 9.6263 143.79 9.65663 143.824 9.69441C143.857 9.7322 143.883 9.77662 143.899 9.82489C143.915 9.87319 143.921 9.92432 143.917 9.97511V16.0727C143.917 20.0493 141.177 20.8171 139.831 20.8171Z" fill="#141414" fill-opacity="0.6"/>
<path id="Vector_5" d="M150.678 20.8172C149.9 20.8066 149.124 20.733 148.357 20.5968V24.2499C148.357 24.3003 148.348 24.3498 148.329 24.3963C148.31 24.4426 148.282 24.4846 148.248 24.5203C148.213 24.5558 148.171 24.584 148.126 24.6031C148.08 24.6222 148.031 24.6322 147.982 24.6322H146.967C146.919 24.6316 146.871 24.6214 146.827 24.602C146.782 24.5823 146.742 24.5538 146.709 24.5181C146.675 24.4827 146.649 24.4403 146.632 24.3944C146.615 24.3484 146.607 24.2992 146.609 24.2499V10.3539C146.609 10.0923 146.67 9.97174 147.025 9.89255C148.22 9.59752 149.445 9.4416 150.675 9.42773C153.631 9.42773 155.001 11.3834 155.001 14.4132V15.8628C155.004 19.0407 153.573 20.8172 150.678 20.8172ZM153.255 14.4167C153.255 12.2958 152.643 10.9254 150.678 10.9254C149.9 10.93 149.125 10.9968 148.357 11.1251V19.1199C149.125 19.248 149.9 19.3161 150.678 19.3231C152.623 19.3231 153.255 18.0318 153.255 15.88V14.4167Z" fill="#141414" fill-opacity="0.6"/>
<path id="Vector_6" d="M79.959 20.6534C79.0659 20.7946 76.5763 20.9737 75.7139 20.9737C71.8852 20.9737 69.2874 19.9958 69.2874 15.0999V6.17556C69.2882 6.12385 69.2991 6.07287 69.3197 6.02554C69.3402 5.97823 69.3695 5.93552 69.4065 5.89996C69.4432 5.86436 69.4867 5.8366 69.5341 5.8183C69.5817 5.80001 69.6324 5.79154 69.6831 5.79336H72.9168C72.9674 5.79107 73.0184 5.7992 73.066 5.81733C73.1137 5.83546 73.1575 5.86317 73.1945 5.89885C73.2312 5.93453 73.2607 5.97743 73.281 6.02495C73.3013 6.07251 73.3119 6.12371 73.3125 6.17556V15.0999C73.3125 16.9178 73.9078 17.51 75.3182 17.51C75.9549 17.5079 76.5908 17.4665 77.2226 17.3861V6.17556C77.2229 6.12371 77.2336 6.07251 77.2538 6.02495C77.2741 5.97743 77.3037 5.93453 77.3406 5.89885C77.3776 5.86317 77.4211 5.83546 77.4688 5.81733C77.5164 5.7992 77.5674 5.79107 77.6183 5.79336H80.8315C80.9364 5.78866 81.0385 5.82614 81.1166 5.89763C81.1943 5.96915 81.2414 6.06899 81.2475 6.17556V19.0973C81.2475 20.2266 80.9092 20.5122 79.959 20.6534Z" fill="#141414"/>
<path id="Vector_7" d="M87.4746 20.7945H84.2207C84.1166 20.792 84.0178 20.748 83.9449 20.6719C83.8723 20.5961 83.8315 20.4942 83.8315 20.3885V6.17552C83.8326 6.12443 83.8433 6.07402 83.8633 6.02716C83.8833 5.9803 83.9123 5.9379 83.9485 5.90241C83.9846 5.86693 84.0271 5.83903 84.0739 5.82032C84.1205 5.80161 84.1706 5.79244 84.2207 5.79336H87.4746C87.5253 5.79103 87.5762 5.79917 87.6239 5.8173C87.6715 5.83543 87.7154 5.86316 87.7521 5.89884C87.789 5.93449 87.8186 5.97739 87.8389 6.02495C87.8591 6.07247 87.8698 6.12371 87.8704 6.17552V20.3885C87.8706 20.4416 87.8608 20.4942 87.8411 20.5435C87.8213 20.5928 87.7923 20.6376 87.7556 20.6755C87.7186 20.7132 87.6751 20.7431 87.6266 20.7635C87.5784 20.784 87.5267 20.7945 87.4746 20.7945Z" fill="#141414"/>
<path id="Vector_8" d="M98.978 20.6109C98.0757 20.8727 97.1394 20.9948 96.2012 20.9724C92.5515 20.9724 90.0925 18.9549 90.0925 14.3308V12.265C90.0925 7.62724 92.5515 5.60964 96.2012 5.60964C97.1394 5.58913 98.0751 5.71097 98.978 5.97115C99.296 6.07445 99.4146 6.13297 99.4146 6.41532V9.00103C99.4146 9.26268 99.296 9.3832 99.0764 9.3832H99.0153C98.0935 9.27356 97.1665 9.2138 96.2384 9.20417C95.1663 9.20417 94.2089 9.6862 94.2089 12.2512V14.3171C94.2089 16.8614 95.1627 17.3676 96.2384 17.3676C97.1665 17.357 98.0935 17.2961 99.0153 17.1851H99.0525C99.2894 17.1851 99.3908 17.3056 99.3908 17.5673V20.1666C99.4146 20.4285 99.296 20.511 98.978 20.6109Z" fill="#141414"/>
</g>
</g>
</g>
</svg>
