<svg width="44" height="44" viewBox="0 0 44 44" fill="none" xmlns="http://www.w3.org/2000/svg">
<g id="Artificial intelligence zap">
<path id="Vector" d="M22 7.55365L16.9696 5.5L9.32318 10.5024V16.0082L5.5 17.9735V26.0269L9.32318 27.9912V33.4912L16.9696 38.5L22 36.4375" stroke="#595DD2" stroke-width="2.5" stroke-linecap="round" stroke-linejoin="round"/>
<path id="Vector_2" d="M22 33.2292V36.4463L27.0305 38.5L34.6768 33.4976V27.9919L38.5 26.0265V17.973L34.6768 16.0088V10.5089L27.0305 5.5L22 7.56246V10.7724" stroke="#595DD2" stroke-width="2.5" stroke-linecap="round" stroke-linejoin="round"/>
<path id="Vector_3" fill-rule="evenodd" clip-rule="evenodd" d="M21.456 15.2625L16.2032 22.4979C15.8283 23.014 16.197 23.7369 16.8345 23.7369H21.1315V28.2799C21.1315 29.0356 22.1002 29.3509 22.5446 28.7378L27.7975 21.5031C28.1722 20.9872 27.8036 20.2634 27.1661 20.2634H22.8682V15.7213C22.8682 14.9648 21.9004 14.6503 21.456 15.2625Z" stroke="#595DD2" stroke-width="2.5" stroke-linecap="round" stroke-linejoin="round"/>
</g>
</svg>
